SourceSerif-Italic_2.ufo
<glyph name="numbersign" format="2">
	<unicode hex="0023"/>
	<advance width="603"/>
	<outline>
		<contour>
			<point x="70" y="0" type="line"/>
			<point x="165" y="0" type="line"/>
			<point x="335" y="640" type="line"/>
			<point x="240" y="640" type="line"/>
		</contour>
		<contour>
			<point x="35" y="271" type="line"/>
			<point x="11" y="151" type="line"/>
			<point x="529" y="151" type="line"/>
			<point x="553" y="271" type="line"/>
		</contour>
		<contour>
			<point x="588" y="367" type="line"/>
			<point x="612" y="487" type="line"/>
			<point x="94" y="487" type="line"/>
			<point x="70" y="367" type="line"/>
		</contour>
		<contour>
			<point x="295" y="0" type="line"/>
			<point x="391" y="0" type="line"/>
			<point x="561" y="640" type="line"/>
			<point x="466" y="640" type="line"/>
		</contour>
	</outline>
</glyph>
<glyph name="dollar" format="2">
	<unicode hex="0024"/>
	<advance width="560"/>
	<outline>
		<contour>
			<point x="237" y="-14" type="curve" smooth="yes"/>
			<point x="414" y="-14"/>
			<point x="508" y="64"/>
			<point x="508" y="194" type="curve" smooth="yes"/>
			<point x="508" y="283"/>
			<point x="459" y="332"/>
			<point x="360" y="389" type="curve" smooth="yes"/>
			<point x="332" y="405" type="line" smooth="yes"/>
			<point x="286" y="431"/>
			<point x="262" y="450"/>
			<point x="262" y="494" type="curve" smooth="yes"/>
			<point x="262" y="557"/>
			<point x="305" y="583"/>
			<point x="367" y="583" type="curve" smooth="yes"/>
			<point x="412" y="583"/>
			<point x="445" y="575"/>
			<point x="497" y="542" type="curve"/>
			<point x="417" y="600" type="line"/>
			<point x="424" y="529" type="line" smooth="yes"/>
			<point x="431" y="459"/>
			<point x="462" y="448"/>
			<point x="493" y="448" type="curve" smooth="yes"/>
			<point x="529" y="448"/>
			<point x="547" y="470"/>
			<point x="554" y="515" type="curve"/>
			<point x="542" y="601"/>
			<point x="464" y="640"/>
			<point x="366" y="640" type="curve" smooth="yes"/>
			<point x="192" y="640"/>
			<point x="109" y="552"/>
			<point x="109" y="441" type="curve" smooth="yes"/>
			<point x="109" y="355"/>
			<point x="158" y="305"/>
			<point x="242" y="253" type="curve" smooth="yes"/>
			<point x="268" y="237" type="line" smooth="yes"/>
			<point x="318" y="206"/>
			<point x="348" y="191"/>
			<point x="348" y="139" type="curve" smooth="yes"/>
			<point x="348" y="75"/>
			<point x="306" y="40"/>
			<point x="244" y="40" type="curve" smooth="yes"/>
			<point x="186" y="40"/>
			<point x="155" y="58"/>
			<point x="108" y="89" type="curve"/>
			<point x="183" y="33" type="line"/>
			<point x="178" y="114" type="line" smooth="yes"/>
			<point x="174" y="176"/>
			<point x="151" y="191"/>
			<point x="117" y="191" type="curve" smooth="yes"/>
			<point x="92" y="191"/>
			<point x="62" y="171"/>
			<point x="53" y="139" type="curve"/>
			<point x="53" y="38"/>
			<point x="119" y="-14"/>
		</contour>
		<contour>
			<point x="180" y="-115" type="line"/>
			<point x="247" y="-115" type="line"/>
			<point x="334" y="314" type="line"/>
			<point x="267" y="314" type="line"/>
		</contour>
		<contour>
			<point x="272" y="314" type="line"/>
			<point x="340" y="314" type="line"/>
			<point x="425" y="731" type="line"/>
			<point x="357" y="731" type="line"/>
		</contour>
	</outline>
</glyph>
<glyph name="ampersand" format="2">
	<unicode hex="0026"/>
	<advance width="752"/>
	<outline>
		<contour>
			<point x="322" y="-17" type="curve" smooth="yes"/>
			<point x="516" y="-17"/>
			<point x="616" y="83"/>
			<point x="616" y="201" type="curve" smooth="yes"/>
			<point x="616" y="265"/>
			<point x="579" y="320"/>
			<point x="498" y="327" type="curve"/>
			<point x="521" y="280" type="line"/>
			<point x="646" y="301"/>
			<point x="734" y="367"/>
			<point x="787" y="478" type="curve"/>
			<point x="671" y="531" type="line"/>
			<point x="636" y="424"/>
			<point x="569" y="360"/>
			<point x="468" y="339" type="curve"/>
			<point x="456" y="276" type="line"/>
			<point x="519" y="269"/>
			<point x="533" y="244"/>
			<point x="533" y="213" type="curve" smooth="yes"/>
			<point x="533" y="164"/>
			<point x="491" y="121"/>
			<point x="376" y="121" type="curve" smooth="yes"/>
			<point x="274" y="121"/>
			<point x="210" y="168"/>
			<point x="210" y="262" type="curve" smooth="yes"/>
			<point x="210" y="328"/>
			<point x="249" y="377"/>
			<point x="333" y="419" type="curve"/>
			<point x="320" y="442"/>
			<point x="311" y="476"/>
			<point x="311" y="506" type="curve" smooth="yes"/>
			<point x="311" y="581"/>
			<point x="360" y="624"/>
			<point x="440" y="624" type="curve" smooth="yes"/>
			<point x="456" y="624"/>
			<point x="472" y="624"/>
			<point x="488" y="624" type="curve"/>
			<point x="414" y="646" type="line"/>
			<point x="439" y="579" type="line" smooth="yes"/>
			<point x="458" y="528"/>
			<point x="489" y="512"/>
			<point x="517" y="512" type="curve" smooth="yes"/>
			<point x="556" y="512"/>
			<point x="577" y="536"/>
			<point x="579" y="568" type="curve"/>
			<point x="567" y="626"/>
			<point x="520" y="672"/>
			<point x="401" y="672" type="curve" smooth="yes"/>
			<point x="270" y="672"/>
			<point x="184" y="586"/>
			<point x="184" y="488" type="curve" smooth="yes"/>
			<point x="184" y="397"/>
			<point x="248" y="331"/>
			<point x="374" y="331" type="curve" smooth="yes"/>
			<point x="429" y="331"/>
			<point x="454" y="355"/>
			<point x="454" y="387" type="curve" smooth="yes"/>
			<point x="454" y="428"/>
			<point x="419" y="448"/>
			<point x="348" y="448" type="curve" smooth="yes"/>
			<point x="169" y="448"/>
			<point x="38" y="332"/>
			<point x="38" y="199" type="curve" smooth="yes"/>
			<point x="38" y="78"/>
			<point x="127" y="-17"/>
		</contour>
	</outline>
</glyph>
<glyph name="quotesingle" format="2">
	<unicode hex="0027"/>
	<advance width="288"/>
	<outline>
		<contour>
			<point x="220" y="721" type="curve" smooth="yes"/>
			<point x="178" y="721"/>
			<point x="147" y="696"/>
			<point x="137" y="637" type="curve" smooth="yes"/>
			<point x="130" y="588"/>
			<point x="131" y="526"/>
			<point x="134" y="464" type="curve" smooth="yes"/>
			<point x="137" y="380" type="line"/>
			<point x="188" y="380" type="line"/>
			<point x="248" y="521"/>
			<point x="285" y="597"/>
			<point x="285" y="649" type="curve" smooth="yes"/>
			<point x="285" y="693"/>
			<point x="262" y="721"/>
		</contour>
	</outline>
</glyph>
<glyph name="asterisk" format="2">
	<unicode hex="002A"/>
	<advance width="466"/>
	<outline>
		<contour>
			<point x="209" y="673" type="curve" smooth="yes"/>
			<point x="209" y="652"/>
			<point x="228" y="610"/>
			<point x="294" y="495" type="curve"/>
			<point x="298" y="494" type="line"/>
			<point x="318" y="616"/>
			<point x="325" y="656"/>
			<point x="321" y="679" type="curve" smooth="yes"/>
			<point x="316" y="711"/>
			<point x="297" y="731"/>
			<point x="263" y="731" type="curve" smooth="yes"/>
			<point x="222" y="731"/>
			<point x="209" y="700"/>
		</contour>
		<contour>
			<point x="81" y="545" type="curve" smooth="yes"/>
			<point x="81" y="486"/>
			<point x="151" y="475"/>
			<point x="309" y="518" type="curve"/>
			<point x="310" y="522" type="line"/>
			<point x="201" y="581"/>
			<point x="164" y="600"/>
			<point x="137" y="600" type="curve" smooth="yes"/>
			<point x="107" y="600"/>
			<point x="81" y="578"/>
		</contour>
		<contour>
			<point x="165" y="379" type="curve" smooth="yes"/>
			<point x="165" y="350"/>
			<point x="192" y="327"/>
			<point x="221" y="327" type="curve" smooth="yes"/>
			<point x="263" y="327"/>
			<point x="288" y="377"/>
			<point x="303" y="542" type="curve"/>
			<point x="299" y="543" type="line"/>
			<point x="195" y="443"/>
			<point x="165" y="411"/>
		</contour>
		<contour>
			<point x="271" y="539" type="line"/>
			<point x="339" y="400"/>
			<point x="365" y="358"/>
			<point x="405" y="358" type="curve" smooth="yes"/>
			<point x="439" y="358"/>
			<point x="458" y="389"/>
			<point x="458" y="412" type="curve" smooth="yes"/>
			<point x="458" y="449"/>
			<point x="423" y="476"/>
			<point x="272" y="537" type="curve"/>
		</contour>
		<contour>
			<point x="428" y="651" type="curve" smooth="yes"/>
			<point x="404" y="651"/>
			<point x="366" y="622"/>
			<point x="270" y="508" type="curve"/>
			<point x="268" y="507" type="line"/>
			<point x="435" y="528"/>
			<point x="485" y="556"/>
			<point x="485" y="593" type="curve" smooth="yes"/>
			<point x="485" y="629"/>
			<point x="461" y="651"/>
		</contour>
	</outline>
</glyph>
<glyph name="plus" format="2">
	<unicode hex="002B"/>
	<advance width="550"/>
	<outline>
		<contour>
			<point x="223" y="85" type="line"/>
			<point x="321" y="85" type="line"/>
			<point x="321" y="550" type="line"/>
			<point x="223" y="550" type="line"/>
		</contour>
		<contour>
			<point x="502" y="273" type="line"/>
			<point x="502" y="367" type="line"/>
			<point x="42" y="367" type="line"/>
			<point x="42" y="273" type="line"/>
		</contour>
	</outline>
</glyph>
<glyph name="comma" format="2">
	<unicode hex="002C"/>
	<advance width="314"/>
	<outline>
		<contour>
			<point x="21" y="-170" type="line"/>
			<point x="133" y="-120"/>
			<point x="208" y="-49"/>
			<point x="208" y="94" type="curve" smooth="yes"/>
			<point x="208" y="112"/>
			<point x="206" y="126"/>
			<point x="200" y="145" type="curve"/>
			<point x="181" y="164"/>
			<point x="161" y="173"/>
			<point x="129" y="173" type="curve" smooth="yes"/>
			<point x="70" y="173"/>
			<point x="25" y="132"/>
			<point x="25" y="74" type="curve" smooth="yes"/>
			<point x="25" y="36"/>
			<point x="50" y="8"/>
			<point x="85" y="-9" type="curve" smooth="yes"/>
			<point x="140" y="-36" type="line"/>
			<point x="124" y="7" type="line"/>
			<point x="95" y="-59"/>
			<point x="60" y="-87"/>
			<point x="-4" y="-121" type="curve"/>
		</contour>
	</outline>
</glyph>
<glyph name="period" format="2">
	<unicode hex="002E"/>
	<advance width="314"/>
	<outline>
		<contour>
			<point x="111" y="-16" type="curve" smooth="yes"/>
			<point x="168" y="-16"/>
			<point x="219" y="29"/>
			<point x="219" y="89" type="curve" smooth="yes"/>
			<point x="219" y="137"/>
			<point x="181" y="178"/>
			<point x="128" y="178" type="curve" smooth="yes"/>
			<point x="71" y="178"/>
			<point x="20" y="131"/>
			<point x="20" y="71" type="curve" smooth="yes"/>
			<point x="20" y="25"/>
			<point x="57" y="-16"/>
		</contour>
	</outline>
</glyph>
<glyph name="slash" format="2">
	<unicode hex="002F"/>
	<advance width="410"/>
	<outline>
		<contour>
			<point x="-77" y="-160" type="line"/>
			<point x="52" y="-160" type="line"/>
			<point x="497" y="710" type="line"/>
			<point x="369" y="710" type="line"/>
		</contour>
	</outline>
</glyph>
<glyph name="one" format="2">
	<unicode hex="0031"/>
	<advance width="560"/>
	<outline>
		<contour>
			<point x="38" y="0" type="line"/>
			<point x="426" y="0" type="line"/>
			<point x="437" y="51" type="line"/>
			<point x="284" y="71" type="line"/>
			<point x="207" y="71" type="line"/>
			<point x="49" y="51" type="line"/>
		</contour>
		<contour>
			<point x="143" y="0" type="line"/>
			<point x="314" y="0" type="line"/>
			<point x="326" y="67"/>
			<point x="339" y="138"/>
			<point x="353" y="206" type="curve" smooth="yes"/>
			<point x="413" y="490" type="line"/>
			<point x="446" y="630" type="line"/>
			<point x="435" y="640" type="line"/>
			<point x="160" y="582" type="line"/>
			<point x="151" y="537" type="line"/>
			<point x="283" y="540" type="line"/>
			<point x="259" y="569" type="line"/>
		</contour>
	</outline>
</glyph>
<glyph name="question" format="2">
	<unicode hex="003F"/>
	<advance width="463"/>
	<outline>
		<contour>
			<point x="51" y="58" type="curve" smooth="yes"/>
			<point x="51" y="19"/>
			<point x="82" y="-16"/>
			<point x="128" y="-16" type="curve" smooth="yes"/>
			<point x="176" y="-16"/>
			<point x="219" y="23"/>
			<point x="219" y="73" type="curve" smooth="yes"/>
			<point x="219" y="114"/>
			<point x="187" y="148"/>
			<point x="142" y="148" type="curve" smooth="yes"/>
			<point x="95" y="148"/>
			<point x="51" y="108"/>
		</contour>
		<contour>
			<point x="121" y="198" type="curve"/>
			<point x="171" y="192" type="line"/>
			<point x="175" y="222"/>
			<point x="181" y="235"/>
			<point x="197" y="251" type="curve" smooth="yes"/>
			<point x="225" y="276"/>
			<point x="275" y="301"/>
			<point x="376" y="350" type="curve" smooth="yes"/>
			<point x="457" y="389"/>
			<point x="496" y="452"/>
			<point x="496" y="528" type="curve" smooth="yes"/>
			<point x="496" y="629"/>
			<point x="410" y="672"/>
			<point x="311" y="672" type="curve" smooth="yes"/>
			<point x="208" y="672"/>
			<point x="144" y="629"/>
			<point x="130" y="562" type="curve"/>
			<point x="136" y="524"/>
			<point x="160" y="501"/>
			<point x="200" y="501" type="curve" smooth="yes"/>
			<point x="238" y="501"/>
			<point x="267" y="525"/>
			<point x="284" y="568" type="curve" smooth="yes"/>
			<point x="314" y="645" type="line"/>
			<point x="238" y="624" type="line"/>
			<point x="255" y="624"/>
			<point x="272" y="624"/>
			<point x="289" y="624" type="curve" smooth="yes"/>
			<point x="361" y="624"/>
			<point x="381" y="596"/>
			<point x="381" y="565" type="curve" smooth="yes"/>
			<point x="381" y="531"/>
			<point x="358" y="509"/>
			<point x="264" y="462" type="curve" smooth="yes"/>
			<point x="197" y="429"/>
			<point x="164" y="407"/>
			<point x="140" y="369" type="curve" smooth="yes"/>
			<point x="111" y="322"/>
			<point x="112" y="279"/>
		</contour>
	</outline>
</glyph>
<glyph name="at" format="2">
	<unicode hex="0040"/>
	<advance width="856"/>
	<outline>
		<contour>
			<point x="293" y="37" type="curve" smooth="yes"/>
			<point x="354" y="37"/>
			<point x="422" y="87"/>
			<point x="472" y="136" type="curve"/>
			<point x="489" y="136" type="line"/>
			<point x="468" y="183" type="line"/>
			<point x="447" y="161"/>
			<point x="422" y="141"/>
			<point x="397" y="141" type="curve" smooth="yes"/>
			<point x="367" y="141"/>
			<point x="349" y="163"/>
			<point x="349" y="220" type="curve" smooth="yes"/>
			<point x="349" y="326"/>
			<point x="403" y="434"/>
			<point x="466" y="434" type="curve" smooth="yes"/>
			<point x="487" y="434"/>
			<point x="509" y="427"/>
			<point x="529" y="413" type="curve"/>
			<point x="601" y="466" type="line"/>
			<point x="575" y="491"/>
			<point x="543" y="503"/>
			<point x="509" y="503" type="curve" smooth="yes"/>
			<point x="370" y="503"/>
			<point x="196" y="332"/>
			<point x="196" y="161" type="curve" smooth="yes"/>
			<point x="196" y="71"/>
			<point x="242" y="37"/>
		</contour>
		<contour>
			<point x="561" y="37" type="curve" smooth="yes"/>
			<point x="685" y="37"/>
			<point x="830" y="176"/>
			<point x="830" y="367" type="curve" smooth="yes"/>
			<point x="830" y="523"/>
			<point x="728" y="652"/>
			<point x="524" y="652" type="curve" smooth="yes"/>
			<point x="205" y="652"/>
			<point x="29" y="400"/>
			<point x="29" y="158" type="curve" smooth="yes"/>
			<point x="29" y="-14"/>
			<point x="141" y="-152"/>
			<point x="351" y="-152" type="curve" smooth="yes"/>
			<point x="430" y="-152"/>
			<point x="494" y="-132"/>
			<point x="555" y="-108" type="curve"/>
			<point x="543" y="-56" type="line"/>
			<point x="486" y="-72"/>
			<point x="436" y="-79"/>
			<point x="385" y="-79" type="curve" smooth="yes"/>
			<point x="217" y="-79"/>
			<point x="115" y="15"/>
			<point x="115" y="175" type="curve" smooth="yes"/>
			<point x="115" y="392"/>
			<point x="263" y="597"/>
			<point x="514" y="597" type="curve" smooth="yes"/>
			<point x="673" y="597"/>
			<point x="755" y="512"/>
			<point x="755" y="365" type="curve" smooth="yes"/>
			<point x="755" y="223"/>
			<point x="675" y="127"/>
			<point x="629" y="127" type="curve" smooth="yes"/>
			<point x="601" y="127"/>
			<point x="596" y="145"/>
			<point x="604" y="178" type="curve" smooth="yes"/>
			<point x="675" y="490" type="line"/>
			<point x="661" y="503" type="line"/>
			<point x="510" y="441" type="line"/>
			<point x="447" y="156" type="line" smooth="yes"/>
			<point x="433" y="93"/>
			<point x="472" y="37"/>
		</contour>
	</outline>
</glyph>
<glyph name="A" format="2">
	<unicode hex="0041"/>
	<advance width="693"/>
	<outline>
		<contour>
			<point x="-50" y="0" type="line"/>
			<point x="177" y="0" type="line"/>
			<point x="189" y="59" type="line"/>
			<point x="98" y="74" type="line"/>
			<point x="65" y="74" type="line"/>
			<point x="-38" y="59" type="line"/>
		</contour>
		<contour>
			<point x="12" y="0" type="line"/>
			<point x="73" y="0" type="line"/>
			<point x="333" y="522" type="line"/>
			<point x="339" y="533" type="line"/>
			<point x="321" y="533" type="line"/>
			<point x="401" y="0" type="line"/>
			<point x="574" y="0" type="line"/>
			<point x="462" y="652" type="line"/>
			<point x="347" y="652" type="line"/>
		</contour>
		<contour>
			<point x="153" y="180" type="line"/>
			<point x="452" y="180" type="line"/>
			<point x="439" y="243" type="line"/>
			<point x="180" y="243" type="line"/>
		</contour>
		<contour>
			<point x="299" y="0" type="line"/>
			<point x="626" y="0" type="line"/>
			<point x="638" y="59" type="line"/>
			<point x="497" y="74" type="line"/>
			<point x="464" y="74" type="line"/>
			<point x="311" y="59" type="line"/>
		</contour>
	</outline>
	<anchor name="aboveUC" x="400" y="672"/>
	<anchor name="belowLC" x="236" y="-20"/>
	<anchor name="ogonek" x="502" y="0"/>
</glyph>
<glyph name="B" format="2">
	<unicode hex="0042"/>
	<advance width="639"/>
	<outline>
		<contour>
			<point x="-9" y="0" type="line"/>
			<point x="154" y="0" type="line"/>
			<point x="168" y="74" type="line"/>
			<point x="150" y="74" type="line"/>
			<point x="3" y="59" type="line"/>
		</contour>
		<contour>
			<point x="66" y="0" type="line"/>
			<point x="245" y="0" type="line"/>
			<point x="262" y="103"/>
			<point x="281" y="207"/>
			<point x="301" y="311" type="curve" smooth="yes"/>
			<point x="366" y="652" type="line"/>
			<point x="186" y="652" type="line"/>
			<point x="169" y="549"/>
			<point x="151" y="445"/>
			<point x="131" y="342" type="curve" smooth="yes"/>
		</contour>
		<contour>
			<point x="103" y="593" type="line"/>
			<point x="246" y="578" type="line"/>
			<point x="264" y="578" type="line"/>
			<point x="278" y="652" type="line"/>
			<point x="115" y="652" type="line"/>
		</contour>
		<contour>
			<point x="157" y="0" type="line"/>
			<point x="317" y="0" type="line" smooth="yes"/>
			<point x="559" y="0"/>
			<point x="615" y="102"/>
			<point x="615" y="181" type="curve" smooth="yes"/>
			<point x="615" y="269"/>
			<point x="558" y="340"/>
			<point x="415" y="351" type="curve"/>
			<point x="404" y="342" type="line"/>
			<point x="575" y="348"/>
			<point x="627" y="424"/>
			<point x="627" y="500" type="curve" smooth="yes"/>
			<point x="627" y="576"/>
			<point x="575" y="652"/>
			<point x="397" y="652" type="curve" smooth="yes"/>
			<point x="281" y="652" type="line"/>
			<point x="269" y="592" type="line"/>
			<point x="357" y="592" type="line" smooth="yes"/>
			<point x="424" y="592"/>
			<point x="454" y="558"/>
			<point x="454" y="500" type="curve" smooth="yes"/>
			<point x="454" y="411"/>
			<point x="407" y="371"/>
			<point x="331" y="371" type="curve" smooth="yes"/>
			<point x="227" y="371" type="line"/>
			<point x="217" y="315" type="line"/>
			<point x="342" y="315" type="line" smooth="yes"/>
			<point x="407" y="315"/>
			<point x="442" y="276"/>
			<point x="442" y="203" type="curve" smooth="yes"/>
			<point x="442" y="114"/>
			<point x="382" y="60"/>
			<point x="292" y="60" type="curve" smooth="yes"/>
			<point x="169" y="60" type="line"/>
		</contour>
	</outline>
	<anchor name="aboveUC" x="372" y="682"/>
	<anchor name="belowLC" x="298" y="-22"/>
</glyph>
<glyph name="C" format="2">
	<unicode hex="0043"/>
	<advance width="605"/>
	<outline>
		<contour>
			<point x="333" y="-20" type="curve" smooth="yes"/>
			<point x="420" y="-20"/>
			<point x="489" y="2"/>
			<point x="536" y="31" type="curve"/>
			<point x="562" y="189" type="line"/>
			<point x="477" y="189" type="line"/>
			<point x="413" y="22" type="line"/>
			<point x="496" y="84" type="line"/>
			<point x="453" y="59"/>
			<point x="411" y="40"/>
			<point x="368" y="40" type="curve" smooth="yes"/>
			<point x="253" y="40"/>
			<point x="204" y="143"/>
			<point x="204" y="259" type="curve" smooth="yes"/>
			<point x="204" y="445"/>
			<point x="295" y="611"/>
			<point x="436" y="611" type="curve" smooth="yes"/>
			<point x="487" y="611"/>
			<point x="521" y="591"/>
			<point x="563" y="544" type="curve"/>
			<point x="509" y="615" type="line"/>
			<point x="512" y="463" type="line"/>
			<point x="598" y="463" type="line"/>
			<point x="621" y="621" type="line"/>
			<point x="556" y="655"/>
			<point x="497" y="672"/>
			<point x="417" y="672" type="curve" smooth="yes"/>
			<point x="176" y="672"/>
			<point x="20" y="496"/>
			<point x="20" y="255" type="curve" smooth="yes"/>
			<point x="20" y="76"/>
			<point x="150" y="-20"/>
		</contour>
	</outline>
	<anchor name="aboveUC" x="416" y="672"/>
	<anchor name="belowLC" x="329" y="-20"/>
	<anchor name="baseLC" x="336" y="0"/>
</glyph>
<glyph name="D" format="2">
	<unicode hex="0044"/>
	<advance width="685"/>
	<outline>
		<contour>
			<point x="-30" y="0" type="line"/>
			<point x="134" y="0" type="line"/>
			<point x="148" y="74" type="line"/>
			<point x="120" y="74" type="line"/>
			<point x="-18" y="59" type="line"/>
		</contour>
		<contour>
			<point x="45" y="0" type="line"/>
			<point x="224" y="0" type="line"/>
			<point x="241" y="103"/>
			<point x="260" y="207"/>
			<point x="280" y="311" type="curve" smooth="yes"/>
			<point x="345" y="652" type="line"/>
			<point x="165" y="652" type="line"/>
			<point x="148" y="549"/>
			<point x="130" y="445"/>
			<point x="110" y="342" type="curve" smooth="yes"/>
		</contour>
		<contour>
			<point x="82" y="593" type="line"/>
			<point x="231" y="578" type="line"/>
			<point x="242" y="578" type="line"/>
			<point x="257" y="652" type="line"/>
			<point x="94" y="652" type="line"/>
		</contour>
		<contour>
			<point x="143" y="0" type="line"/>
			<point x="265" y="0" type="line" smooth="yes"/>
			<point x="497" y="0"/>
			<point x="672" y="152"/>
			<point x="672" y="372" type="curve" smooth="yes"/>
			<point x="672" y="523"/>
			<point x="569" y="652"/>
			<point x="359" y="652" type="curve" smooth="yes"/>
			<point x="267" y="652" type="line"/>
			<point x="255" y="592" type="line"/>
			<point x="311" y="592" type="line" smooth="yes"/>
			<point x="434" y="592"/>
			<point x="488" y="516"/>
			<point x="488" y="388" type="curve" smooth="yes"/>
			<point x="488" y="197"/>
			<point x="389" y="60"/>
			<point x="241" y="60" type="curve" smooth="yes"/>
			<point x="155" y="60" type="line"/>
		</contour>
	</outline>
	<anchor name="aboveUC" x="377" y="672"/>
	<anchor name="belowLC" x="258" y="-20"/>
</glyph>
<glyph name="F" format="2">
	<unicode hex="0046"/>
	<advance width="560"/>
	<outline>
		<contour>
			<point x="-30" y="0" type="line"/>
			<point x="313" y="0" type="line"/>
			<point x="325" y="59" type="line"/>
			<point x="182" y="74" type="line"/>
			<point x="129" y="74" type="line"/>
			<point x="-18" y="59" type="line"/>
		</contour>
		<contour>
			<point x="45" y="0" type="line"/>
			<point x="224" y="0" type="line"/>
			<point x="241" y="103"/>
			<point x="260" y="207"/>
			<point x="280" y="311" type="curve" smooth="yes"/>
			<point x="345" y="652" type="line"/>
			<point x="165" y="652" type="line"/>
			<point x="148" y="549"/>
			<point x="130" y="445"/>
			<point x="110" y="342" type="curve" smooth="yes"/>
		</contour>
		<contour>
			<point x="82" y="593" type="line"/>
			<point x="225" y="578" type="line"/>
			<point x="242" y="578" type="line"/>
			<point x="256" y="652" type="line"/>
			<point x="94" y="652" type="line"/>
		</contour>
		<contour>
			<point x="190" y="304" type="line"/>
			<point x="400" y="304" type="line"/>
			<point x="412" y="367" type="line"/>
			<point x="202" y="367" type="line"/>
		</contour>
		<contour>
			<point x="244" y="593" type="line"/>
			<point x="554" y="593" type="line"/>
			<point x="486" y="652" type="line"/>
			<point x="481" y="482" type="line"/>
			<point x="571" y="482" type="line"/>
			<point x="598" y="652" type="line"/>
			<point x="256" y="652" type="line"/>
		</contour>
		<contour>
			<point x="371" y="225" type="line"/>
			<point x="431" y="225" type="line"/>
			<point x="472" y="442" type="line"/>
			<point x="412" y="442" type="line"/>
			<point x="380" y="350" type="line"/>
			<point x="374" y="322" type="line"/>
		</contour>
	</outline>
	<anchor name="aboveUC" x="358" y="672"/>
	<anchor name="belowLC" x="142" y="-20"/>
</glyph>
<glyph name="H" format="2">
	<unicode hex="0048"/>
	<advance width="749"/>
	<outline>
		<contour>
			<point x="-9" y="0" type="line"/>
			<point x="318" y="0" type="line"/>
			<point x="330" y="59" type="line"/>
			<point x="189" y="74" type="line"/>
			<point x="156" y="74" type="line"/>
			<point x="3" y="59" type="line"/>
		</contour>
		<contour>
			<point x="66" y="0" type="line"/>
			<point x="245" y="0" type="line"/>
			<point x="262" y="103"/>
			<point x="281" y="207"/>
			<point x="301" y="311" type="curve" smooth="yes"/>
			<point x="366" y="652" type="line"/>
			<point x="186" y="652" type="line"/>
			<point x="169" y="549"/>
			<point x="151" y="445"/>
			<point x="131" y="342" type="curve" smooth="yes"/>
		</contour>
		<contour>
			<point x="103" y="593" type="line"/>
			<point x="252" y="578" type="line"/>
			<point x="285" y="578" type="line"/>
			<point x="430" y="593" type="line"/>
			<point x="442" y="652" type="line"/>
			<point x="115" y="652" type="line"/>
		</contour>
		<contour>
			<point x="233" y="304" type="line"/>
			<point x="595" y="304" type="line"/>
			<point x="595" y="367" type="line"/>
			<point x="233" y="367" type="line"/>
		</contour>
		<contour>
			<point x="356" y="0" type="line"/>
			<point x="683" y="0" type="line"/>
			<point x="695" y="59" type="line"/>
			<point x="554" y="74" type="line"/>
			<point x="521" y="74" type="line"/>
			<point x="368" y="59" type="line"/>
		</contour>
		<contour>
			<point x="431" y="0" type="line"/>
			<point x="610" y="0" type="line"/>
			<point x="627" y="103"/>
			<point x="646" y="207"/>
			<point x="666" y="311" type="curve" smooth="yes"/>
			<point x="731" y="652" type="line"/>
			<point x="551" y="652" type="line"/>
			<point x="534" y="549"/>
			<point x="516" y="445"/>
			<point x="496" y="342" type="curve" smooth="yes"/>
		</contour>
		<contour>
			<point x="468" y="593" type="line"/>
			<point x="617" y="578" type="line"/>
			<point x="650" y="578" type="line"/>
			<point x="795" y="593" type="line"/>
			<point x="807" y="652" type="line"/>
			<point x="480" y="652" type="line"/>
		</contour>
	</outline>
	<anchor name="aboveUC" x="455" y="682"/>
	<anchor name="belowLC" x="337" y="-22"/>
	<note>
		skew 10 scale 120
	</note>
</glyph>
<glyph name="I" format="2">
	<unicode hex="0049"/>
	<advance width="384"/>
	<outline>
		<contour>
			<point x="-30" y="0" type="line"/>
			<point x="297" y="0" type="line"/>
			<point x="309" y="59" type="line"/>
			<point x="168" y="74" type="line"/>
			<point x="135" y="74" type="line"/>
			<point x="-18" y="59" type="line"/>
		</contour>
		<contour>
			<point x="45" y="0" type="line"/>
			<point x="224" y="0" type="line"/>
			<point x="241" y="103"/>
			<point x="260" y="207"/>
			<point x="280" y="311" type="curve" smooth="yes"/>
			<point x="345" y="652" type="line"/>
			<point x="165" y="652" type="line"/>
			<point x="148" y="549"/>
			<point x="130" y="445"/>
			<point x="110" y="342" type="curve" smooth="yes"/>
		</contour>
		<contour>
			<point x="82" y="593" type="line"/>
			<point x="231" y="578" type="line"/>
			<point x="264" y="578" type="line"/>
			<point x="409" y="593" type="line"/>
			<point x="421" y="652" type="line"/>
			<point x="94" y="652" type="line"/>
		</contour>
	</outline>
	<anchor name="aboveUC" x="253" y="672"/>
	<anchor name="belowLC" x="140" y="-20"/>
	<anchor name="ogonek" x="206" y="0"/>
</glyph>
<glyph name="J" format="2">
	<unicode hex="004A"/>
	<advance width="375"/>
	<outline>
		<contour>
			<point x="-132" y="-83" type="curve"/>
			<point x="-117" y="-131"/>
			<point x="-75" y="-152"/>
			<point x="-21" y="-152" type="curve" smooth="yes"/>
			<point x="62" y="-152"/>
			<point x="132.7243501353" y="-106.460502528"/>
			<point x="186" y="-28" type="curve" smooth="yes"/>
			<point x="228" y="32"/>
			<point x="251" y="126"/>
			<point x="285" y="292" type="curve" smooth="yes"/>
			<point x="358" y="652" type="line"/>
			<point x="177" y="652" type="line"/>
			<point x="145" y="463"/>
			<point x="117" y="341"/>
			<point x="102" y="245" type="curve" smooth="yes"/>
			<point x="92" y="185"/>
			<point x="84" y="124"/>
			<point x="73" y="48" type="curve" smooth="yes"/>
			<point x="65.3189026772" y="-11.5285042515"/>
			<point x="52.525221335" y="-63.0852083771"/>
			<point x="39" y="-94" type="curve"/>
			<point x="39" y="-104" type="line"/>
			<point x="72" y="-104" type="line"/>
			<point x="72" y="-94" type="line"/>
			<point x="13.2501955247" y="-31.3977493296"/>
			<point x="-15" y="-15"/>
			<point x="-52" y="-15" type="curve" smooth="yes"/>
			<point x="-96" y="-15"/>
			<point x="-126.4767941206" y="-43.4170245308"/>
		</contour>
		<contour>
			<point x="81" y="593" type="line"/>
			<point x="219" y="578" type="line"/>
			<point x="264" y="578" type="line"/>
			<point x="416" y="593" type="line"/>
			<point x="427" y="652" type="line"/>
			<point x="92" y="652" type="line"/>
		</contour>
	</outline>
	<anchor name="aboveUC" x="258" y="672"/>
	<anchor name="belowLC" x="59" y="-172"/>
</glyph>
<glyph name="L" format="2">
	<unicode hex="004C"/>
	<advance width="564"/>
	<outline>
		<contour>
			<point x="-9" y="0" type="line"/>
			<point x="153" y="0" type="line"/>
			<point x="167" y="74" type="line"/>
			<point x="150" y="74" type="line"/>
			<point x="3" y="59" type="line"/>
		</contour>
		<contour>
			<point x="66" y="0" type="line"/>
			<point x="245" y="0" type="line"/>
			<point x="262" y="103"/>
			<point x="281" y="207"/>
			<point x="301" y="311" type="curve" smooth="yes"/>
			<point x="366" y="652" type="line"/>
			<point x="186" y="652" type="line"/>
			<point x="169" y="549"/>
			<point x="151" y="445"/>
			<point x="131" y="342" type="curve" smooth="yes"/>
		</contour>
		<contour>
			<point x="103" y="593" type="line"/>
			<point x="246" y="578" type="line"/>
			<point x="287" y="578" type="line"/>
			<point x="438" y="593" type="line"/>
			<point x="450" y="652" type="line"/>
			<point x="115" y="652" type="line"/>
		</contour>
		<contour>
			<point x="153" y="0" type="line"/>
			<point x="496" y="0" type="line"/>
			<point x="543" y="199" type="line"/>
			<point x="459" y="199" type="line"/>
			<point x="383" y="0" type="line"/>
			<point x="476" y="60" type="line"/>
			<point x="165" y="60" type="line"/>
		</contour>
	</outline>
	<anchor name="aboveUC" x="284" y="682"/>
	<anchor name="belowLC" x="254" y="-22"/>
</glyph>
<glyph name="M" format="2">
	<unicode hex="004D"/>
	<advance width="899"/>
	<outline>
		<contour>
			<point x="-40" y="0" type="line"/>
			<point x="205" y="0" type="line"/>
			<point x="217" y="59" type="line"/>
			<point x="119" y="74" type="line"/>
			<point x="76" y="74" type="line"/>
			<point x="-28" y="59" type="line"/>
		</contour>
		<contour>
			<point x="55" y="0" type="line"/>
			<point x="113" y="0" type="line"/>
			<point x="183" y="311" type="line"/>
			<point x="260" y="652" type="line"/>
			<point x="205" y="652" type="line"/>
		</contour>
		<contour>
			<point x="311" y="0" type="line"/>
			<point x="370" y="0" type="line"/>
			<point x="681" y="541" type="line"/>
			<point x="697" y="569" type="line"/>
			<point x="732" y="569" type="line"/>
			<point x="732" y="652" type="line"/>
			<point x="675" y="652" type="line"/>
			<point x="426" y="216" type="line"/>
			<point x="415" y="198" type="line"/>
			<point x="444" y="198" type="line"/>
			<point x="357" y="652" type="line"/>
			<point x="129" y="652" type="line"/>
			<point x="117" y="593" type="line"/>
			<point x="192" y="585" type="line"/>
			<point x="202" y="537" type="line"/>
			<point x="206" y="515" type="line"/>
		</contour>
		<contour>
			<point x="487" y="0" type="line"/>
			<point x="812" y="0" type="line"/>
			<point x="824" y="59" type="line"/>
			<point x="678" y="74" type="line"/>
			<point x="646" y="74" type="line"/>
			<point x="499" y="59" type="line"/>
		</contour>
		<contour>
			<point x="565" y="0" type="line"/>
			<point x="744" y="0" type="line"/>
			<point x="757" y="103"/>
			<point x="772" y="207"/>
			<point x="788" y="311" type="curve" smooth="yes"/>
			<point x="841" y="652" type="line"/>
			<point x="710" y="652" type="line"/>
			<point x="649" y="554" type="line"/>
		</contour>
		<contour>
			<point x="725" y="578" type="line"/>
			<point x="764" y="578" type="line"/>
			<point x="905" y="593" type="line"/>
			<point x="917" y="652" type="line"/>
			<point x="739" y="652" type="line"/>
		</contour>
	</outline>
	<anchor name="aboveUC" x="507" y="672"/>
	<anchor name="belowLC" x="333" y="-20"/>
	<guideline name="311.0" x="0" y="311" angle="0" identifier="YEH77dQdfn"/>
	<guideline name="788.0" x="788" y="311" angle="78" identifier="RUyXdWmi19"/>
</glyph>
<glyph name="O" format="2">
	<unicode hex="004F"/>
	<advance width="672"/>
	<outline>
		<contour>
			<point x="276" y="-20" type="curve" smooth="yes"/>
			<point x="522" y="-20"/>
			<point x="662" y="177"/>
			<point x="662" y="399" type="curve" smooth="yes"/>
			<point x="662" y="570"/>
			<point x="557" y="672"/>
			<point x="404" y="672" type="curve" smooth="yes"/>
			<point x="157" y="672"/>
			<point x="17" y="468"/>
			<point x="17" y="257" type="curve" smooth="yes"/>
			<point x="17" y="65"/>
			<point x="130" y="-20"/>
		</contour>
		<contour>
			<point x="286" y="40" type="curve" smooth="yes"/>
			<point x="223" y="40"/>
			<point x="197" y="95"/>
			<point x="197" y="217" type="curve" smooth="yes"/>
			<point x="197" y="430"/>
			<point x="291" y="612"/>
			<point x="395" y="612" type="curve" smooth="yes"/>
			<point x="460" y="612"/>
			<point x="481" y="558"/>
			<point x="481" y="443" type="curve" smooth="yes"/>
			<point x="481" y="230"/>
			<point x="389" y="40"/>
		</contour>
	</outline>
	<anchor name="aboveUC" x="402" y="672"/>
	<anchor name="belowLC" x="278" y="-20"/>
	<anchor name="ogonek" x="392" y="0"/>
	<anchor name="hornLC" x="532" y="534"/>
</glyph>
<glyph name="R" format="2">
	<unicode hex="0052"/>
	<advance width="676"/>
	<outline>
		<contour>
			<point x="-9" y="0" type="line"/>
			<point x="316" y="0" type="line"/>
			<point x="328" y="59" type="line"/>
			<point x="185" y="74" type="line"/>
			<point x="150" y="74" type="line"/>
			<point x="3" y="59" type="line"/>
		</contour>
		<contour>
			<point x="66" y="0" type="line"/>
			<point x="245" y="0" type="line"/>
			<point x="262" y="103"/>
			<point x="281" y="207"/>
			<point x="301" y="311" type="curve" smooth="yes"/>
			<point x="366" y="652" type="line"/>
			<point x="186" y="652" type="line"/>
			<point x="169" y="549"/>
			<point x="151" y="445"/>
			<point x="131" y="342" type="curve" smooth="yes"/>
		</contour>
		<contour>
			<point x="103" y="593" type="line"/>
			<point x="246" y="578" type="line"/>
			<point x="264" y="578" type="line"/>
			<point x="278" y="652" type="line"/>
			<point x="115" y="652" type="line"/>
		</contour>
		<contour>
			<point x="552" y="-15" type="curve" smooth="yes"/>
			<point x="587" y="-15"/>
			<point x="603" y="-13"/>
			<point x="655" y="0" type="curve"/>
			<point x="665" y="59" type="line"/>
			<point x="507" y="77" type="line"/>
			<point x="610" y="13" type="line"/>
			<point x="582" y="149" type="line" smooth="yes"/>
			<point x="559" y="263"/>
			<point x="554" y="325"/>
			<point x="372" y="346" type="curve"/>
			<point x="370" y="325" type="line"/>
			<point x="577" y="334"/>
			<point x="644" y="427"/>
			<point x="644" y="502" type="curve" smooth="yes"/>
			<point x="644" y="590"/>
			<point x="582" y="652"/>
			<point x="447" y="652" type="curve" smooth="yes"/>
			<point x="279" y="652" type="line"/>
			<point x="267" y="590" type="line"/>
			<point x="381" y="590" type="line" smooth="yes"/>
			<point x="441" y="590"/>
			<point x="475" y="561"/>
			<point x="475" y="507" type="curve" smooth="yes"/>
			<point x="475" y="436"/>
			<point x="438" y="365"/>
			<point x="335" y="362" type="curve" smooth="yes"/>
			<point x="226" y="359" type="line"/>
			<point x="214" y="299" type="line"/>
			<point x="307" y="299" type="line" smooth="yes"/>
			<point x="365" y="299"/>
			<point x="384" y="267"/>
			<point x="393" y="203" type="curve" smooth="yes"/>
			<point x="407" y="102" type="line" smooth="yes"/>
			<point x="419" y="13"/>
			<point x="461" y="-15"/>
		</contour>
	</outline>
	<anchor name="aboveUC" x="381" y="682"/>
	<anchor name="belowLC" x="376" y="-22"/>
</glyph>
<glyph name="T" format="2">
	<unicode hex="0054"/>
	<advance width="623"/>
	<outline>
		<contour>
			<point x="70" y="463" type="line"/>
			<point x="161" y="463" type="line"/>
			<point x="220" y="652" type="line"/>
			<point x="129" y="593" type="line"/>
			<point x="643" y="593" type="line"/>
			<point x="577" y="652" type="line"/>
			<point x="564" y="463" type="line"/>
			<point x="653" y="463" type="line"/>
			<point x="688" y="652" type="line"/>
			<point x="109" y="652" type="line"/>
		</contour>
		<contour>
			<point x="102" y="0" type="line"/>
			<point x="447" y="0" type="line"/>
			<point x="459" y="59" type="line"/>
			<point x="312" y="74" type="line"/>
			<point x="261" y="74" type="line"/>
			<point x="114" y="59" type="line"/>
		</contour>
		<contour>
			<point x="187" y="0" type="line"/>
			<point x="366" y="0" type="line"/>
			<point x="383" y="103"/>
			<point x="402" y="207"/>
			<point x="422" y="311" type="curve" smooth="yes"/>
			<point x="487" y="652" type="line"/>
			<point x="307" y="652" type="line"/>
			<point x="290" y="549"/>
			<point x="272" y="445"/>
			<point x="252" y="342" type="curve" smooth="yes"/>
		</contour>
	</outline>
	<anchor name="aboveUC" x="398" y="682"/>
	<anchor name="belowLC" x="274" y="-22"/>
	<anchor name="baseLC" x="278" y="0"/>
</glyph>
<glyph name="U" format="2">
	<unicode hex="0055"/>
	<advance width="677"/>
	<outline>
		<contour>
			<point x="215" y="578" type="line"/>
			<point x="246" y="578" type="line"/>
			<point x="398" y="593" type="line"/>
			<point x="409" y="652" type="line"/>
			<point x="79" y="652" type="line"/>
			<point x="68" y="593" type="line"/>
		</contour>
		<contour>
			<point x="306" y="-20" type="curve" smooth="yes"/>
			<point x="453" y="-20"/>
			<point x="551" y="66"/>
			<point x="587" y="260" type="curve" smooth="yes"/>
			<point x="659" y="652" type="line"/>
			<point x="590" y="652" type="line"/>
			<point x="516" y="256" type="line" smooth="yes"/>
			<point x="491" y="126"/>
			<point x="438" y="72"/>
			<point x="370" y="72" type="curve" smooth="yes"/>
			<point x="290" y="72"/>
			<point x="257" y="116"/>
			<point x="257" y="189" type="curve" smooth="yes"/>
			<point x="257" y="215"/>
			<point x="260" y="246"/>
			<point x="267" y="281" type="curve" smooth="yes"/>
			<point x="339" y="652" type="line"/>
			<point x="143" y="652" type="line"/>
			<point x="128" y="553"/>
			<point x="108" y="453"/>
			<point x="91" y="356" type="curve" smooth="yes"/>
			<point x="75" y="265" type="line" smooth="yes"/>
			<point x="70" y="235"/>
			<point x="67" y="208"/>
			<point x="67" y="183" type="curve" smooth="yes"/>
			<point x="67" y="44"/>
			<point x="160" y="-20"/>
		</contour>
		<contour>
			<point x="597" y="586" type="line"/>
			<point x="628" y="586" type="line"/>
			<point x="725" y="593" type="line"/>
			<point x="736" y="652" type="line"/>
			<point x="508" y="652" type="line"/>
			<point x="497" y="593" type="line"/>
		</contour>
	</outline>
	<anchor name="aboveUC" x="456" y="672"/>
	<anchor name="belowLC" x="300" y="-20"/>
	<anchor name="ogonek" x="401" y="0"/>
	<anchor name="hornLC" x="620" y="566"/>
</glyph>
<glyph name="W" format="2">
	<unicode hex="0057"/>
	<advance width="895"/>
	<outline>
		<contour>
			<point x="176" y="578" type="line"/>
			<point x="213" y="578" type="line"/>
			<point x="348" y="593" type="line"/>
			<point x="360" y="652" type="line"/>
			<point x="51" y="652" type="line"/>
			<point x="39" y="593" type="line"/>
		</contour>
		<contour>
			<point x="148" y="0" type="line"/>
			<point x="264" y="0" type="line"/>
			<point x="479" y="469" type="line"/>
			<point x="497" y="508" type="line"/>
			<point x="451" y="508" type="line"/>
			<point x="510" y="0" type="line"/>
			<point x="626" y="0" type="line"/>
			<point x="923" y="652" type="line"/>
			<point x="857" y="652" type="line"/>
			<point x="650" y="174" type="line"/>
			<point x="638" y="147" type="line"/>
			<point x="665" y="147" type="line"/>
			<point x="610" y="652" type="line"/>
			<point x="501" y="652" type="line"/>
			<point x="288" y="176" type="line"/>
			<point x="275" y="147" type="line"/>
			<point x="304" y="147" type="line"/>
			<point x="269" y="652" type="line"/>
			<point x="82" y="652" type="line"/>
		</contour>
		<contour>
			<point x="515" y="578" type="line"/>
			<point x="579" y="578" type="line"/>
			<point x="700" y="593" type="line"/>
			<point x="712" y="652" type="line"/>
			<point x="414" y="652" type="line"/>
			<point x="402" y="593" type="line"/>
		</contour>
		<contour>
			<point x="850" y="578" type="line"/>
			<point x="878" y="578" type="line"/>
			<point x="963" y="593" type="line"/>
			<point x="975" y="652" type="line"/>
			<point x="766" y="652" type="line"/>
			<point x="754" y="593" type="line"/>
		</contour>
	</outline>
	<anchor name="aboveUC" x="545" y="672"/>
	<anchor name="belowLC" x="395" y="-20"/>
</glyph>
<glyph name="X" format="2">
	<unicode hex="0058"/>
	<advance width="644"/>
	<outline>
		<contour>
			<point x="-15" y="0" type="line"/>
			<point x="188" y="0" type="line"/>
			<point x="200" y="59" type="line"/>
			<point x="117" y="74" type="line"/>
			<point x="92" y="74" type="line"/>
			<point x="-3" y="59" type="line"/>
		</contour>
		<contour>
			<point x="9" y="0" type="line"/>
			<point x="89" y="0" type="line"/>
			<point x="355" y="324" type="line"/>
			<point x="307" y="344" type="line"/>
		</contour>
		<contour>
			<point x="85" y="593" type="line"/>
			<point x="229" y="578" type="line"/>
			<point x="262" y="578" type="line"/>
			<point x="407" y="593" type="line"/>
			<point x="419" y="652" type="line"/>
			<point x="97" y="652" type="line"/>
		</contour>
		<contour>
			<point x="377" y="0" type="line"/>
			<point x="570" y="0" type="line"/>
			<point x="319" y="652" type="line"/>
			<point x="126" y="652" type="line"/>
		</contour>
		<contour>
			<point x="272" y="0" type="line"/>
			<point x="599" y="0" type="line"/>
			<point x="611" y="59" type="line"/>
			<point x="470" y="74" type="line"/>
			<point x="437" y="74" type="line"/>
			<point x="284" y="59" type="line"/>
		</contour>
		<contour>
			<point x="360" y="355" type="line"/>
			<point x="406" y="330" type="line"/>
			<point x="679" y="652" type="line"/>
			<point x="598" y="652" type="line"/>
		</contour>
		<contour>
			<point x="487" y="593" type="line"/>
			<point x="569" y="578" type="line"/>
			<point x="594" y="578" type="line"/>
			<point x="694" y="593" type="line"/>
			<point x="706" y="652" type="line"/>
			<point x="499" y="652" type="line"/>
		</contour>
	</outline>
	<anchor name="aboveUC" x="442" y="682"/>
	<anchor name="belowLC" x="244" y="-22"/>
</glyph>
<glyph name="Y" format="2">
	<unicode hex="0059"/>
	<advance width="583"/>
	<outline>
		<contour>
			<point x="60" y="593" type="line"/>
			<point x="212" y="578" type="line"/>
			<point x="263" y="578" type="line"/>
			<point x="386" y="593" type="line"/>
			<point x="398" y="652" type="line"/>
			<point x="72" y="652" type="line"/>
		</contour>
		<contour>
			<point x="92" y="0" type="line"/>
			<point x="437" y="0" type="line"/>
			<point x="449" y="59" type="line"/>
			<point x="302" y="74" type="line"/>
			<point x="251" y="74" type="line"/>
			<point x="104" y="59" type="line"/>
		</contour>
		<contour>
			<point x="240" y="211" type="line"/>
			<point x="360" y="211" type="line"/>
			<point x="654" y="652" type="line"/>
			<point x="583" y="652" type="line"/>
			<point x="367" y="316" type="line"/>
			<point x="392" y="302" type="line"/>
			<point x="295" y="652" type="line"/>
			<point x="98" y="652" type="line"/>
		</contour>
		<contour>
			<point x="176" y="0" type="line"/>
			<point x="355" y="0" type="line"/>
			<point x="373" y="104"/>
			<point x="392" y="209"/>
			<point x="412" y="313" type="curve"/>
			<point x="236" y="313" type="line"/>
		</contour>
		<contour>
			<point x="476" y="593" type="line"/>
			<point x="564" y="578" type="line"/>
			<point x="588" y="578" type="line"/>
			<point x="672" y="593" type="line"/>
			<point x="684" y="652" type="line"/>
			<point x="488" y="652" type="line"/>
		</contour>
	</outline>
	<anchor name="aboveUC" x="437" y="682"/>
	<anchor name="belowLC" x="259" y="-22"/>
</glyph>
<glyph name="Z" format="2">
	<unicode hex="005A"/>
	<advance width="547"/>
	<outline>
		<contour>
			<point x="-9" y="0" type="line"/>
			<point x="191" y="0" type="line"/>
			<point x="191" y="40" type="line"/>
			<point x="592" y="602" type="line"/>
			<point x="602" y="652" type="line"/>
			<point x="402" y="652" type="line"/>
			<point x="402" y="612" type="line"/>
			<point x="1" y="50" type="line"/>
		</contour>
		<contour>
			<point x="64" y="463" type="line"/>
			<point x="150" y="463" type="line"/>
			<point x="224" y="652" type="line"/>
			<point x="130" y="592" type="line"/>
			<point x="506" y="592" type="line"/>
			<point x="518" y="652" type="line"/>
			<point x="108" y="652" type="line"/>
		</contour>
		<contour>
			<point x="73" y="0" type="line"/>
			<point x="496" y="0" type="line"/>
			<point x="540" y="189" type="line"/>
			<point x="452" y="189" type="line"/>
			<point x="379" y="0" type="line"/>
			<point x="475" y="60" type="line"/>
			<point x="85" y="60" type="line"/>
		</contour>
	</outline>
	<anchor name="aboveUC" x="363" y="672"/>
	<anchor name="belowLC" x="245" y="-20"/>
</glyph>
<glyph name="bracketleft" format="2">
	<unicode hex="005B"/>
	<advance width="361"/>
	<outline>
		<contour>
			<point x="0" y="-159" type="line"/>
			<point x="135" y="-159" type="line"/>
			<point x="153" y="-54"/>
			<point x="175" y="53"/>
			<point x="197" y="158" type="curve" smooth="yes"/>
			<point x="309" y="715" type="line"/>
			<point x="174" y="715" type="line"/>
			<point x="156" y="610"/>
			<point x="134" y="503"/>
			<point x="112" y="398" type="curve" smooth="yes"/>
		</contour>
		<contour>
			<point x="66" y="-159" type="line"/>
			<point x="234" y="-159" type="line"/>
			<point x="246" y="-100" type="line"/>
			<point x="101" y="-85" type="line"/>
			<point x="81" y="-85" type="line"/>
		</contour>
		<contour>
			<point x="229" y="641" type="line"/>
			<point x="249" y="641" type="line"/>
			<point x="400" y="656" type="line"/>
			<point x="412" y="715" type="line"/>
			<point x="244" y="715" type="line"/>
		</contour>
	</outline>
</glyph>
<glyph name="asciicircum" format="2">
	<unicode hex="005E"/>
	<advance width="550"/>
	<outline>
		<contour>
			<point x="26" y="228" type="line"/>
			<point x="108" y="171" type="line"/>
			<point x="291" y="447" type="line"/>
			<point x="229" y="447" type="line"/>
			<point x="412" y="171" type="line"/>
			<point x="496" y="228" type="line"/>
			<point x="306" y="514" type="line"/>
			<point x="215" y="514" type="line"/>
		</contour>
	</outline>
</glyph>
<glyph name="underscore" format="2">
	<unicode hex="005F"/>
	<advance width="558"/>
	<outline>
		<contour>
			<point x="-76" y="-63" type="line"/>
			<point x="497" y="-63" type="line"/>
			<point x="497" y="37" type="line"/>
			<point x="-76" y="37" type="line"/>
		</contour>
	</outline>
</glyph>
<glyph name="a" format="2">
	<unicode hex="0061"/>
	<advance width="588"/>
	<outline>
		<contour>
			<point x="135" y="-16" type="curve" smooth="yes"/>
			<point x="202" y="-16"/>
			<point x="278" y="39"/>
			<point x="334" y="110" type="curve"/>
			<point x="338" y="110" type="line"/>
			<point x="329" y="146" type="line"/>
			<point x="309" y="126"/>
			<point x="278" y="100"/>
			<point x="250" y="100" type="curve" smooth="yes"/>
			<point x="217" y="100"/>
			<point x="197" y="124"/>
			<point x="197" y="188" type="curve" smooth="yes"/>
			<point x="197" y="252"/>
			<point x="227" y="362"/>
			<point x="273" y="402" type="curve" smooth="yes"/>
			<point x="293" y="420"/>
			<point x="309" y="426"/>
			<point x="327" y="426" type="curve" smooth="yes"/>
			<point x="351" y="426"/>
			<point x="375" y="418"/>
			<point x="398" y="403" type="curve"/>
			<point x="478" y="462" type="line"/>
			<point x="449" y="490"/>
			<point x="413" y="503"/>
			<point x="375" y="503" type="curve" smooth="yes"/>
			<point x="220" y="503"/>
			<point x="26" y="312"/>
			<point x="26" y="132" type="curve" smooth="yes"/>
			<point x="26" y="21"/>
			<point x="78" y="-16"/>
		</contour>
		<contour>
			<point x="406" y="-16" type="curve" smooth="yes"/>
			<point x="484" y="-16"/>
			<point x="553" y="57"/>
			<point x="587" y="122" type="curve"/>
			<point x="554" y="143" type="line"/>
			<point x="525" y="105"/>
			<point x="509" y="84"/>
			<point x="493" y="84" type="curve" smooth="yes"/>
			<point x="482" y="84"/>
			<point x="477" y="91"/>
			<point x="477" y="104" type="curve" smooth="yes"/>
			<point x="477" y="114"/>
			<point x="480" y="125"/>
			<point x="484" y="141" type="curve" smooth="yes"/>
			<point x="564" y="489" type="line"/>
			<point x="548" y="503" type="line"/>
			<point x="388" y="437" type="line"/>
			<point x="380" y="434" type="line"/>
			<point x="323" y="174" type="line"/>
			<point x="321" y="165" type="line" smooth="yes"/>
			<point x="315" y="137"/>
			<point x="311" y="112"/>
			<point x="311" y="88" type="curve" smooth="yes"/>
			<point x="311" y="18"/>
			<point x="348" y="-16"/>
		</contour>
	</outline>
	<anchor name="aboveLC" x="372" y="507"/>
	<anchor name="belowLC" x="273" y="-20"/>
	<anchor name="ogonek" x="456" y="0"/>
</glyph>
<glyph name="c" format="2">
	<unicode hex="0063"/>
	<advance width="493"/>
	<outline>
		<contour>
			<point x="210" y="-16" type="curve" smooth="yes"/>
			<point x="328" y="-16"/>
			<point x="418" y="69"/>
			<point x="461" y="153" type="curve"/>
			<point x="432" y="174" type="line"/>
			<point x="389" y="123"/>
			<point x="339" y="101"/>
			<point x="302" y="101" type="curve" smooth="yes"/>
			<point x="238" y="101"/>
			<point x="198" y="135"/>
			<point x="198" y="212" type="curve" smooth="yes"/>
			<point x="198" y="302"/>
			<point x="233" y="415"/>
			<point x="342" y="469" type="curve"/>
			<point x="360" y="469" type="line"/>
			<point x="360" y="482" type="line"/>
			<point x="283" y="482" type="line"/>
			<point x="333" y="385" type="line" smooth="yes"/>
			<point x="349" y="354"/>
			<point x="368" y="325"/>
			<point x="406" y="325" type="curve"/>
			<point x="452" y="325"/>
			<point x="487" y="360"/>
			<point x="488" y="402" type="curve"/>
			<point x="469" y="465"/>
			<point x="412" y="503"/>
			<point x="335" y="503" type="curve" smooth="yes"/>
			<point x="153" y="503"/>
			<point x="27" y="347"/>
			<point x="27" y="175" type="curve" smooth="yes"/>
			<point x="27" y="60"/>
			<point x="102" y="-16"/>
		</contour>
	</outline>
	<anchor name="aboveLC" x="332" y="507"/>
	<anchor name="belowLC" x="215" y="-20"/>
	<anchor name="baseLC" x="211" y="0"/>
</glyph>
<glyph name="f" format="2">
	<unicode hex="0066"/>
	<advance width="362"/>
	<outline>
		<contour>
			<point x="393" y="731" type="curve" smooth="yes"/>
			<point x="249" y="731"/>
			<point x="155" y="617"/>
			<point x="132" y="440" type="curve" smooth="yes"/>
			<point x="115" y="311"/>
			<point x="99" y="176"/>
			<point x="81" y="52" type="curve" smooth="yes"/>
			<point x="72" y="-6"/>
			<point x="63" y="-63"/>
			<point x="48" y="-115" type="curve" smooth="yes"/>
			<point x="38" y="-151"/>
			<point x="26" y="-174"/>
			<point x="12" y="-197" type="curve"/>
			<point x="29" y="-195" type="line"/>
			<point x="-5" y="-141" type="line" smooth="yes"/>
			<point x="-28" y="-104"/>
			<point x="-56" y="-81"/>
			<point x="-92" y="-81" type="curve" smooth="yes"/>
			<point x="-133" y="-81"/>
			<point x="-153" y="-110"/>
			<point x="-158" y="-149" type="curve"/>
			<point x="-129" y="-213"/>
			<point x="-73" y="-232"/>
			<point x="-8" y="-232" type="curve" smooth="yes"/>
			<point x="42" y="-232"/>
			<point x="108" y="-204"/>
			<point x="149" y="-158" type="curve" smooth="yes"/>
			<point x="194" y="-108"/>
			<point x="224" y="-41"/>
			<point x="241" y="51" type="curve" smooth="yes"/>
			<point x="266" y="191"/>
			<point x="285" y="350"/>
			<point x="308" y="513" type="curve" smooth="yes"/>
			<point x="325" y="636"/>
			<point x="336" y="689"/>
			<point x="389" y="713" type="curve"/>
			<point x="343" y="699" type="line"/>
			<point x="378" y="635" type="line" smooth="yes"/>
			<point x="395" y="605"/>
			<point x="421" y="583"/>
			<point x="453" y="583" type="curve" smooth="yes"/>
			<point x="488" y="583"/>
			<point x="528" y="614"/>
			<point x="531" y="653" type="curve"/>
			<point x="518" y="701"/>
			<point x="456" y="731"/>
		</contour>
		<contour>
			<point x="65" y="427" type="line"/>
			<point x="175" y="427" type="line"/>
			<point x="406" y="421" type="line"/>
			<point x="419" y="487" type="line"/>
			<point x="183" y="487" type="line"/>
			<point x="183" y="493" type="line"/>
			<point x="75" y="478" type="line"/>
		</contour>
	</outline>
	<anchor name="aboveLC" x="377" y="740"/>
	<anchor name="belowLC" x="4" y="-237"/>
</glyph>
<glyph name="i" format="2">
	<unicode hex="0069"/>
	<advance width="325"/>
	<outline>
		<contour>
			<point x="59" y="56" type="curve" smooth="yes"/>
			<point x="59" y="10"/>
			<point x="91" y="-16"/>
			<point x="145" y="-16" type="curve" smooth="yes"/>
			<point x="237" y="-16"/>
			<point x="305" y="51"/>
			<point x="343" y="121" type="curve"/>
			<point x="310" y="142" type="line"/>
			<point x="280" y="102"/>
			<point x="262" y="84"/>
			<point x="248" y="84" type="curve" smooth="yes"/>
			<point x="239" y="84"/>
			<point x="233" y="91"/>
			<point x="233" y="104" type="curve" smooth="yes"/>
			<point x="233" y="114"/>
			<point x="235" y="125"/>
			<point x="239" y="141" type="curve" smooth="yes"/>
			<point x="316" y="490" type="line"/>
			<point x="299" y="505" type="line"/>
			<point x="71" y="446" type="line"/>
			<point x="64" y="405" type="line"/>
			<point x="151" y="384" type="line"/>
			<point x="127" y="417" type="line"/>
			<point x="75" y="165" type="line" smooth="yes"/>
			<point x="70" y="139"/>
			<point x="59" y="88"/>
		</contour>
		<contour>
			<point x="254" y="581" type="curve" smooth="yes"/>
			<point x="304" y="581"/>
			<point x="350" y="620"/>
			<point x="350" y="676" type="curve" smooth="yes"/>
			<point x="350" y="719"/>
			<point x="316" y="751"/>
			<point x="270" y="751" type="curve" smooth="yes"/>
			<point x="220" y="751"/>
			<point x="173" y="713"/>
			<point x="173" y="657" type="curve" smooth="yes"/>
			<point x="173" y="610"/>
			<point x="213" y="581"/>
		</contour>
	</outline>
	<anchor name="aboveLC" x="272" y="738"/>
	<anchor name="belowLC" x="153" y="-22"/>
	<anchor name="ogonek" x="202" y="0"/>
</glyph>
<glyph name="j" format="2">
	<unicode hex="006A"/>
	<advance width="304"/>
	<outline>
		<contour>
			<point x="-77" y="-232" type="line"/>
			<point x="17" y="-228"/>
			<point x="86" y="-190"/>
			<point x="128" y="-136" type="curve" smooth="yes"/>
			<point x="163" y="-92"/>
			<point x="186" y="-29"/>
			<point x="208" y="79" type="curve" smooth="yes"/>
			<point x="290" y="488" type="line"/>
			<point x="271" y="503" type="line"/>
			<point x="50" y="446" type="line"/>
			<point x="43" y="405" type="line"/>
			<point x="172" y="380" type="line"/>
			<point x="105" y="415" type="line"/>
			<point x="38" y="52" type="line" smooth="yes"/>
			<point x="19" y="-49"/>
			<point x="8" y="-109"/>
			<point x="-11" y="-139" type="curve" smooth="yes"/>
			<point x="-32" y="-172"/>
			<point x="-54" y="-186"/>
			<point x="-83" y="-197" type="curve"/>
		</contour>
		<contour>
			<point x="233" y="581" type="curve" smooth="yes"/>
			<point x="283" y="581"/>
			<point x="329" y="620"/>
			<point x="329" y="676" type="curve" smooth="yes"/>
			<point x="329" y="719"/>
			<point x="295" y="751"/>
			<point x="249" y="751" type="curve" smooth="yes"/>
			<point x="199" y="751"/>
			<point x="152" y="713"/>
			<point x="152" y="657" type="curve" smooth="yes"/>
			<point x="152" y="610"/>
			<point x="192" y="581"/>
		</contour>
	</outline>
	<anchor name="aboveLC" x="254" y="751"/>
	<anchor name="belowLC" x="28" y="-242"/>
</glyph>
<glyph name="k" format="2">
	<unicode hex="006B"/>
	<advance width="550"/>
	<outline>
		<contour>
			<point x="8" y="5" type="line"/>
			<point x="24" y="-8" type="line"/>
			<point x="179" y="0" type="line"/>
			<point x="191" y="73"/>
			<point x="202" y="125"/>
			<point x="222" y="217" type="curve" smooth="yes"/>
			<point x="327" y="697" type="line"/>
			<point x="311" y="711" type="line"/>
			<point x="84" y="652" type="line"/>
			<point x="78" y="611" type="line"/>
			<point x="208" y="586" type="line"/>
			<point x="136" y="621" type="line"/>
			<point x="126" y="549"/>
			<point x="109" y="476"/>
			<point x="94" y="404" type="curve" smooth="yes"/>
		</contour>
		<contour>
			<point x="529" y="0" type="curve"/>
			<point x="535" y="36" type="line"/>
			<point x="515" y="40" type="line" smooth="yes"/>
			<point x="493" y="44"/>
			<point x="479" y="59"/>
			<point x="466" y="91" type="curve" smooth="yes"/>
			<point x="435" y="167" type="line" smooth="yes"/>
			<point x="409" y="231"/>
			<point x="358" y="265"/>
			<point x="290" y="269" type="curve" smooth="yes"/>
			<point x="224" y="273" type="line"/>
			<point x="220" y="265" type="line"/>
			<point x="438" y="319" type="line" smooth="yes"/>
			<point x="515" y="338"/>
			<point x="549" y="364"/>
			<point x="549" y="412" type="curve" smooth="yes"/>
			<point x="549" y="456"/>
			<point x="517" y="489"/>
			<point x="470" y="497" type="curve"/>
			<point x="205" y="267" type="line"/>
			<point x="203" y="258" type="line"/>
			<point x="210" y="255" type="line" smooth="yes"/>
			<point x="234" y="245"/>
			<point x="238" y="233"/>
			<point x="254" y="181" type="curve" smooth="yes"/>
			<point x="283" y="89" type="line" smooth="yes"/>
			<point x="308" y="8"/>
			<point x="355" y="-16"/>
			<point x="425" y="-16" type="curve" smooth="yes"/>
			<point x="465" y="-16"/>
			<point x="501" y="-10"/>
		</contour>
	</outline>
	<anchor name="aboveLC" x="240" y="721"/>
	<anchor name="belowLC" x="249" y="-20"/>
</glyph>
<glyph name="l" format="2">
	<unicode hex="006C"/>
	<advance width="318"/>
	<outline>
		<contour>
			<point x="117" y="-16" type="curve" smooth="yes"/>
			<point x="209" y="-16"/>
			<point x="277" y="51"/>
			<point x="315" y="121" type="curve"/>
			<point x="282" y="142" type="line"/>
			<point x="252" y="102"/>
			<point x="234" y="84"/>
			<point x="220" y="84" type="curve" smooth="yes"/>
			<point x="211" y="84"/>
			<point x="205" y="91"/>
			<point x="205" y="104" type="curve" smooth="yes"/>
			<point x="205" y="114"/>
			<point x="207" y="125"/>
			<point x="211" y="141" type="curve" smooth="yes"/>
			<point x="332" y="697" type="line"/>
			<point x="315" y="711" type="line"/>
			<point x="89" y="652" type="line"/>
			<point x="83" y="611" type="line"/>
			<point x="211" y="586" type="line"/>
			<point x="142" y="621" type="line"/>
			<point x="130" y="549"/>
			<point x="114" y="475"/>
			<point x="99" y="404" type="curve" smooth="yes"/>
			<point x="55" y="199" type="line" smooth="yes"/>
			<point x="40" y="130"/>
			<point x="32" y="88"/>
			<point x="32" y="56" type="curve" smooth="yes"/>
			<point x="32" y="10"/>
			<point x="63" y="-16"/>
		</contour>
	</outline>
	<anchor name="aboveLC" x="243" y="721"/>
	<anchor name="belowLC" x="113" y="-20"/>
</glyph>
<glyph name="m" format="2">
	<unicode hex="006D"/>
	<advance width="880"/>
	<outline>
		<contour>
			<point x="36" y="-8" type="line"/>
			<point x="191" y="0" type="line"/>
			<point x="205" y="73"/>
			<point x="218" y="144"/>
			<point x="234" y="216" type="curve" smooth="yes"/>
			<point x="266" y="356" type="line"/>
			<point x="263" y="355" type="line"/>
			<point x="289" y="487" type="line"/>
			<point x="268" y="505" type="line"/>
			<point x="50" y="446" type="line"/>
			<point x="43" y="405" type="line"/>
			<point x="172" y="380" type="line"/>
			<point x="105" y="415" type="line"/>
			<point x="20" y="5" type="line"/>
		</contour>
		<contour>
			<point x="318" y="-8" type="line"/>
			<point x="473" y="0" type="line"/>
			<point x="487" y="73"/>
			<point x="501" y="144"/>
			<point x="516" y="216" type="curve" smooth="yes"/>
			<point x="545" y="356" type="line"/>
			<point x="542" y="356" type="line"/>
			<point x="547" y="378"/>
			<point x="551" y="389"/>
			<point x="551" y="414" type="curve" smooth="yes"/>
			<point x="551" y="474"/>
			<point x="514" y="503"/>
			<point x="469" y="503" type="curve" smooth="yes"/>
			<point x="398" y="503"/>
			<point x="320" y="457"/>
			<point x="241" y="372" type="curve"/>
			<point x="234" y="372" type="line"/>
			<point x="243" y="325" type="line"/>
			<point x="284" y="369"/>
			<point x="322" y="387"/>
			<point x="352" y="387" type="curve" smooth="yes"/>
			<point x="363" y="387"/>
			<point x="374" y="378"/>
			<point x="374" y="363" type="curve" smooth="yes"/>
			<point x="374" y="347"/>
			<point x="368" y="322"/>
			<point x="362" y="292" type="curve" smooth="yes"/>
			<point x="302" y="5" type="line"/>
		</contour>
		<contour>
			<point x="675" y="-16" type="curve" smooth="yes"/>
			<point x="767" y="-16"/>
			<point x="838" y="51"/>
			<point x="877" y="121" type="curve"/>
			<point x="844" y="142" type="line"/>
			<point x="814" y="102"/>
			<point x="794" y="84"/>
			<point x="780" y="84" type="curve" smooth="yes"/>
			<point x="771" y="84"/>
			<point x="766" y="91"/>
			<point x="766" y="104" type="curve" smooth="yes"/>
			<point x="766" y="114"/>
			<point x="769" y="125"/>
			<point x="773" y="141" type="curve" smooth="yes"/>
			<point x="821" y="331" type="line" smooth="yes"/>
			<point x="829" y="362"/>
			<point x="832" y="389"/>
			<point x="832" y="414" type="curve" smooth="yes"/>
			<point x="832" y="474"/>
			<point x="795" y="503"/>
			<point x="751" y="503" type="curve" smooth="yes"/>
			<point x="679" y="503"/>
			<point x="601" y="457"/>
			<point x="522" y="370" type="curve"/>
			<point x="515" y="370" type="line"/>
			<point x="524" y="323" type="line"/>
			<point x="565" y="368"/>
			<point x="603" y="387"/>
			<point x="632" y="387" type="curve" smooth="yes"/>
			<point x="645" y="387"/>
			<point x="655" y="378"/>
			<point x="655" y="362" type="curve" smooth="yes"/>
			<point x="655" y="347"/>
			<point x="651" y="322"/>
			<point x="643" y="292" type="curve" smooth="yes"/>
			<point x="608" y="153" type="line" smooth="yes"/>
			<point x="601" y="127"/>
			<point x="591" y="88"/>
			<point x="591" y="56" type="curve" smooth="yes"/>
			<point x="591" y="10"/>
			<point x="621" y="-16"/>
		</contour>
	</outline>
	<anchor name="aboveLC" x="490" y="507"/>
	<anchor name="belowLC" x="397" y="-20"/>
</glyph>
<glyph name="n" format="2">
	<unicode hex="006E"/>
	<advance width="603"/>
	<outline>
		<contour>
			<point x="36" y="-8" type="line"/>
			<point x="191" y="0" type="line"/>
			<point x="205" y="73"/>
			<point x="218" y="144"/>
			<point x="234" y="216" type="curve" smooth="yes"/>
			<point x="263" y="351" type="line"/>
			<point x="266" y="364" type="line"/>
			<point x="289" y="487" type="line"/>
			<point x="268" y="505" type="line"/>
			<point x="50" y="446" type="line"/>
			<point x="43" y="405" type="line"/>
			<point x="172" y="380" type="line"/>
			<point x="105" y="415" type="line"/>
			<point x="20" y="5" type="line"/>
		</contour>
		<contour>
			<point x="398" y="-16" type="curve" smooth="yes"/>
			<point x="490" y="-16"/>
			<point x="561" y="51"/>
			<point x="600" y="121" type="curve"/>
			<point x="567" y="142" type="line"/>
			<point x="537" y="102"/>
			<point x="517" y="84"/>
			<point x="503" y="84" type="curve" smooth="yes"/>
			<point x="494" y="84"/>
			<point x="489" y="91"/>
			<point x="489" y="104" type="curve" smooth="yes"/>
			<point x="489" y="114"/>
			<point x="492" y="125"/>
			<point x="496" y="141" type="curve" smooth="yes"/>
			<point x="544" y="331" type="line" smooth="yes"/>
			<point x="552" y="362"/>
			<point x="555" y="389"/>
			<point x="555" y="414" type="curve" smooth="yes"/>
			<point x="555" y="474"/>
			<point x="518" y="503"/>
			<point x="474" y="503" type="curve" smooth="yes"/>
			<point x="402" y="503"/>
			<point x="324" y="457"/>
			<point x="245" y="370" type="curve"/>
			<point x="239" y="370" type="line"/>
			<point x="247" y="323" type="line"/>
			<point x="288" y="368"/>
			<point x="326" y="387"/>
			<point x="355" y="387" type="curve" smooth="yes"/>
			<point x="368" y="387"/>
			<point x="378" y="378"/>
			<point x="378" y="362" type="curve" smooth="yes"/>
			<point x="378" y="347"/>
			<point x="374" y="322"/>
			<point x="366" y="292" type="curve" smooth="yes"/>
			<point x="331" y="153" type="line" smooth="yes"/>
			<point x="324" y="127"/>
			<point x="314" y="88"/>
			<point x="314" y="56" type="curve" smooth="yes"/>
			<point x="314" y="10"/>
			<point x="344" y="-16"/>
		</contour>
	</outline>
	<anchor name="aboveLC" x="345" y="507"/>
	<anchor name="belowLC" x="260" y="-20"/>
</glyph>
<glyph name="o" format="2">
	<unicode hex="006F"/>
	<advance width="551"/>
	<outline>
		<contour>
			<point x="228" y="-16" type="curve" smooth="yes"/>
			<point x="404" y="-16"/>
			<point x="531" y="142"/>
			<point x="531" y="306" type="curve" smooth="yes"/>
			<point x="531" y="445"/>
			<point x="443" y="503"/>
			<point x="328" y="503" type="curve" smooth="yes"/>
			<point x="151" y="503"/>
			<point x="23" y="343"/>
			<point x="23" y="181" type="curve" smooth="yes"/>
			<point x="23" y="43"/>
			<point x="113" y="-16"/>
		</contour>
		<contour>
			<point x="240" y="44" type="curve" smooth="yes"/>
			<point x="214" y="44"/>
			<point x="193" y="62"/>
			<point x="193" y="139" type="curve" smooth="yes"/>
			<point x="193" y="269"/>
			<point x="241" y="443"/>
			<point x="314" y="443" type="curve" smooth="yes"/>
			<point x="342" y="443"/>
			<point x="361" y="424"/>
			<point x="361" y="354" type="curve" smooth="yes"/>
			<point x="361" y="212"/>
			<point x="311" y="44"/>
		</contour>
	</outline>
	<anchor name="aboveLC" x="328" y="507"/>
	<anchor name="belowLC" x="228" y="-20"/>
	<anchor name="hornLC" x="438" y="386"/>
	<anchor name="ogonek" x="309" y="0"/>
</glyph>
<glyph name="p" format="2">
	<unicode hex="0070"/>
	<advance width="568"/>
	<outline>
		<contour>
			<point x="-73" y="-222" type="line"/>
			<point x="213" y="-222" type="line"/>
			<point x="221" y="-181" type="line"/>
			<point x="97" y="-161" type="line"/>
			<point x="47" y="-161" type="line"/>
			<point x="-65" y="-181" type="line"/>
		</contour>
		<contour>
			<point x="-25" y="-222" type="line"/>
			<point x="146" y="-222" type="line"/>
			<point x="159" y="-149"/>
			<point x="173" y="-78"/>
			<point x="190" y="10" type="curve"/>
			<point x="198" y="28" type="line"/>
			<point x="265" y="366" type="line"/>
			<point x="266" y="372" type="line"/>
			<point x="289" y="487" type="line"/>
			<point x="268" y="505" type="line"/>
			<point x="50" y="446" type="line"/>
			<point x="44" y="405" type="line"/>
			<point x="173" y="380" type="line"/>
			<point x="106" y="415" type="line"/>
		</contour>
		<contour>
			<point x="225" y="-16" type="curve" smooth="yes"/>
			<point x="381" y="-16"/>
			<point x="554" y="166"/>
			<point x="554" y="360" type="curve" smooth="yes"/>
			<point x="554" y="470"/>
			<point x="506" y="503"/>
			<point x="445" y="503" type="curve" smooth="yes"/>
			<point x="378" y="503"/>
			<point x="299" y="451"/>
			<point x="246" y="377" type="curve"/>
			<point x="242" y="377" type="line"/>
			<point x="251" y="347" type="line"/>
			<point x="271" y="365"/>
			<point x="301" y="387"/>
			<point x="329" y="387" type="curve" smooth="yes"/>
			<point x="368" y="387"/>
			<point x="385" y="366"/>
			<point x="385" y="309" type="curve" smooth="yes"/>
			<point x="385" y="252"/>
			<point x="364" y="171"/>
			<point x="340" y="128" type="curve" smooth="yes"/>
			<point x="311" y="76"/>
			<point x="286" y="60"/>
			<point x="254" y="60" type="curve" smooth="yes"/>
			<point x="213" y="60"/>
			<point x="186" y="96"/>
			<point x="162" y="142" type="curve"/>
			<point x="122" y="25" type="line"/>
			<point x="151" y="-3"/>
			<point x="187" y="-16"/>
		</contour>
	</outline>
	<anchor name="aboveLC" x="330" y="507"/>
	<anchor name="belowLC" x="61" y="-242"/>
</glyph>
<glyph name="s" format="2">
	<unicode hex="0073"/>
	<advance width="445"/>
	<outline>
		<contour>
			<point x="169" y="-16" type="curve" smooth="yes"/>
			<point x="325" y="-16"/>
			<point x="396" y="59"/>
			<point x="396" y="139" type="curve" smooth="yes"/>
			<point x="396" y="197"/>
			<point x="369" y="234"/>
			<point x="308" y="283" type="curve" smooth="yes"/>
			<point x="257" y="324"/>
			<point x="225" y="355"/>
			<point x="225" y="395" type="curve" smooth="yes"/>
			<point x="225" y="426"/>
			<point x="244" y="461"/>
			<point x="290" y="461" type="curve" smooth="yes"/>
			<point x="306" y="461"/>
			<point x="322" y="461"/>
			<point x="338" y="461" type="curve"/>
			<point x="264" y="477" type="line"/>
			<point x="289" y="410" type="line" smooth="yes"/>
			<point x="307" y="362"/>
			<point x="339" y="343"/>
			<point x="367" y="343" type="curve" smooth="yes"/>
			<point x="406" y="343"/>
			<point x="427" y="367"/>
			<point x="429" y="399" type="curve"/>
			<point x="417" y="458"/>
			<point x="375" y="503"/>
			<point x="271" y="503" type="curve" smooth="yes"/>
			<point x="140" y="503"/>
			<point x="71" y="425"/>
			<point x="71" y="337" type="curve" smooth="yes"/>
			<point x="71" y="270"/>
			<point x="106" y="231"/>
			<point x="164" y="182" type="curve" smooth="yes"/>
			<point x="211" y="143"/>
			<point x="235" y="117"/>
			<point x="235" y="87" type="curve" smooth="yes"/>
			<point x="235" y="52"/>
			<point x="212" y="26"/>
			<point x="169" y="26" type="curve" smooth="yes"/>
			<point x="146" y="26"/>
			<point x="123" y="26"/>
			<point x="100" y="26" type="curve"/>
			<point x="171" y="10" type="line"/>
			<point x="155" y="84" type="line" smooth="yes"/>
			<point x="144" y="137"/>
			<point x="112" y="155"/>
			<point x="75" y="155" type="curve" smooth="yes"/>
			<point x="35" y="155"/>
			<point x="15" y="131"/>
			<point x="9" y="93" type="curve"/>
			<point x="21" y="21"/>
			<point x="80" y="-16"/>
		</contour>
	</outline>
	<anchor name="aboveLC" x="277" y="507"/>
	<anchor name="belowLC" x="170" y="-20"/>
	<anchor name="baseLC" x="173" y="0"/>
</glyph>
<glyph name="t" format="2">
	<unicode hex="0074"/>
	<advance width="352"/>
	<outline>
		<contour>
			<point x="45" y="427" type="line"/>
			<point x="158" y="427" type="line"/>
			<point x="164" y="427" type="line"/>
			<point x="369" y="421" type="line"/>
			<point x="382" y="487" type="line"/>
			<point x="166" y="487" type="line"/>
			<point x="166" y="493" type="line"/>
			<point x="54" y="478" type="line"/>
		</contour>
		<contour>
			<point x="123" y="-16" type="curve" smooth="yes"/>
			<point x="215" y="-16"/>
			<point x="283" y="51"/>
			<point x="321" y="121" type="curve"/>
			<point x="288" y="142" type="line"/>
			<point x="258" y="102"/>
			<point x="240" y="84"/>
			<point x="226" y="84" type="curve" smooth="yes"/>
			<point x="217" y="84"/>
			<point x="211" y="91"/>
			<point x="211" y="104" type="curve" smooth="yes"/>
			<point x="211" y="114"/>
			<point x="213" y="125"/>
			<point x="216" y="141" type="curve" smooth="yes"/>
			<point x="315" y="625" type="line"/>
			<point x="207" y="625" type="line"/>
			<point x="115" y="455" type="line"/>
			<point x="53" y="170" type="line" smooth="yes"/>
			<point x="46" y="139"/>
			<point x="37" y="94"/>
			<point x="37" y="59" type="curve" smooth="yes"/>
			<point x="37" y="10"/>
			<point x="69" y="-16"/>
		</contour>
	</outline>
	<anchor name="aboveLC" x="249" y="605"/>
	<anchor name="belowLC" x="135" y="-20"/>
	<anchor name="baseLC" x="127" y="0"/>
</glyph>
<glyph name="u" format="2">
	<unicode hex="0075"/>
	<advance width="598"/>
	<outline>
		<contour>
			<point x="152" y="-16" type="curve" smooth="yes"/>
			<point x="224" y="-16"/>
			<point x="307" y="32"/>
			<point x="374" y="124" type="curve"/>
			<point x="366" y="158" type="line"/>
			<point x="329" y="116"/>
			<point x="296" y="100"/>
			<point x="268" y="100" type="curve" smooth="yes"/>
			<point x="250" y="100"/>
			<point x="234" y="109"/>
			<point x="234" y="139" type="curve" smooth="yes"/>
			<point x="234" y="158"/>
			<point x="239" y="176"/>
			<point x="244" y="196" type="curve" smooth="yes"/>
			<point x="314" y="487" type="line"/>
			<point x="295" y="505" type="line"/>
			<point x="70" y="446" type="line"/>
			<point x="63" y="405" type="line"/>
			<point x="153" y="385" type="line"/>
			<point x="130" y="417" type="line"/>
			<point x="69" y="156" type="line" smooth="yes"/>
			<point x="62" y="125"/>
			<point x="58" y="98"/>
			<point x="58" y="73" type="curve" smooth="yes"/>
			<point x="58" y="18"/>
			<point x="101" y="-16"/>
		</contour>
		<contour>
			<point x="429" y="-16" type="curve" smooth="yes"/>
			<point x="516" y="-16"/>
			<point x="581" y="53"/>
			<point x="618" y="121" type="curve"/>
			<point x="585" y="142" type="line"/>
			<point x="555" y="102"/>
			<point x="538" y="84"/>
			<point x="524" y="84" type="curve" smooth="yes"/>
			<point x="515" y="84"/>
			<point x="509" y="91"/>
			<point x="509" y="104" type="curve" smooth="yes"/>
			<point x="509" y="114"/>
			<point x="511" y="125"/>
			<point x="515" y="141" type="curve" smooth="yes"/>
			<point x="594" y="487" type="line"/>
			<point x="572" y="505" type="line"/>
			<point x="411" y="454" type="line"/>
			<point x="403" y="409"/>
			<point x="395" y="366"/>
			<point x="386" y="323" type="curve" smooth="yes"/>
			<point x="352" y="165" type="line" smooth="yes"/>
			<point x="347" y="142"/>
			<point x="342" y="121"/>
			<point x="342" y="91" type="curve" smooth="yes"/>
			<point x="342" y="23"/>
			<point x="378" y="-16"/>
		</contour>
	</outline>
	<anchor name="aboveLC" x="368" y="520"/>
	<anchor name="belowLC" x="299" y="-22"/>
	<anchor name="hornLC" x="536" y="466"/>
	<anchor name="ogonek" x="476" y="0"/>
</glyph>
<glyph name="w" format="2">
	<unicode hex="0077"/>
	<advance width="822"/>
	<outline>
		<contour>
			<point x="178" y="0" type="curve"/>
			<point x="190" y="-10" type="line"/>
			<point x="292" y="0" type="line"/>
			<point x="341" y="101"/>
			<point x="391" y="202"/>
			<point x="440" y="303" type="curve"/>
			<point x="419" y="302" type="line"/>
			<point x="435" y="201"/>
			<point x="451" y="101"/>
			<point x="467" y="0" type="curve"/>
			<point x="479" y="-10" type="line"/>
			<point x="569" y="0" type="line"/>
			<point x="667" y="103"/>
			<point x="748" y="212"/>
			<point x="798" y="300" type="curve" smooth="yes"/>
			<point x="830" y="356"/>
			<point x="839" y="388"/>
			<point x="839" y="420" type="curve" smooth="yes"/>
			<point x="839" y="457"/>
			<point x="835" y="474"/>
			<point x="821" y="493" type="curve"/>
			<point x="809" y="501"/>
			<point x="791" y="508"/>
			<point x="772" y="508" type="curve" smooth="yes"/>
			<point x="718" y="508"/>
			<point x="677" y="479"/>
			<point x="677" y="419" type="curve" smooth="yes"/>
			<point x="677" y="388"/>
			<point x="692" y="354"/>
			<point x="704" y="322" type="curve" smooth="yes"/>
			<point x="737" y="231" type="line"/>
			<point x="761" y="370" type="line"/>
			<point x="755" y="359"/>
			<point x="750" y="346"/>
			<point x="745" y="335" type="curve" smooth="yes"/>
			<point x="697" y="251"/>
			<point x="653" y="178"/>
			<point x="598" y="103" type="curve"/>
			<point x="622" y="93" type="line"/>
			<point x="603" y="221"/>
			<point x="585" y="349"/>
			<point x="566" y="477" type="curve"/>
			<point x="460" y="477" type="line"/>
			<point x="403" y="355"/>
			<point x="345" y="233"/>
			<point x="288" y="111" type="curve"/>
			<point x="321" y="103" type="line"/>
			<point x="312" y="202"/>
			<point x="303" y="300"/>
			<point x="294" y="399" type="curve" smooth="yes"/>
			<point x="288" y="469"/>
			<point x="262" y="503"/>
			<point x="206" y="503" type="curve" smooth="yes"/>
			<point x="154" y="503"/>
			<point x="104" y="466"/>
			<point x="43" y="391" type="curve"/>
			<point x="66" y="361" type="line"/>
			<point x="80" y="374"/>
			<point x="95" y="383"/>
			<point x="104" y="383" type="curve" smooth="yes"/>
			<point x="115" y="383"/>
			<point x="123" y="380"/>
			<point x="126" y="356" type="curve" smooth="yes"/>
			<point x="143" y="237"/>
			<point x="161" y="119"/>
		</contour>
	</outline>
	<anchor name="aboveLC" x="513" y="520"/>
	<anchor name="belowLC" x="380" y="-22"/>
</glyph>
<glyph name="x" format="2">
	<unicode hex="0078"/>
	<advance width="602"/>
	<outline>
		<contour>
			<point x="15" y="71" type="curve"/>
			<point x="20" y="9"/>
			<point x="68" y="-16"/>
			<point x="110" y="-16" type="curve" smooth="yes"/>
			<point x="151" y="-16"/>
			<point x="179" y="5"/>
			<point x="202" y="34" type="curve" smooth="yes"/>
			<point x="248" y="91"/>
			<point x="284" y="153"/>
			<point x="337" y="244" type="curve"/>
			<point x="328" y="277" type="line"/>
			<point x="274" y="208"/>
			<point x="220" y="138"/>
			<point x="166" y="69" type="curve" smooth="yes"/>
			<point x="158" y="58"/>
			<point x="147" y="50"/>
			<point x="138" y="40" type="curve"/>
			<point x="192" y="42" type="line"/>
			<point x="183" y="59" type="line" smooth="yes"/>
			<point x="154" y="114"/>
			<point x="131" y="136"/>
			<point x="95" y="136" type="curve" smooth="yes"/>
			<point x="55" y="136"/>
			<point x="29" y="115"/>
		</contour>
		<contour>
			<point x="307" y="66" type="line" smooth="yes"/>
			<point x="330" y="3"/>
			<point x="367" y="-20"/>
			<point x="419" y="-20" type="curve" smooth="yes"/>
			<point x="493" y="-20"/>
			<point x="550" y="43"/>
			<point x="591" y="121" type="curve"/>
			<point x="557" y="142" type="line"/>
			<point x="531" y="105"/>
			<point x="510" y="84"/>
			<point x="492" y="84" type="curve" smooth="yes"/>
			<point x="479" y="84"/>
			<point x="471" y="91"/>
			<point x="461" y="117" type="curve" smooth="yes"/>
			<point x="353" y="408" type="line" smooth="yes"/>
			<point x="331" y="468"/>
			<point x="310" y="503"/>
			<point x="248" y="503" type="curve" smooth="yes"/>
			<point x="194" y="503"/>
			<point x="146" y="465"/>
			<point x="86" y="391" type="curve"/>
			<point x="109" y="361" type="line"/>
			<point x="125" y="374"/>
			<point x="146" y="383"/>
			<point x="164" y="383" type="curve" smooth="yes"/>
			<point x="185" y="383"/>
			<point x="197" y="374"/>
			<point x="209" y="341" type="curve" smooth="yes"/>
		</contour>
		<contour>
			<point x="340" y="210" type="line"/>
			<point x="392" y="278"/>
			<point x="445" y="347"/>
			<point x="497" y="415" type="curve" smooth="yes"/>
			<point x="507" y="428"/>
			<point x="519" y="435"/>
			<point x="531" y="444" type="curve"/>
			<point x="470" y="441" type="line"/>
			<point x="492" y="405" type="line" smooth="yes"/>
			<point x="512" y="373"/>
			<point x="536" y="353"/>
			<point x="571" y="353" type="curve" smooth="yes"/>
			<point x="613" y="353"/>
			<point x="643" y="387"/>
			<point x="646" y="438" type="curve"/>
			<point x="635" y="482"/>
			<point x="601" y="503"/>
			<point x="562" y="503" type="curve" smooth="yes"/>
			<point x="524" y="503"/>
			<point x="491" y="489"/>
			<point x="461" y="449" type="curve" smooth="yes"/>
			<point x="431" y="409"/>
			<point x="381" y="336"/>
			<point x="328" y="243" type="curve"/>
		</contour>
	</outline>
	<anchor name="aboveLC" x="397" y="520"/>
	<anchor name="belowLC" x="255" y="-22"/>
</glyph>
<glyph name="y" format="2">
	<unicode hex="0079"/>
	<advance width="558"/>
	<outline>
		<contour>
			<point x="25" y="-222" type="curve" smooth="yes"/>
			<point x="82" y="-222"/>
			<point x="132" y="-188"/>
			<point x="177" y="-142" type="curve" smooth="yes"/>
			<point x="233" y="-83"/>
			<point x="269" y="-39"/>
			<point x="303" y="5" type="curve" smooth="yes"/>
			<point x="361" y="78"/>
			<point x="397" y="139"/>
			<point x="435" y="192" type="curve" smooth="yes"/>
			<point x="467" y="238"/>
			<point x="494" y="286"/>
			<point x="516" y="324" type="curve" smooth="yes"/>
			<point x="541" y="368"/>
			<point x="559" y="402"/>
			<point x="559" y="441" type="curve" smooth="yes"/>
			<point x="559" y="480"/>
			<point x="525" y="503"/>
			<point x="492" y="503" type="curve" smooth="yes"/>
			<point x="432" y="503"/>
			<point x="412" y="465"/>
			<point x="384" y="354" type="curve" smooth="yes"/>
			<point x="359" y="255"/>
			<point x="334" y="156"/>
			<point x="303" y="58" type="curve"/>
			<point x="268" y="21"/>
			<point x="232" y="-16"/>
			<point x="197" y="-53" type="curve" smooth="yes"/>
			<point x="153" y="-101"/>
			<point x="79" y="-160"/>
			<point x="66" y="-167" type="curve"/>
			<point x="66" y="-181" type="line"/>
			<point x="114" y="-181" type="line"/>
			<point x="114" y="-166" type="line"/>
			<point x="103" y="-149" type="line" smooth="yes"/>
			<point x="68" y="-94"/>
			<point x="48" y="-73"/>
			<point x="9" y="-73" type="curve" smooth="yes"/>
			<point x="-29" y="-73"/>
			<point x="-59" y="-95"/>
			<point x="-68" y="-133" type="curve"/>
			<point x="-68" y="-192"/>
			<point x="-25" y="-222"/>
		</contour>
		<contour>
			<point x="184" y="-98" type="curve"/>
			<point x="323" y="61" type="line"/>
			<point x="307" y="61" type="line"/>
			<point x="294" y="174"/>
			<point x="280" y="286"/>
			<point x="267" y="399" type="curve" smooth="yes"/>
			<point x="259" y="469"/>
			<point x="241" y="503"/>
			<point x="185" y="503" type="curve" smooth="yes"/>
			<point x="133" y="503"/>
			<point x="83" y="466"/>
			<point x="22" y="391" type="curve"/>
			<point x="45" y="361" type="line"/>
			<point x="59" y="374"/>
			<point x="74" y="383"/>
			<point x="83" y="383" type="curve" smooth="yes"/>
			<point x="94" y="383"/>
			<point x="101" y="380"/>
			<point x="105" y="356" type="curve" smooth="yes"/>
			<point x="131" y="205"/>
			<point x="158" y="53"/>
		</contour>
	</outline>
	<anchor name="aboveLC" x="336" y="507"/>
	<anchor name="belowLC" x="37" y="-242"/>
</glyph>
<glyph name="asciitilde" format="2">
	<unicode hex="007E"/>
	<advance width="550"/>
	<outline>
		<contour>
			<point x="325" y="389" type="curve" smooth="yes"/>
			<point x="279" y="425"/>
			<point x="244" y="444"/>
			<point x="207" y="444" type="curve" smooth="yes"/>
			<point x="136" y="444"/>
			<point x="76" y="400"/>
			<point x="76" y="262" type="curve"/>
			<point x="158" y="255" type="line"/>
			<point x="162" y="324"/>
			<point x="179" y="346"/>
			<point x="204" y="346" type="curve" smooth="yes"/>
			<point x="219" y="346"/>
			<point x="229" y="338"/>
			<point x="277" y="301" type="curve" smooth="yes"/>
			<point x="323" y="265"/>
			<point x="358" y="246"/>
			<point x="394" y="246" type="curve" smooth="yes"/>
			<point x="463" y="246"/>
			<point x="526" y="290"/>
			<point x="526" y="428" type="curve"/>
			<point x="444" y="435" type="line"/>
			<point x="440" y="366"/>
			<point x="423" y="344"/>
			<point x="399" y="344" type="curve" smooth="yes"/>
			<point x="383" y="344"/>
			<point x="373" y="352"/>
		</contour>
	</outline>
</glyph>
<glyph name="cent" format="2">
	<unicode hex="00A2"/>
	<advance width="560"/>
	<outline>
		<contour>
			<point x="45" y="235" type="curve" smooth="yes"/>
			<point x="45" y="120"/>
			<point x="120" y="44"/>
			<point x="228" y="44" type="curve" smooth="yes"/>
			<point x="346" y="44"/>
			<point x="436" y="129"/>
			<point x="479" y="213" type="curve"/>
			<point x="450" y="234" type="line"/>
			<point x="407" y="183"/>
			<point x="357" y="161"/>
			<point x="320" y="161" type="curve" smooth="yes"/>
			<point x="250" y="161"/>
			<point x="206" y="195"/>
			<point x="206" y="280" type="curve" smooth="yes"/>
			<point x="206" y="350"/>
			<point x="238" y="508"/>
			<point x="360" y="508" type="curve" smooth="yes"/>
			<point x="413" y="508"/>
			<point x="435" y="503"/>
			<point x="456" y="493" type="curve"/>
			<point x="396" y="535" type="line"/>
			<point x="404" y="445" type="line" smooth="yes"/>
			<point x="410" y="374"/>
			<point x="431" y="359"/>
			<point x="467" y="359" type="curve" smooth="yes"/>
			<point x="489" y="359"/>
			<point x="516" y="372"/>
			<point x="527" y="402" type="curve"/>
			<point x="527" y="493"/>
			<point x="466" y="563"/>
			<point x="353" y="563" type="curve" smooth="yes"/>
			<point x="171" y="563"/>
			<point x="45" y="407"/>
		</contour>
		<contour>
			<point x="267" y="-45" type="line"/>
			<point x="409" y="650" type="line"/>
			<point x="346" y="650" type="line"/>
			<point x="204" y="-45" type="line"/>
		</contour>
	</outline>
</glyph>
<glyph name="brokenbar" format="2">
	<unicode hex="00A6"/>
	<advance width="320"/>
	<outline>
		<contour>
			<point x="98" y="-250" type="line"/>
			<point x="212" y="-250" type="line"/>
			<point x="212" y="200" type="line"/>
			<point x="98" y="200" type="line"/>
		</contour>
		<contour>
			<point x="212" y="320" type="line"/>
			<point x="212" y="750" type="line"/>
			<point x="98" y="750" type="line"/>
			<point x="98" y="320" type="line"/>
		</contour>
	</outline>
</glyph>
<glyph name="section" format="2">
	<unicode hex="00A7"/>
	<advance width="521"/>
	<outline>
		<contour>
			<point x="166" y="-141" type="curve" smooth="yes"/>
			<point x="322" y="-141"/>
			<point x="393" y="-73"/>
			<point x="393" y="7" type="curve" smooth="yes"/>
			<point x="393" y="70"/>
			<point x="362" y="101"/>
			<point x="302" y="152" type="curve" smooth="yes"/>
			<point x="261" y="187" type="line" smooth="yes"/>
			<point x="214" y="227"/>
			<point x="184" y="258"/>
			<point x="187" y="298" type="curve" smooth="yes"/>
			<point x="188" y="333"/>
			<point x="210" y="365"/>
			<point x="265" y="374" type="curve"/>
			<point x="266" y="415" type="line"/>
			<point x="261" y="406" type="line"/>
			<point x="115" y="404"/>
			<point x="40" y="322"/>
			<point x="40" y="235" type="curve" smooth="yes"/>
			<point x="40" y="173"/>
			<point x="68" y="133"/>
			<point x="124" y="85" type="curve" smooth="yes"/>
			<point x="162" y="53" type="line" smooth="yes"/>
			<point x="207" y="15"/>
			<point x="232" y="-9"/>
			<point x="232" y="-38" type="curve" smooth="yes"/>
			<point x="232" y="-73"/>
			<point x="209" y="-99"/>
			<point x="166" y="-99" type="curve" smooth="yes"/>
			<point x="143" y="-99"/>
			<point x="120" y="-99"/>
			<point x="97" y="-97" type="curve"/>
			<point x="168" y="-115" type="line"/>
			<point x="152" y="-41" type="line" smooth="yes"/>
			<point x="141" y="12"/>
			<point x="109" y="30"/>
			<point x="72" y="30" type="curve" smooth="yes"/>
			<point x="32" y="30"/>
			<point x="12" y="6"/>
			<point x="6" y="-32" type="curve"/>
			<point x="18" y="-100"/>
			<point x="79" y="-141"/>
		</contour>
		<contour>
			<point x="333" y="672" type="curve" smooth="yes"/>
			<point x="202" y="672"/>
			<point x="133" y="596"/>
			<point x="133" y="508" type="curve" smooth="yes"/>
			<point x="133" y="445"/>
			<point x="172" y="406"/>
			<point x="217" y="369" type="curve" smooth="yes"/>
			<point x="265" y="329" type="line" smooth="yes"/>
			<point x="312" y="289"/>
			<point x="335" y="262"/>
			<point x="334" y="230" type="curve" smooth="yes"/>
			<point x="332" y="195"/>
			<point x="304" y="170"/>
			<point x="254" y="161" type="curve"/>
			<point x="255" y="118" type="line"/>
			<point x="263" y="127" type="line"/>
			<point x="412" y="131"/>
			<point x="487" y="207"/>
			<point x="487" y="290" type="curve" smooth="yes"/>
			<point x="487" y="343"/>
			<point x="466" y="377"/>
			<point x="407" y="426" type="curve" smooth="yes"/>
			<point x="368" y="458" type="line" smooth="yes"/>
			<point x="323" y="495"/>
			<point x="287" y="527"/>
			<point x="287" y="566" type="curve" smooth="yes"/>
			<point x="287" y="597"/>
			<point x="306" y="630"/>
			<point x="352" y="630" type="curve" smooth="yes"/>
			<point x="365" y="630"/>
			<point x="384" y="627"/>
			<point x="400" y="625" type="curve"/>
			<point x="326" y="646" type="line"/>
			<point x="351" y="579" type="line" smooth="yes"/>
			<point x="369" y="531"/>
			<point x="401" y="512"/>
			<point x="429" y="512" type="curve" smooth="yes"/>
			<point x="468" y="512"/>
			<point x="489" y="536"/>
			<point x="494" y="568" type="curve"/>
			<point x="479" y="627"/>
			<point x="437" y="672"/>
		</contour>
	</outline>
</glyph>
<glyph name="logicalnot" format="2">
	<unicode hex="00AC"/>
	<advance width="550"/>
	<outline>
		<contour>
			<point x="42" y="308" type="line"/>
			<point x="448" y="308" type="line"/>
			<point x="405" y="350" type="line"/>
			<point x="405" y="146" type="line"/>
			<point x="502" y="146" type="line"/>
			<point x="502" y="402" type="line"/>
			<point x="42" y="402" type="line"/>
		</contour>
	</outline>
</glyph>
<glyph name="registered" format="2">
	<unicode hex="00AE"/>
	<advance width="474"/>
	<outline>
		<contour>
			<point x="175" y="418" type="line"/>
			<point x="278" y="418" type="line"/>
			<point x="282" y="440" type="line"/>
			<point x="237" y="444" type="line"/>
			<point x="226" y="444" type="line"/>
			<point x="179" y="440" type="line"/>
		</contour>
		<contour>
			<point x="195" y="418" type="line"/>
			<point x="257" y="418" type="line"/>
			<point x="294" y="614" type="line"/>
			<point x="232" y="614" type="line"/>
		</contour>
		<contour>
			<point x="253" y="587" type="line"/>
			<point x="259" y="587" type="line"/>
			<point x="264" y="614" type="line"/>
			<point x="212" y="614" type="line"/>
			<point x="207" y="592" type="line"/>
		</contour>
		<contour>
			<point x="276" y="353" type="curve" smooth="yes"/>
			<point x="199" y="353"/>
			<point x="135" y="407"/>
			<point x="135" y="493" type="curve" smooth="yes"/>
			<point x="135" y="597"/>
			<point x="216" y="667"/>
			<point x="299" y="667" type="curve" smooth="yes"/>
			<point x="375" y="667"/>
			<point x="437" y="614"/>
			<point x="437" y="527" type="curve" smooth="yes"/>
			<point x="437" y="423"/>
			<point x="358" y="353"/>
		</contour>
		<contour>
			<point x="268" y="305" type="curve" smooth="yes"/>
			<point x="380" y="305"/>
			<point x="489" y="396"/>
			<point x="489" y="529" type="curve" smooth="yes"/>
			<point x="489" y="643"/>
			<point x="406" y="715"/>
			<point x="306" y="715" type="curve" smooth="yes"/>
			<point x="194" y="715"/>
			<point x="83" y="625"/>
			<point x="83" y="492" type="curve" smooth="yes"/>
			<point x="83" y="377"/>
			<point x="167" y="305"/>
		</contour>
		<contour>
			<point x="346" y="413" type="curve" smooth="yes"/>
			<point x="362" y="413"/>
			<point x="374" y="415"/>
			<point x="385" y="418" type="curve"/>
			<point x="389" y="440" type="line"/>
			<point x="338" y="445" type="line"/>
			<point x="375" y="422" type="line"/>
			<point x="363" y="467" type="line" smooth="yes"/>
			<point x="354" y="500"/>
			<point x="342" y="519"/>
			<point x="298" y="520" type="curve"/>
			<point x="298" y="517" type="line"/>
			<point x="368" y="520"/>
			<point x="384" y="546"/>
			<point x="384" y="568" type="curve" smooth="yes"/>
			<point x="384" y="596"/>
			<point x="360" y="614"/>
			<point x="317" y="614" type="curve" smooth="yes"/>
			<point x="264" y="614" type="line"/>
			<point x="259" y="591" type="line"/>
			<point x="295" y="591" type="line" smooth="yes"/>
			<point x="314" y="591"/>
			<point x="326" y="582"/>
			<point x="326" y="562" type="curve" smooth="yes"/>
			<point x="326" y="544"/>
			<point x="317" y="528"/>
			<point x="284" y="528" type="curve" smooth="yes"/>
			<point x="248" y="528" type="line"/>
			<point x="244" y="506" type="line"/>
			<point x="276" y="506" type="line" smooth="yes"/>
			<point x="290" y="506"/>
			<point x="294" y="500"/>
			<point x="299" y="478" type="curve" smooth="yes"/>
			<point x="307" y="442" type="line" smooth="yes"/>
			<point x="312" y="422"/>
			<point x="323" y="413"/>
		</contour>
	</outline>
</glyph>
<glyph name="two.sups" format="2">
	<unicode hex="00B2"/>
	<advance width="379"/>
	<outline>
		<contour>
			<point x="76" y="415" type="line"/>
			<point x="366" y="415" type="line"/>
			<point x="385" y="510" type="line"/>
			<point x="157" y="510" type="line"/>
			<point x="162" y="500" type="line"/>
			<point x="348" y="601"/>
			<point x="402" y="649"/>
			<point x="402" y="715" type="curve" smooth="yes"/>
			<point x="402" y="770"/>
			<point x="364" y="812"/>
			<point x="290" y="812" type="curve" smooth="yes"/>
			<point x="214" y="812"/>
			<point x="148" y="786"/>
			<point x="122" y="691" type="curve"/>
			<point x="125" y="658"/>
			<point x="142" y="644"/>
			<point x="170" y="644" type="curve" smooth="yes"/>
			<point x="203" y="644"/>
			<point x="224" y="663"/>
			<point x="225" y="711" type="curve" smooth="yes"/>
			<point x="226" y="788" type="line"/>
			<point x="179" y="753" type="line"/>
			<point x="203" y="761"/>
			<point x="229" y="765"/>
			<point x="248" y="765" type="curve" smooth="yes"/>
			<point x="273" y="765"/>
			<point x="291" y="750"/>
			<point x="291" y="718" type="curve" smooth="yes"/>
			<point x="291" y="664"/>
			<point x="249" y="608"/>
			<point x="88" y="484" type="curve"/>
		</contour>
	</outline>
</glyph>
<glyph name="three.sups" format="2">
	<unicode hex="00B3"/>
	<advance width="379"/>
	<outline>
		<contour>
			<point x="215" y="397" type="curve" smooth="yes"/>
			<point x="332" y="397"/>
			<point x="399" y="446"/>
			<point x="399" y="515" type="curve" smooth="yes"/>
			<point x="399" y="573"/>
			<point x="362" y="600"/>
			<point x="260" y="610" type="curve"/>
			<point x="258" y="599" type="line"/>
			<point x="377" y="612"/>
			<point x="414" y="663"/>
			<point x="414" y="710" type="curve" smooth="yes"/>
			<point x="414" y="759"/>
			<point x="382" y="803"/>
			<point x="278" y="803" type="curve" smooth="yes"/>
			<point x="201" y="803"/>
			<point x="139" y="769"/>
			<point x="139" y="698" type="curve"/>
			<point x="148" y="688"/>
			<point x="161" y="680"/>
			<point x="178" y="680" type="curve" smooth="yes"/>
			<point x="201" y="680"/>
			<point x="226" y="690"/>
			<point x="232" y="727" type="curve" smooth="yes"/>
			<point x="243" y="787" type="line"/>
			<point x="196" y="756" type="line"/>
			<point x="214" y="760"/>
			<point x="236" y="762"/>
			<point x="242" y="762" type="curve" smooth="yes"/>
			<point x="281" y="762"/>
			<point x="301" y="744"/>
			<point x="301" y="701" type="curve" smooth="yes"/>
			<point x="301" y="647"/>
			<point x="268" y="620"/>
			<point x="201" y="620" type="curve"/>
			<point x="192" y="581" type="line"/>
			<point x="245" y="581"/>
			<point x="268" y="563"/>
			<point x="268" y="519" type="curve" smooth="yes"/>
			<point x="268" y="462"/>
			<point x="222" y="438"/>
			<point x="187" y="438" type="curve" smooth="yes"/>
			<point x="160" y="438"/>
			<point x="149" y="440"/>
			<point x="138" y="443" type="curve"/>
			<point x="188" y="411" type="line"/>
			<point x="183" y="470" type="line" smooth="yes"/>
			<point x="179" y="523"/>
			<point x="161" y="532"/>
			<point x="135" y="532" type="curve" smooth="yes"/>
			<point x="118" y="532"/>
			<point x="99" y="521"/>
			<point x="89" y="502" type="curve"/>
			<point x="90" y="438"/>
			<point x="130" y="397"/>
		</contour>
	</outline>
</glyph>
<glyph name="paragraph" format="2">
	<unicode hex="00B6"/>
	<advance width="674"/>
	<outline>
		<contour>
			<point x="574" y="652" type="line"/>
			<point x="560" y="578" type="line"/>
			<point x="576" y="578" type="line"/>
			<point x="713" y="593" type="line"/>
			<point x="724" y="652" type="line"/>
		</contour>
		<contour>
			<point x="352" y="-110" type="line"/>
			<point x="513" y="-110" type="line"/>
			<point x="529" y="-7"/>
			<point x="548" y="97"/>
			<point x="567" y="201" type="curve" smooth="yes"/>
			<point x="651" y="652" type="line"/>
			<point x="493" y="652" type="line"/>
		</contour>
		<contour>
			<point x="412" y="593" type="line"/>
			<point x="565" y="593" type="line"/>
			<point x="576" y="652" type="line"/>
			<point x="456" y="652" type="line" smooth="yes"/>
			<point x="203" y="652"/>
			<point x="64" y="522"/>
			<point x="64" y="347" type="curve" smooth="yes"/>
			<point x="64" y="199"/>
			<point x="177" y="123"/>
			<point x="321" y="103" type="curve"/>
		</contour>
	</outline>
</glyph>
<glyph name="one.sups" format="2">
	<unicode hex="00B9"/>
	<advance width="379"/>
	<outline>
		<contour>
			<point x="110" y="406" type="line"/>
			<point x="368" y="406" type="line"/>
			<point x="375" y="444" type="line"/>
			<point x="275" y="457" type="line"/>
			<point x="221" y="457" type="line"/>
			<point x="117" y="444" type="line"/>
		</contour>
		<contour>
			<point x="172" y="406" type="line"/>
			<point x="300" y="406" type="line"/>
			<point x="363" y="710" type="line"/>
			<point x="384" y="797" type="line"/>
			<point x="376" y="804" type="line"/>
			<point x="185" y="766" type="line"/>
			<point x="178" y="734" type="line"/>
			<point x="257" y="734" type="line"/>
			<point x="242" y="755" type="line"/>
		</contour>
	</outline>
</glyph>
<glyph name="Idieresis" format="2">
	<unicode hex="00CF"/>
	<advance width="384"/>
	<outline>
		<contour>
			<point x="199" y="703" type="curve" smooth="yes"/>
			<point x="238" y="703"/>
			<point x="278" y="732"/>
			<point x="278" y="784" type="curve" smooth="yes"/>
			<point x="278" y="822"/>
			<point x="249" y="846"/>
			<point x="211" y="846" type="curve" smooth="yes"/>
			<point x="174" y="846"/>
			<point x="131" y="820"/>
			<point x="131" y="766" type="curve" smooth="yes"/>
			<point x="131" y="726"/>
			<point x="166" y="703"/>
		</contour>
		<contour>
			<point x="390" y="703" type="curve" smooth="yes"/>
			<point x="429" y="703"/>
			<point x="469" y="732"/>
			<point x="469" y="784" type="curve" smooth="yes"/>
			<point x="469" y="822"/>
			<point x="440" y="846"/>
			<point x="402" y="846" type="curve" smooth="yes"/>
			<point x="365" y="846"/>
			<point x="322" y="820"/>
			<point x="322" y="766" type="curve" smooth="yes"/>
			<point x="322" y="726"/>
			<point x="357" y="703"/>
		</contour>
		<component base="I"/>
	</outline>
</glyph>
<glyph name="Eth" format="2">
	<unicode hex="00D0"/>
	<advance width="685"/>
	<outline>
		<contour>
			<point x="391" y="303" type="line"/>
			<point x="403" y="366" type="line"/>
			<point x="33" y="366" type="line"/>
			<point x="21" y="303" type="line"/>
		</contour>
		<component base="D"/>
	</outline>
</glyph>
<glyph name="multiply" format="2">
	<unicode hex="00D7"/>
	<advance width="550"/>
	<outline>
		<contour>
			<point x="448" y="96" type="line"/>
			<point x="517" y="165" type="line"/>
			<point x="138" y="544" type="line"/>
			<point x="69" y="475" type="line"/>
		</contour>
		<contour>
			<point x="517" y="475" type="line"/>
			<point x="448" y="544" type="line"/>
			<point x="69" y="165" type="line"/>
			<point x="138" y="96" type="line"/>
		</contour>
	</outline>
</glyph>
<glyph name="germandbls" format="2">
	<unicode hex="00DF"/>
	<advance width="616"/>
	<outline>
		<contour>
			<point x="-40" y="-232" type="curve" smooth="yes"/>
			<point x="15" y="-232"/>
			<point x="82" y="-204"/>
			<point x="123" y="-158" type="curve" smooth="yes"/>
			<point x="168" y="-108"/>
			<point x="203" y="-41"/>
			<point x="219" y="75" type="curve" smooth="yes"/>
			<point x="240" y="191"/>
			<point x="259" y="350"/>
			<point x="282" y="513" type="curve" smooth="yes"/>
			<point x="299" y="634"/>
			<point x="346" y="693"/>
			<point x="408" y="693" type="curve" smooth="yes"/>
			<point x="446" y="693"/>
			<point x="466" y="668"/>
			<point x="466" y="629" type="curve" smooth="yes"/>
			<point x="466" y="577"/>
			<point x="446" y="544"/>
			<point x="401" y="496" type="curve" smooth="yes"/>
			<point x="353" y="444"/>
			<point x="306" y="400"/>
			<point x="306" y="341" type="curve" smooth="yes"/>
			<point x="306" y="273"/>
			<point x="333" y="232"/>
			<point x="387" y="182" type="curve" smooth="yes"/>
			<point x="430" y="143"/>
			<point x="450" y="116"/>
			<point x="450" y="86" type="curve" smooth="yes"/>
			<point x="450" y="52"/>
			<point x="431" y="26"/>
			<point x="392" y="26" type="curve" smooth="yes"/>
			<point x="371" y="26"/>
			<point x="351" y="26"/>
			<point x="330" y="26" type="curve"/>
			<point x="400" y="16" type="line"/>
			<point x="387" y="73" type="line" smooth="yes"/>
			<point x="376" y="123"/>
			<point x="349" y="139"/>
			<point x="319" y="139" type="curve" smooth="yes"/>
			<point x="281" y="139"/>
			<point x="264" y="118"/>
			<point x="257" y="81" type="curve"/>
			<point x="271" y="13"/>
			<point x="321" y="-16"/>
			<point x="409" y="-16" type="curve" smooth="yes"/>
			<point x="524" y="-16"/>
			<point x="596" y="53"/>
			<point x="596" y="135" type="curve" smooth="yes"/>
			<point x="596" y="199"/>
			<point x="571" y="237"/>
			<point x="518" y="288" type="curve" smooth="yes"/>
			<point x="463" y="341"/>
			<point x="432" y="384"/>
			<point x="432" y="431" type="curve" smooth="yes"/>
			<point x="432" y="457"/>
			<point x="447" y="478"/>
			<point x="469" y="490" type="curve" smooth="yes"/>
			<point x="548" y="532"/>
			<point x="608" y="560"/>
			<point x="608" y="630" type="curve" smooth="yes"/>
			<point x="608" y="699"/>
			<point x="546" y="730"/>
			<point x="408" y="730" type="curve" smooth="yes"/>
			<point x="259" y="730"/>
			<point x="135" y="654"/>
			<point x="106" y="440" type="curve" smooth="yes"/>
			<point x="89" y="311"/>
			<point x="73" y="176"/>
			<point x="55" y="52" type="curve" smooth="yes"/>
			<point x="46" y="-6"/>
			<point x="37" y="-63"/>
			<point x="22" y="-115" type="curve" smooth="yes"/>
			<point x="12" y="-149"/>
			<point x="0" y="-173"/>
			<point x="-13" y="-195" type="curve"/>
			<point x="-13" y="-199" type="line"/>
			<point x="2" y="-199" type="line"/>
			<point x="2" y="-195" type="line"/>
			<point x="-20" y="-153" type="line"/>
			<point x="-43" y="-116"/>
			<point x="-65" y="-94"/>
			<point x="-101" y="-94" type="curve" smooth="yes"/>
			<point x="-142" y="-94"/>
			<point x="-162" y="-123"/>
			<point x="-167" y="-162" type="curve"/>
			<point x="-147" y="-214"/>
			<point x="-114" y="-232"/>
		</contour>
	</outline>
</glyph>
<glyph name="idieresis" format="2">
	<unicode hex="00EF"/>
	<advance width="325"/>
	<outline>
		<contour>
			<point x="148" y="582" type="curve" smooth="yes"/>
			<point x="191" y="582"/>
			<point x="235" y="614"/>
			<point x="235" y="672" type="curve" smooth="yes"/>
			<point x="235" y="715"/>
			<point x="202" y="741"/>
			<point x="162" y="741" type="curve" smooth="yes"/>
			<point x="119" y="741"/>
			<point x="74" y="709"/>
			<point x="74" y="652" type="curve" smooth="yes"/>
			<point x="74" y="607"/>
			<point x="109" y="582"/>
		</contour>
		<contour>
			<point x="351" y="582" type="curve" smooth="yes"/>
			<point x="394" y="582"/>
			<point x="438" y="614"/>
			<point x="438" y="672" type="curve" smooth="yes"/>
			<point x="438" y="715"/>
			<point x="405" y="741"/>
			<point x="365" y="741" type="curve" smooth="yes"/>
			<point x="322" y="741"/>
			<point x="277" y="709"/>
			<point x="277" y="652" type="curve" smooth="yes"/>
			<point x="277" y="607"/>
			<point x="312" y="582"/>
		</contour>
		<component base="dotlessi"/>
	</outline>
</glyph>
<glyph name="eth" format="2">
	<unicode hex="00F0"/>
	<advance width="538"/>
	<outline>
		<contour>
			<point x="223" y="-16" type="curve" smooth="yes"/>
			<point x="406" y="-16"/>
			<point x="520" y="138"/>
			<point x="520" y="328" type="curve" smooth="yes"/>
			<point x="520" y="546"/>
			<point x="396" y="682"/>
			<point x="219" y="731" type="curve"/>
			<point x="193" y="682" type="line"/>
			<point x="311" y="627"/>
			<point x="350" y="535"/>
			<point x="376" y="404" type="curve"/>
			<point x="401" y="415" type="line"/>
			<point x="385" y="465"/>
			<point x="354" y="487"/>
			<point x="302" y="487" type="curve" smooth="yes"/>
			<point x="140" y="487"/>
			<point x="23" y="347"/>
			<point x="23" y="179" type="curve" smooth="yes"/>
			<point x="23" y="41"/>
			<point x="110" y="-16"/>
		</contour>
		<contour>
			<point x="238" y="44" type="curve" smooth="yes"/>
			<point x="213" y="44"/>
			<point x="193" y="60"/>
			<point x="193" y="140" type="curve" smooth="yes"/>
			<point x="193" y="291"/>
			<point x="245" y="427"/>
			<point x="311" y="427" type="curve" smooth="yes"/>
			<point x="341" y="427"/>
			<point x="358" y="410"/>
			<point x="358" y="349" type="curve" smooth="yes"/>
			<point x="358" y="205"/>
			<point x="310" y="44"/>
		</contour>
		<contour>
			<point x="204" y="510" type="line"/>
			<point x="526" y="661" type="line"/>
			<point x="500" y="716" type="line"/>
			<point x="182" y="559" type="line"/>
		</contour>
	</outline>
</glyph>
<glyph name="oslash" format="2">
	<unicode hex="00F8"/>
	<advance width="551"/>
	<outline>
		<contour>
			<point x="578" y="484" type="line"/>
			<point x="535" y="527" type="line"/>
			<point x="12" y="2" type="line"/>
			<point x="56" y="-40" type="line"/>
		</contour>
		<contour>
			<point x="249" y="-16" type="curve" smooth="yes"/>
			<point x="425" y="-16"/>
			<point x="552" y="142"/>
			<point x="552" y="306" type="curve" smooth="yes"/>
			<point x="552" y="445"/>
			<point x="464" y="503"/>
			<point x="349" y="503" type="curve" smooth="yes"/>
			<point x="172" y="503"/>
			<point x="44" y="343"/>
			<point x="44" y="181" type="curve" smooth="yes"/>
			<point x="44" y="43"/>
			<point x="134" y="-16"/>
		</contour>
		<contour>
			<point x="261" y="44" type="curve" smooth="yes"/>
			<point x="229" y="44"/>
			<point x="204" y="62"/>
			<point x="204" y="139" type="curve" smooth="yes"/>
			<point x="204" y="269"/>
			<point x="256" y="443"/>
			<point x="335" y="443" type="curve" smooth="yes"/>
			<point x="369" y="443"/>
			<point x="392" y="424"/>
			<point x="392" y="354" type="curve" smooth="yes"/>
			<point x="392" y="212"/>
			<point x="338" y="44"/>
		</contour>
	</outline>
	<anchor name="aboveLC" x="353" y="520"/>
</glyph>
<glyph name="thorn" format="2">
	<unicode hex="00FE"/>
	<advance width="560"/>
	<outline>
		<contour>
			<point x="-81" y="-222" type="line"/>
			<point x="205" y="-222" type="line"/>
			<point x="213" y="-181" type="line"/>
			<point x="93" y="-161" type="line"/>
			<point x="43" y="-161" type="line"/>
			<point x="-73" y="-181" type="line"/>
		</contour>
		<contour>
			<point x="-37" y="-222" type="line"/>
			<point x="128" y="-222" type="line"/>
			<point x="141" y="-149"/>
			<point x="155" y="-78"/>
			<point x="172" y="10" type="curve"/>
			<point x="187" y="28" type="line"/>
			<point x="260" y="379" type="line"/>
			<point x="258" y="389" type="line"/>
			<point x="325" y="697" type="line"/>
			<point x="307" y="711" type="line"/>
			<point x="83" y="652" type="line"/>
			<point x="77" y="611" type="line"/>
			<point x="206" y="586" type="line"/>
			<point x="139" y="621" type="line"/>
			<point x="129" y="549"/>
			<point x="112" y="476"/>
			<point x="89" y="369" type="curve" smooth="yes"/>
		</contour>
		<contour>
			<point x="217" y="-16" type="curve" smooth="yes"/>
			<point x="373" y="-16"/>
			<point x="546" y="166"/>
			<point x="546" y="360" type="curve" smooth="yes"/>
			<point x="546" y="470"/>
			<point x="498" y="503"/>
			<point x="437" y="503" type="curve" smooth="yes"/>
			<point x="370" y="503"/>
			<point x="291" y="451"/>
			<point x="238" y="377" type="curve"/>
			<point x="221" y="377" type="line"/>
			<point x="243" y="347" type="line"/>
			<point x="263" y="365"/>
			<point x="293" y="387"/>
			<point x="321" y="387" type="curve" smooth="yes"/>
			<point x="360" y="387"/>
			<point x="377" y="366"/>
			<point x="377" y="309" type="curve" smooth="yes"/>
			<point x="377" y="252"/>
			<point x="356" y="171"/>
			<point x="332" y="128" type="curve" smooth="yes"/>
			<point x="303" y="76"/>
			<point x="278" y="60"/>
			<point x="246" y="60" type="curve" smooth="yes"/>
			<point x="205" y="60"/>
			<point x="178" y="96"/>
			<point x="154" y="142" type="curve"/>
			<point x="114" y="25" type="line"/>
			<point x="143" y="-3"/>
			<point x="179" y="-16"/>
		</contour>
	</outline>
	<anchor name="aboveLC" x="247" y="721"/>
	<anchor name="belowLC" x="347" y="-20"/>
</glyph>
<glyph name="dcroat" format="2">
	<unicode hex="0111"/>
	<advance width="591"/>
	<outline>
		<contour>
			<point x="300" y="513" type="line"/>
			<point x="667" y="513" type="line"/>
			<point x="677" y="559" type="line"/>
			<point x="310" y="559" type="line"/>
		</contour>
		<contour>
			<point x="156" y="-16" type="curve" smooth="yes"/>
			<point x="223" y="-16"/>
			<point x="302" y="36"/>
			<point x="355" y="110" type="curve"/>
			<point x="353" y="146" type="line"/>
			<point x="332" y="125"/>
			<point x="300" y="100"/>
			<point x="271" y="100" type="curve" smooth="yes"/>
			<point x="238" y="100"/>
			<point x="218" y="124"/>
			<point x="218" y="188" type="curve" smooth="yes"/>
			<point x="218" y="242"/>
			<point x="249" y="341"/>
			<point x="291" y="380" type="curve" smooth="yes"/>
			<point x="301" y="389"/>
			<point x="323" y="400"/>
			<point x="341" y="400" type="curve" smooth="yes"/>
			<point x="377" y="400"/>
			<point x="392" y="391"/>
			<point x="415" y="376" type="curve"/>
			<point x="495" y="436" type="line"/>
			<point x="466" y="464"/>
			<point x="430" y="477"/>
			<point x="392" y="477" type="curve" smooth="yes"/>
			<point x="239" y="477"/>
			<point x="47" y="299"/>
			<point x="47" y="132" type="curve" smooth="yes"/>
			<point x="47" y="21"/>
			<point x="99" y="-16"/>
		</contour>
		<contour>
			<point x="505" y="142" type="curve" smooth="yes"/>
			<point x="626" y="697" type="line"/>
			<point x="609" y="711" type="line"/>
			<point x="383" y="652" type="line"/>
			<point x="377" y="611" type="line"/>
			<point x="502" y="591" type="line"/>
			<point x="448" y="631" type="line"/>
			<point x="412" y="451" type="line"/>
			<point x="401" y="431" type="line"/>
			<point x="345" y="168" type="line" smooth="yes"/>
			<point x="339" y="142"/>
			<point x="335" y="106"/>
			<point x="335" y="80" type="curve" smooth="yes"/>
			<point x="335" y="27"/>
			<point x="363" y="-16"/>
			<point x="418" y="-16" type="curve" smooth="yes"/>
			<point x="496" y="-16"/>
			<point x="570" y="45"/>
			<point x="609" y="121" type="curve"/>
			<point x="576" y="142" type="line"/>
			<point x="547" y="101"/>
			<point x="525" y="84"/>
			<point x="513" y="84" type="curve" smooth="yes"/>
			<point x="504" y="84"/>
			<point x="499" y="91"/>
			<point x="499" y="104" type="curve" smooth="yes"/>
			<point x="499" y="114"/>
			<point x="501" y="122"/>
		</contour>
	</outline>
</glyph>
<glyph name="eogonek" format="2">
	<unicode hex="0119"/>
	<advance width="496"/>
	<outline>
		<contour>
			<point x="259" y="-232" type="curve" smooth="yes"/>
			<point x="319" y="-232"/>
			<point x="356" y="-205"/>
			<point x="384" y="-178" type="curve"/>
			<point x="367" y="-146" type="line"/>
			<point x="351" y="-155"/>
			<point x="336" y="-161"/>
			<point x="319" y="-161" type="curve" smooth="yes"/>
			<point x="294" y="-161"/>
			<point x="276" y="-145"/>
			<point x="276" y="-115" type="curve" smooth="yes"/>
			<point x="276" y="-77"/>
			<point x="296" y="-33"/>
			<point x="361" y="30" type="curve" smooth="yes"/>
			<point x="402" y="69"/>
			<point x="436" y="110"/>
			<point x="461" y="153" type="curve"/>
			<point x="431" y="174" type="line"/>
			<point x="398" y="133"/>
			<point x="352" y="101"/>
			<point x="295" y="101" type="curve" smooth="yes"/>
			<point x="234" y="101"/>
			<point x="197" y="140"/>
			<point x="197" y="215" type="curve" smooth="yes"/>
			<point x="197" y="336"/>
			<point x="272" y="444"/>
			<point x="326" y="444" type="curve" smooth="yes"/>
			<point x="342" y="444"/>
			<point x="356" y="430"/>
			<point x="356" y="399" type="curve" smooth="yes"/>
			<point x="356" y="334"/>
			<point x="305" y="250"/>
			<point x="122" y="204" type="curve"/>
			<point x="124" y="167" type="line"/>
			<point x="360" y="209"/>
			<point x="492" y="287"/>
			<point x="492" y="389" type="curve" smooth="yes"/>
			<point x="492" y="456"/>
			<point x="437" y="503"/>
			<point x="338" y="503" type="curve" smooth="yes"/>
			<point x="157" y="503"/>
			<point x="27" y="351"/>
			<point x="27" y="173" type="curve" smooth="yes"/>
			<point x="27" y="60"/>
			<point x="101" y="-16"/>
			<point x="212" y="-16" type="curve" smooth="yes"/>
			<point x="237" y="-16"/>
			<point x="259" y="-12"/>
			<point x="272" y="-7" type="curve"/>
			<point x="272" y="-8" type="line"/>
			<point x="211" y="-63"/>
			<point x="170" y="-107"/>
			<point x="170" y="-157" type="curve" smooth="yes"/>
			<point x="170" y="-202"/>
			<point x="201" y="-232"/>
		</contour>
	</outline>
	<anchor name="aboveLC" x="340" y="507"/>
</glyph>
<glyph name="hbar" format="2">
	<unicode hex="0127"/>
	<advance width="593"/>
	<outline>
		<contour>
			<point x="388" y="-16" type="curve" smooth="yes"/>
			<point x="480" y="-16"/>
			<point x="551" y="51"/>
			<point x="590" y="121" type="curve"/>
			<point x="557" y="142" type="line"/>
			<point x="527" y="102"/>
			<point x="507" y="84"/>
			<point x="493" y="84" type="curve" smooth="yes"/>
			<point x="484" y="84"/>
			<point x="479" y="91"/>
			<point x="479" y="104" type="curve" smooth="yes"/>
			<point x="479" y="114"/>
			<point x="482" y="125"/>
			<point x="486" y="141" type="curve" smooth="yes"/>
			<point x="527" y="301" type="line" smooth="yes"/>
			<point x="535" y="333"/>
			<point x="538" y="362"/>
			<point x="538" y="388" type="curve" smooth="yes"/>
			<point x="538" y="448"/>
			<point x="501" y="477"/>
			<point x="457" y="477" type="curve" smooth="yes"/>
			<point x="385" y="477"/>
			<point x="308" y="428"/>
			<point x="228" y="340" type="curve"/>
			<point x="207" y="340" type="line"/>
			<point x="230" y="293" type="line"/>
			<point x="271" y="338"/>
			<point x="309" y="357"/>
			<point x="338" y="357" type="curve" smooth="yes"/>
			<point x="351" y="357"/>
			<point x="361" y="348"/>
			<point x="361" y="332" type="curve" smooth="yes"/>
			<point x="361" y="317"/>
			<point x="357" y="292"/>
			<point x="349" y="262" type="curve" smooth="yes"/>
			<point x="321" y="153" type="line" smooth="yes"/>
			<point x="314" y="127"/>
			<point x="304" y="88"/>
			<point x="304" y="56" type="curve" smooth="yes"/>
			<point x="304" y="10"/>
			<point x="334" y="-16"/>
		</contour>
		<contour>
			<point x="24" y="-8" type="line"/>
			<point x="179" y="0" type="line"/>
			<point x="191" y="73"/>
			<point x="202" y="125"/>
			<point x="222" y="217" type="curve" smooth="yes"/>
			<point x="250" y="345" type="line"/>
			<point x="249" y="360" type="line"/>
			<point x="323" y="697" type="line"/>
			<point x="307" y="711" type="line"/>
			<point x="84" y="652" type="line"/>
			<point x="79" y="616" type="line"/>
			<point x="209" y="595" type="line"/>
			<point x="136" y="621" type="line"/>
			<point x="126" y="549"/>
			<point x="110" y="476"/>
			<point x="94" y="404" type="curve" smooth="yes"/>
			<point x="8" y="5" type="line"/>
		</contour>
		<contour>
			<point x="56" y="506" type="line"/>
			<point x="432" y="506" type="line"/>
			<point x="444" y="569" type="line"/>
			<point x="68" y="569" type="line"/>
		</contour>
	</outline>
</glyph>
<glyph name="iogonek" format="2">
	<unicode hex="012F"/>
	<advance width="325"/>
	<outline>
		<contour>
			<point x="233" y="581" type="curve" smooth="yes"/>
			<point x="283" y="581"/>
			<point x="329" y="620"/>
			<point x="329" y="676" type="curve" smooth="yes"/>
			<point x="329" y="719"/>
			<point x="295" y="751"/>
			<point x="249" y="751" type="curve" smooth="yes"/>
			<point x="199" y="751"/>
			<point x="152" y="713"/>
			<point x="152" y="657" type="curve" smooth="yes"/>
			<point x="152" y="610"/>
			<point x="192" y="581"/>
		</contour>
		<contour>
			<point x="151" y="-232" type="curve" smooth="yes"/>
			<point x="211" y="-232"/>
			<point x="248" y="-205"/>
			<point x="276" y="-178" type="curve"/>
			<point x="259" y="-146" type="line"/>
			<point x="243" y="-155"/>
			<point x="228" y="-161"/>
			<point x="211" y="-161" type="curve" smooth="yes"/>
			<point x="186" y="-161"/>
			<point x="168" y="-145"/>
			<point x="168" y="-115" type="curve" smooth="yes"/>
			<point x="168" y="-79"/>
			<point x="188" y="-37"/>
			<point x="247" y="25" type="curve" smooth="yes"/>
			<point x="276" y="55"/>
			<point x="302" y="86"/>
			<point x="322" y="121" type="curve"/>
			<point x="289" y="142" type="line"/>
			<point x="259" y="102"/>
			<point x="241" y="84"/>
			<point x="227" y="84" type="curve" smooth="yes"/>
			<point x="218" y="84"/>
			<point x="212" y="91"/>
			<point x="212" y="104" type="curve" smooth="yes"/>
			<point x="212" y="114"/>
			<point x="214" y="125"/>
			<point x="218" y="141" type="curve" smooth="yes"/>
			<point x="295" y="490" type="line"/>
			<point x="278" y="505" type="line"/>
			<point x="50" y="446" type="line"/>
			<point x="43" y="405" type="line"/>
			<point x="130" y="384" type="line"/>
			<point x="106" y="417" type="line"/>
			<point x="54" y="165" type="line" smooth="yes"/>
			<point x="49" y="139"/>
			<point x="38" y="88"/>
			<point x="38" y="56" type="curve" smooth="yes"/>
			<point x="38" y="10"/>
			<point x="70" y="-16"/>
			<point x="124" y="-16" type="curve" smooth="yes"/>
			<point x="141" y="-16"/>
			<point x="155" y="-13"/>
			<point x="160" y="-11" type="curve"/>
			<point x="160" y="-12" type="line"/>
			<point x="101" y="-65"/>
			<point x="62" y="-109"/>
			<point x="62" y="-157" type="curve" smooth="yes"/>
			<point x="62" y="-202"/>
			<point x="93" y="-232"/>
		</contour>
	</outline>
</glyph>
<glyph name="dotlessi" format="2">
	<unicode hex="0131"/>
	<advance width="325"/>
	<outline>
		<contour>
			<point x="38" y="56" type="curve" smooth="yes"/>
			<point x="38" y="10"/>
			<point x="70" y="-16"/>
			<point x="124" y="-16" type="curve" smooth="yes"/>
			<point x="216" y="-16"/>
			<point x="284" y="51"/>
			<point x="322" y="121" type="curve"/>
			<point x="289" y="142" type="line"/>
			<point x="259" y="102"/>
			<point x="241" y="84"/>
			<point x="227" y="84" type="curve" smooth="yes"/>
			<point x="218" y="84"/>
			<point x="212" y="91"/>
			<point x="212" y="104" type="curve" smooth="yes"/>
			<point x="212" y="114"/>
			<point x="214" y="125"/>
			<point x="218" y="141" type="curve" smooth="yes"/>
			<point x="295" y="490" type="line"/>
			<point x="278" y="505" type="line"/>
			<point x="50" y="446" type="line"/>
			<point x="43" y="405" type="line"/>
			<point x="130" y="384" type="line"/>
			<point x="106" y="417" type="line"/>
			<point x="54" y="165" type="line" smooth="yes"/>
			<point x="49" y="139"/>
			<point x="38" y="88"/>
		</contour>
	</outline>
	<anchor name="aboveLC" x="202" y="507"/>
	<anchor name="belowLC" x="132" y="-20"/>
	<anchor name="ogonek" x="181" y="0"/>
</glyph>
<glyph name="kgreenlandic" format="2">
	<unicode hex="0138"/>
	<advance width="550"/>
	<outline>
		<contour>
			<point x="36" y="-8" type="line"/>
			<point x="191" y="0" type="line"/>
			<point x="205" y="73"/>
			<point x="218" y="144"/>
			<point x="234" y="216" type="curve" smooth="yes"/>
			<point x="266" y="364" type="line"/>
			<point x="289" y="487" type="line"/>
			<point x="268" y="505" type="line"/>
			<point x="50" y="446" type="line"/>
			<point x="43" y="405" type="line"/>
			<point x="172" y="380" type="line"/>
			<point x="105" y="415" type="line"/>
			<point x="20" y="5" type="line"/>
		</contour>
		<contour>
			<point x="437" y="-16" type="curve" smooth="yes"/>
			<point x="477" y="-16"/>
			<point x="513" y="-10"/>
			<point x="541" y="0" type="curve"/>
			<point x="547" y="36" type="line"/>
			<point x="527" y="40" type="line" smooth="yes"/>
			<point x="505" y="44"/>
			<point x="497" y="59"/>
			<point x="478" y="91" type="curve" smooth="yes"/>
			<point x="448" y="140" type="line" smooth="yes"/>
			<point x="410" y="203"/>
			<point x="371" y="238"/>
			<point x="303" y="242" type="curve" smooth="yes"/>
			<point x="237" y="246" type="line"/>
			<point x="233" y="238" type="line"/>
			<point x="450" y="319" type="line" smooth="yes"/>
			<point x="527" y="348"/>
			<point x="561" y="364"/>
			<point x="561" y="412" type="curve" smooth="yes"/>
			<point x="561" y="456"/>
			<point x="529" y="489"/>
			<point x="482" y="497" type="curve"/>
			<point x="218" y="240" type="line"/>
			<point x="216" y="231" type="line"/>
			<point x="223" y="228" type="line" smooth="yes"/>
			<point x="247" y="218"/>
			<point x="245" y="206"/>
			<point x="267" y="154" type="curve" smooth="yes"/>
			<point x="295" y="89" type="line" smooth="yes"/>
			<point x="329" y="10"/>
			<point x="367" y="-16"/>
		</contour>
	</outline>
</glyph>
<glyph name="Lslash" format="2">
	<unicode hex="0141"/>
	<advance width="564"/>
	<outline>
		<contour>
			<point x="439" y="471" type="line"/>
			<point x="235" y="375" type="line"/>
			<point x="218" y="283" type="line"/>
			<point x="422" y="379" type="line"/>
		</contour>
		<contour>
			<point x="193" y="364" type="line"/>
			<point x="15" y="281" type="line"/>
			<point x="-2" y="189" type="line"/>
			<point x="175" y="272" type="line"/>
		</contour>
		<component base="L"/>
	</outline>
</glyph>
<glyph name="lslash" format="2">
	<unicode hex="0142"/>
	<advance width="318"/>
	<outline>
		<contour>
			<point x="233" y="440" type="line"/>
			<point x="16" y="329" type="line"/>
			<point x="-1" y="245" type="line"/>
			<point x="216" y="356" type="line"/>
		</contour>
		<contour>
			<point x="357" y="487" type="line"/>
			<point x="134" y="373" type="line"/>
			<point x="117" y="289" type="line"/>
			<point x="340" y="403" type="line"/>
		</contour>
		<component base="l"/>
	</outline>
</glyph>
<glyph name="Eng" format="2">
	<unicode hex="014A"/>
	<advance width="690"/>
	<outline>
		<contour>
			<point x="-38" y="0" type="line"/>
			<point x="224" y="0" type="line"/>
			<point x="235" y="59" type="line"/>
			<point x="109" y="74" type="line"/>
			<point x="78" y="74" type="line"/>
			<point x="-27" y="59" type="line"/>
		</contour>
		<contour>
			<point x="43" y="0" type="line"/>
			<point x="110" y="0" type="line"/>
			<point x="172" y="326" type="line"/>
			<point x="231" y="640" type="line"/>
			<point x="165" y="640" type="line"/>
		</contour>
		<contour>
			<point x="288" y="-152" type="curve" smooth="yes"/>
			<point x="340" y="-152"/>
			<point x="395" y="-132"/>
			<point x="460" y="-63" type="curve" smooth="yes"/>
			<point x="512" y="-9"/>
			<point x="544" y="53"/>
			<point x="567" y="185" type="curve" smooth="yes"/>
			<point x="649" y="652" type="line"/>
			<point x="583" y="652" type="line"/>
			<point x="528" y="326" type="line"/>
			<point x="502" y="187" type="line" smooth="yes"/>
			<point x="472" y="29"/>
			<point x="430" y="-56"/>
			<point x="350" y="-95" type="curve"/>
			<point x="350" y="-106" type="line"/>
			<point x="384" y="-106" type="line"/>
			<point x="384" y="-90" type="line"/>
			<point x="339" y="-47" type="line" smooth="yes"/>
			<point x="310" y="-20"/>
			<point x="293" y="-11"/>
			<point x="258" y="-11" type="curve" smooth="yes"/>
			<point x="224" y="-11"/>
			<point x="188" y="-29"/>
			<point x="180" y="-78" type="curve"/>
			<point x="188" y="-125"/>
			<point x="226" y="-152"/>
		</contour>
		<contour>
			<point x="430" y="0" type="line"/>
			<point x="482" y="0" type="line"/>
			<point x="552" y="178" type="line"/>
			<point x="538" y="178" type="line"/>
			<point x="299" y="652" type="line"/>
			<point x="80" y="652" type="line"/>
			<point x="68" y="592" type="line"/>
			<point x="139" y="587" type="line"/>
			<point x="166" y="532" type="line"/>
			<point x="171" y="521" type="line"/>
		</contour>
		<contour>
			<point x="594" y="578" type="line"/>
			<point x="624" y="578" type="line"/>
			<point x="723" y="593" type="line"/>
			<point x="735" y="652" type="line"/>
			<point x="473" y="652" type="line"/>
			<point x="461" y="593" type="line"/>
		</contour>
	</outline>
	<guideline x="526" y="326" angle="0" identifier="JKHeSk6Pq4"/>
</glyph>
<glyph name="OE" format="2">
	<unicode hex="0152"/>
	<advance width="885"/>
	<outline>
		<contour>
			<point x="435" y="0" type="curve"/>
			<point x="434" y="58" type="line"/>
			<point x="397" y="45"/>
			<point x="356" y="40"/>
			<point x="336" y="40" type="curve" smooth="yes"/>
			<point x="270" y="40"/>
			<point x="200" y="108"/>
			<point x="200" y="236" type="curve" smooth="yes"/>
			<point x="200" y="450"/>
			<point x="305" y="612"/>
			<point x="437" y="612" type="curve" smooth="yes"/>
			<point x="481" y="612"/>
			<point x="496" y="606"/>
			<point x="549" y="593" type="curve"/>
			<point x="564" y="652" type="line"/>
			<point x="513" y="667"/>
			<point x="480" y="672"/>
			<point x="444" y="672" type="curve" smooth="yes"/>
			<point x="189" y="672"/>
			<point x="17" y="463"/>
			<point x="17" y="263" type="curve" smooth="yes"/>
			<point x="17" y="65"/>
			<point x="138" y="-20"/>
			<point x="305" y="-20" type="curve" smooth="yes"/>
			<point x="361" y="-20"/>
			<point x="392" y="-13"/>
		</contour>
		<contour>
			<point x="343" y="0" type="line"/>
			<point x="522" y="0" type="line"/>
			<point x="539" y="103"/>
			<point x="558" y="207"/>
			<point x="578" y="311" type="curve" smooth="yes"/>
			<point x="643" y="652" type="line"/>
			<point x="463" y="652" type="line"/>
			<point x="446" y="549"/>
			<point x="428" y="445"/>
			<point x="408" y="342" type="curve" smooth="yes"/>
		</contour>
		<contour>
			<point x="430" y="0" type="line"/>
			<point x="797" y="0" type="line"/>
			<point x="837" y="170" type="line"/>
			<point x="747" y="170" type="line"/>
			<point x="686" y="0" type="line"/>
			<point x="777" y="58" type="line"/>
			<point x="441" y="58" type="line"/>
		</contour>
		<contour>
			<point x="488" y="304" type="line"/>
			<point x="697" y="304" type="line"/>
			<point x="709" y="367" type="line"/>
			<point x="500" y="367" type="line"/>
		</contour>
		<contour>
			<point x="542" y="593" type="line"/>
			<point x="844" y="593" type="line"/>
			<point x="776" y="652" type="line"/>
			<point x="771" y="482" type="line"/>
			<point x="861" y="482" type="line"/>
			<point x="887" y="652" type="line"/>
			<point x="554" y="652" type="line"/>
		</contour>
		<contour>
			<point x="670" y="225" type="line"/>
			<point x="730" y="225" type="line"/>
			<point x="769" y="442" type="line"/>
			<point x="709" y="442" type="line"/>
			<point x="678" y="350" type="line"/>
			<point x="674" y="332" type="line"/>
		</contour>
	</outline>
	<anchor name="aboveUC" x="562" y="672"/>
</glyph>
<glyph name="oe" format="2">
	<unicode hex="0153"/>
	<advance width="815"/>
	<outline>
		<contour>
			<point x="242" y="-16" type="curve" smooth="yes"/>
			<point x="330" y="-16"/>
			<point x="402" y="36"/>
			<point x="449" y="124" type="curve"/>
			<point x="387" y="139" type="line"/>
			<point x="383" y="49"/>
			<point x="464" y="-16"/>
			<point x="555" y="-16" type="curve" smooth="yes"/>
			<point x="669" y="-16"/>
			<point x="756" y="64"/>
			<point x="801" y="153" type="curve"/>
			<point x="771" y="174" type="line"/>
			<point x="738" y="133"/>
			<point x="692" y="101"/>
			<point x="635" y="101" type="curve" smooth="yes"/>
			<point x="574" y="101"/>
			<point x="537" y="140"/>
			<point x="537" y="215" type="curve" smooth="yes"/>
			<point x="537" y="336"/>
			<point x="612" y="444"/>
			<point x="666" y="444" type="curve" smooth="yes"/>
			<point x="682" y="444"/>
			<point x="696" y="430"/>
			<point x="696" y="399" type="curve" smooth="yes"/>
			<point x="696" y="334"/>
			<point x="645" y="250"/>
			<point x="462" y="204" type="curve"/>
			<point x="464" y="167" type="line"/>
			<point x="700" y="209"/>
			<point x="832" y="287"/>
			<point x="832" y="389" type="curve" smooth="yes"/>
			<point x="832" y="456"/>
			<point x="777" y="503"/>
			<point x="684" y="503" type="curve" smooth="yes"/>
			<point x="594" y="503"/>
			<point x="512" y="452"/>
			<point x="466" y="373" type="curve"/>
			<point x="531" y="381" type="line"/>
			<point x="498" y="468"/>
			<point x="429" y="503"/>
			<point x="349" y="503" type="curve" smooth="yes"/>
			<point x="172" y="503"/>
			<point x="44" y="343"/>
			<point x="44" y="181" type="curve" smooth="yes"/>
			<point x="44" y="43"/>
			<point x="121" y="-16"/>
		</contour>
		<contour>
			<point x="261" y="44" type="curve" smooth="yes"/>
			<point x="235" y="44"/>
			<point x="214" y="62"/>
			<point x="214" y="139" type="curve" smooth="yes"/>
			<point x="214" y="269"/>
			<point x="262" y="443"/>
			<point x="335" y="443" type="curve" smooth="yes"/>
			<point x="363" y="443"/>
			<point x="382" y="424"/>
			<point x="382" y="354" type="curve" smooth="yes"/>
			<point x="382" y="212"/>
			<point x="332" y="44"/>
		</contour>
	</outline>
	<anchor name="aboveLC" x="513" y="520"/>
</glyph>
<glyph name="Uogonek" format="2">
	<unicode hex="0172"/>
	<advance width="677"/>
	<outline>
		<contour>
			<point x="67" y="183" type="curve" smooth="yes"/>
			<point x="67" y="44"/>
			<point x="160" y="-20"/>
			<point x="306" y="-20" type="curve" smooth="yes"/>
			<point x="335" y="-20"/>
			<point x="360" y="-17"/>
			<point x="381" y="-10" type="curve"/>
			<point x="381" y="-11" type="line"/>
			<point x="321" y="-64"/>
			<point x="282" y="-108"/>
			<point x="282" y="-157" type="curve" smooth="yes"/>
			<point x="282" y="-202"/>
			<point x="313" y="-232"/>
			<point x="371" y="-232" type="curve" smooth="yes"/>
			<point x="431" y="-232"/>
			<point x="468" y="-205"/>
			<point x="496" y="-178" type="curve"/>
			<point x="479" y="-146" type="line"/>
			<point x="463" y="-155"/>
			<point x="448" y="-161"/>
			<point x="431" y="-161" type="curve" smooth="yes"/>
			<point x="406" y="-161"/>
			<point x="388" y="-145"/>
			<point x="388" y="-115" type="curve" smooth="yes"/>
			<point x="388" y="-76"/>
			<point x="415" y="-23"/>
			<point x="474" y="34" type="curve" smooth="yes"/>
			<point x="528" y="86"/>
			<point x="567" y="151"/>
			<point x="587" y="260" type="curve" smooth="yes"/>
			<point x="659" y="652" type="line"/>
			<point x="590" y="652" type="line"/>
			<point x="516" y="256" type="line" smooth="yes"/>
			<point x="491" y="126"/>
			<point x="438" y="72"/>
			<point x="370" y="72" type="curve" smooth="yes"/>
			<point x="290" y="72"/>
			<point x="257" y="116"/>
			<point x="257" y="189" type="curve" smooth="yes"/>
			<point x="257" y="215"/>
			<point x="260" y="246"/>
			<point x="267" y="281" type="curve" smooth="yes"/>
			<point x="339" y="652" type="line"/>
			<point x="143" y="652" type="line"/>
			<point x="128" y="553"/>
			<point x="108" y="453"/>
			<point x="91" y="356" type="curve" smooth="yes"/>
			<point x="75" y="265" type="line" smooth="yes"/>
			<point x="70" y="235"/>
			<point x="67" y="208"/>
		</contour>
		<contour>
			<point x="68" y="593" type="line"/>
			<point x="215" y="578" type="line"/>
			<point x="246" y="578" type="line"/>
			<point x="398" y="593" type="line"/>
			<point x="409" y="652" type="line"/>
			<point x="79" y="652" type="line"/>
		</contour>
		<contour>
			<point x="497" y="593" type="line"/>
			<point x="597" y="586" type="line"/>
			<point x="628" y="586" type="line"/>
			<point x="725" y="593" type="line"/>
			<point x="736" y="652" type="line"/>
			<point x="508" y="652" type="line"/>
		</contour>
	</outline>
	<anchor name="aboveUC" x="456" y="672"/>
</glyph>
<glyph name="uogonek" format="2">
	<unicode hex="0173"/>
	<advance width="598"/>
	<outline>
		<contour>
			<point x="131" y="-16" type="curve" smooth="yes"/>
			<point x="203" y="-16"/>
			<point x="286" y="32"/>
			<point x="353" y="124" type="curve"/>
			<point x="364" y="124" type="line"/>
			<point x="345" y="158" type="line"/>
			<point x="308" y="116"/>
			<point x="275" y="100"/>
			<point x="247" y="100" type="curve" smooth="yes"/>
			<point x="229" y="100"/>
			<point x="213" y="109"/>
			<point x="213" y="139" type="curve" smooth="yes"/>
			<point x="213" y="158"/>
			<point x="218" y="176"/>
			<point x="223" y="196" type="curve" smooth="yes"/>
			<point x="293" y="487" type="line"/>
			<point x="274" y="505" type="line"/>
			<point x="49" y="446" type="line"/>
			<point x="42" y="405" type="line"/>
			<point x="132" y="385" type="line"/>
			<point x="109" y="417" type="line"/>
			<point x="48" y="156" type="line" smooth="yes"/>
			<point x="41" y="125"/>
			<point x="37" y="98"/>
			<point x="37" y="73" type="curve" smooth="yes"/>
			<point x="37" y="18"/>
			<point x="80" y="-16"/>
		</contour>
		<contour>
			<point x="340" y="-157" type="curve" smooth="yes"/>
			<point x="340" y="-202"/>
			<point x="371" y="-232"/>
			<point x="429" y="-232" type="curve" smooth="yes"/>
			<point x="489" y="-232"/>
			<point x="526" y="-205"/>
			<point x="554" y="-178" type="curve"/>
			<point x="537" y="-146" type="line"/>
			<point x="521" y="-155"/>
			<point x="506" y="-161"/>
			<point x="489" y="-161" type="curve" smooth="yes"/>
			<point x="464" y="-161"/>
			<point x="446" y="-145"/>
			<point x="446" y="-115" type="curve" smooth="yes"/>
			<point x="446" y="-79"/>
			<point x="467" y="-38"/>
			<point x="524" y="25" type="curve" smooth="yes"/>
			<point x="551" y="55"/>
			<point x="579" y="87"/>
			<point x="597" y="121" type="curve"/>
			<point x="564" y="142" type="line"/>
			<point x="534" y="102"/>
			<point x="517" y="84"/>
			<point x="503" y="84" type="curve" smooth="yes"/>
			<point x="494" y="84"/>
			<point x="488" y="91"/>
			<point x="488" y="104" type="curve" smooth="yes"/>
			<point x="488" y="114"/>
			<point x="490" y="125"/>
			<point x="494" y="141" type="curve" smooth="yes"/>
			<point x="573" y="487" type="line"/>
			<point x="551" y="505" type="line"/>
			<point x="390" y="454" type="line"/>
			<point x="382" y="409"/>
			<point x="374" y="366"/>
			<point x="365" y="323" type="curve" smooth="yes"/>
			<point x="332" y="173" type="line"/>
			<point x="328" y="154" type="line" smooth="yes"/>
			<point x="324" y="133"/>
			<point x="321" y="110"/>
			<point x="321" y="91" type="curve" smooth="yes"/>
			<point x="321" y="23"/>
			<point x="357" y="-16"/>
			<point x="408" y="-16" type="curve" smooth="yes"/>
			<point x="425" y="-16"/>
			<point x="433" y="-14"/>
			<point x="465" y="-3" type="curve"/>
			<point x="437" y="18" type="line"/>
			<point x="437" y="-13" type="line"/>
			<point x="378" y="-66"/>
			<point x="340" y="-109"/>
		</contour>
	</outline>
	<anchor name="aboveLC" x="348" y="507"/>
	<anchor name="belowLC" x="284" y="-20"/>
</glyph>
<glyph name="longs" format="2">
	<unicode hex="017F"/>
	<advance width="352"/>
	<outline>
		<contour>
			<point x="388" y="731" type="curve" smooth="yes"/>
			<point x="251.5771552572" y="731"/>
			<point x="152" y="632"/>
			<point x="127" y="440" type="curve" smooth="yes"/>
			<point x="76" y="52" type="line" smooth="yes"/>
			<point x="68" y="-6"/>
			<point x="58" y="-63"/>
			<point x="43" y="-115" type="curve" smooth="yes"/>
			<point x="33" y="-151"/>
			<point x="21" y="-174"/>
			<point x="7" y="-197" type="curve"/>
			<point x="7" y="-203" type="line"/>
			<point x="24" y="-195" type="line"/>
			<point x="-10" y="-141" type="line" smooth="yes"/>
			<point x="-33" y="-104"/>
			<point x="-61" y="-81"/>
			<point x="-97" y="-81" type="curve" smooth="yes"/>
			<point x="-138" y="-81"/>
			<point x="-158" y="-110"/>
			<point x="-163" y="-149" type="curve"/>
			<point x="-134" y="-213"/>
			<point x="-78" y="-232"/>
			<point x="-13" y="-232" type="curve" smooth="yes"/>
			<point x="37" y="-232"/>
			<point x="103" y="-204"/>
			<point x="144" y="-158" type="curve" smooth="yes"/>
			<point x="189" y="-108"/>
			<point x="227" y="-18"/>
			<point x="240" y="75" type="curve" smooth="yes"/>
			<point x="302" y="513" type="line" smooth="yes"/>
			<point x="318" y="623"/>
			<point x="333" y="680"/>
			<point x="362" y="699" type="curve"/>
			<point x="384" y="711" type="line"/>
			<point x="338" y="699" type="line"/>
			<point x="373" y="635" type="line" smooth="yes"/>
			<point x="390" y="605"/>
			<point x="416" y="583"/>
			<point x="448" y="583" type="curve" smooth="yes"/>
			<point x="483" y="583"/>
			<point x="523" y="614"/>
			<point x="526" y="653" type="curve"/>
			<point x="513" y="701"/>
			<point x="451" y="731"/>
		</contour>
	</outline>
</glyph>
<glyph name="Schwa" format="2">
	<unicode hex="018F"/>
	<advance width="630"/>
	<outline>
		<contour>
			<point x="264" y="-20" type="curve" smooth="yes"/>
			<point x="472" y="-20"/>
			<point x="621" y="178"/>
			<point x="621" y="398" type="curve" smooth="yes"/>
			<point x="621" y="572"/>
			<point x="521" y="672"/>
			<point x="365" y="672" type="curve" smooth="yes"/>
			<point x="288" y="672"/>
			<point x="202" y="648"/>
			<point x="133" y="582" type="curve"/>
			<point x="174" y="530" type="line"/>
			<point x="233" y="573"/>
			<point x="281" y="590"/>
			<point x="329" y="590" type="curve" smooth="yes"/>
			<point x="391" y="590"/>
			<point x="441" y="551"/>
			<point x="441" y="445" type="curve" smooth="yes"/>
			<point x="441" y="150"/>
			<point x="331" y="40"/>
			<point x="272" y="40" type="curve" smooth="yes"/>
			<point x="225" y="40"/>
			<point x="201" y="76"/>
			<point x="201" y="159" type="curve" smooth="yes"/>
			<point x="201" y="214"/>
			<point x="207" y="262"/>
			<point x="217" y="299" type="curve"/>
			<point x="508" y="299" type="line"/>
			<point x="522" y="361" type="line"/>
			<point x="39" y="361" type="line"/>
			<point x="30" y="320"/>
			<point x="22" y="284"/>
			<point x="22" y="221" type="curve" smooth="yes"/>
			<point x="22" y="82"/>
			<point x="95" y="-20"/>
		</contour>
	</outline>
	<anchor name="aboveUC" x="365" y="672"/>
	<anchor name="belowLC" x="265" y="-20"/>
</glyph>
<glyph name="Uhorn" format="2">
	<unicode hex="01AF"/>
	<advance width="677"/>
	<outline>
		<contour>
			<point x="67" y="183" type="curve" smooth="yes"/>
			<point x="67" y="44"/>
			<point x="160" y="-20"/>
			<point x="306" y="-20" type="curve" smooth="yes"/>
			<point x="453" y="-20"/>
			<point x="551" y="66"/>
			<point x="587" y="260" type="curve" smooth="yes"/>
			<point x="659" y="652" type="line"/>
			<point x="590" y="652" type="line"/>
			<point x="516" y="256" type="line" smooth="yes"/>
			<point x="491" y="126"/>
			<point x="438" y="72"/>
			<point x="370" y="72" type="curve" smooth="yes"/>
			<point x="290" y="72"/>
			<point x="257" y="116"/>
			<point x="257" y="189" type="curve" smooth="yes"/>
			<point x="257" y="215"/>
			<point x="260" y="246"/>
			<point x="267" y="281" type="curve" smooth="yes"/>
			<point x="339" y="652" type="line"/>
			<point x="143" y="652" type="line"/>
			<point x="128" y="553"/>
			<point x="108" y="453"/>
			<point x="91" y="356" type="curve" smooth="yes"/>
			<point x="75" y="265" type="line" smooth="yes"/>
			<point x="70" y="235"/>
			<point x="67" y="208"/>
		</contour>
		<contour>
			<point x="619" y="606" type="line"/>
			<point x="710" y="606"/>
			<point x="800" y="663"/>
			<point x="800" y="768" type="curve" smooth="yes"/>
			<point x="800" y="782"/>
			<point x="799" y="797"/>
			<point x="795" y="809" type="curve"/>
			<point x="782" y="822"/>
			<point x="768" y="827"/>
			<point x="747" y="827" type="curve" smooth="yes"/>
			<point x="703" y="827"/>
			<point x="681" y="793"/>
			<point x="681" y="761" type="curve" smooth="yes"/>
			<point x="681" y="720"/>
			<point x="707" y="720"/>
			<point x="707" y="692" type="curve" smooth="yes"/>
			<point x="707" y="660"/>
			<point x="676" y="652"/>
			<point x="619" y="652" type="curve"/>
		</contour>
		<contour>
			<point x="68" y="593" type="line"/>
			<point x="215" y="578" type="line"/>
			<point x="246" y="578" type="line"/>
			<point x="398" y="593" type="line"/>
			<point x="409" y="652" type="line"/>
			<point x="79" y="652" type="line"/>
		</contour>
		<contour>
			<point x="497" y="593" type="line"/>
			<point x="597" y="586" type="line"/>
			<point x="613" y="586" type="line"/>
			<point x="625" y="652" type="line"/>
			<point x="508" y="652" type="line"/>
		</contour>
	</outline>
	<anchor name="aboveUC" x="456" y="672"/>
	<anchor name="belowLC" x="300" y="-20"/>
</glyph>
<glyph name="schwa" format="2">
	<unicode hex="0259"/>
	<advance width="504"/>
	<outline>
		<contour>
			<point x="174" y="-16" type="curve" smooth="yes"/>
			<point x="355" y="-16"/>
			<point x="485" y="136"/>
			<point x="485" y="314" type="curve" smooth="yes"/>
			<point x="485" y="427"/>
			<point x="411" y="503"/>
			<point x="300" y="503" type="curve" smooth="yes"/>
			<point x="180" y="503"/>
			<point x="94" y="418"/>
			<point x="54" y="339" type="curve"/>
			<point x="84" y="318" type="line"/>
			<point x="119" y="362"/>
			<point x="171" y="395"/>
			<point x="234" y="395" type="curve" smooth="yes"/>
			<point x="295" y="395"/>
			<point x="332" y="356"/>
			<point x="332" y="281" type="curve" smooth="yes"/>
			<point x="332" y="156"/>
			<point x="247" y="44"/>
			<point x="193" y="44" type="curve" smooth="yes"/>
			<point x="170" y="44"/>
			<point x="156" y="60"/>
			<point x="156" y="97" type="curve" smooth="yes"/>
			<point x="156" y="162"/>
			<point x="207" y="246"/>
			<point x="390" y="292" type="curve"/>
			<point x="388" y="329" type="line"/>
			<point x="152" y="287"/>
			<point x="20" y="209"/>
			<point x="20" y="107" type="curve" smooth="yes"/>
			<point x="20" y="35"/>
			<point x="75" y="-16"/>
		</contour>
	</outline>
	<anchor name="aboveLC" x="329" y="507"/>
	<anchor name="belowLC" x="226" y="-20"/>
</glyph>
<glyph name="gscript" format="2">
	<unicode hex="0261"/>
	<advance width="560"/>
	<outline>
		<contour>
			<point x="159" y="-232" type="curve" smooth="yes"/>
			<point x="224" y="-232"/>
			<point x="324" y="-223"/>
			<point x="393" y="-154" type="curve" smooth="yes"/>
			<point x="446" y="-101"/>
			<point x="466" y="-16"/>
			<point x="486" y="130" type="curve"/>
			<point x="531" y="358" type="line"/>
			<point x="561" y="490" type="line"/>
			<point x="546" y="504" type="line"/>
			<point x="387" y="441" type="line"/>
			<point x="377" y="437" type="line"/>
			<point x="320" y="122" type="line"/>
			<point x="319" y="117" type="line"/>
			<point x="306" y="-26"/>
			<point x="281" y="-93"/>
			<point x="240" y="-134" type="curve" smooth="yes"/>
			<point x="211" y="-163"/>
			<point x="165" y="-181"/>
			<point x="117" y="-181" type="curve" smooth="yes"/>
			<point x="102" y="-181"/>
			<point x="88" y="-178"/>
			<point x="76" y="-175" type="curve"/>
			<point x="146" y="-207" type="line"/>
			<point x="135" y="-142" type="line" smooth="yes"/>
			<point x="121" y="-57"/>
			<point x="94" y="-46"/>
			<point x="50" y="-46" type="curve" smooth="yes"/>
			<point x="2" y="-46"/>
			<point x="-15" y="-81"/>
			<point x="-22" y="-111" type="curve"/>
			<point x="-7" y="-189"/>
			<point x="31" y="-232"/>
		</contour>
		<contour>
			<point x="138" y="0" type="curve" smooth="yes"/>
			<point x="205" y="0"/>
			<point x="281" y="55"/>
			<point x="337" y="126" type="curve"/>
			<point x="346" y="126" type="line"/>
			<point x="332" y="162" type="line"/>
			<point x="312" y="142"/>
			<point x="281" y="116"/>
			<point x="253" y="116" type="curve" smooth="yes"/>
			<point x="220" y="116"/>
			<point x="200" y="140"/>
			<point x="200" y="204" type="curve" smooth="yes"/>
			<point x="200" y="263"/>
			<point x="230" y="364"/>
			<point x="273" y="402" type="curve" smooth="yes"/>
			<point x="293" y="420"/>
			<point x="309" y="426"/>
			<point x="327" y="426" type="curve" smooth="yes"/>
			<point x="351" y="426"/>
			<point x="375" y="418"/>
			<point x="398" y="403" type="curve"/>
			<point x="478" y="462" type="line"/>
			<point x="449" y="490"/>
			<point x="413" y="503"/>
			<point x="375" y="503" type="curve" smooth="yes"/>
			<point x="221" y="503"/>
			<point x="29" y="320"/>
			<point x="29" y="148" type="curve" smooth="yes"/>
			<point x="29" y="37"/>
			<point x="81" y="0"/>
		</contour>
	</outline>
	<anchor name="aboveLC" x="376" y="507"/>
	<anchor name="belowLC" x="168" y="-242"/>
</glyph>
<glyph name="h.sups" format="2">
	<unicode hex="02B0"/>
	<advance width="395"/>
	<outline>
		<contour>
			<point x="84" y="401" type="line"/>
			<point x="178" y="406" type="line"/>
			<point x="227" y="640" type="line"/>
			<point x="227" y="650" type="line"/>
			<point x="272" y="858" type="line"/>
			<point x="262" y="866" type="line"/>
			<point x="117" y="828" type="line"/>
			<point x="114" y="803" type="line"/>
			<point x="200" y="789" type="line"/>
			<point x="158" y="811" type="line"/>
			<point x="73" y="409" type="line"/>
		</contour>
		<contour>
			<point x="321" y="396" type="curve" smooth="yes"/>
			<point x="380" y="396"/>
			<point x="427" y="439"/>
			<point x="452" y="483" type="curve"/>
			<point x="431" y="497" type="line"/>
			<point x="411" y="470"/>
			<point x="396" y="458"/>
			<point x="386" y="458" type="curve" smooth="yes"/>
			<point x="374" y="458"/>
			<point x="374" y="470"/>
			<point x="381" y="496" type="curve" smooth="yes"/>
			<point x="412" y="619" type="line" smooth="yes"/>
			<point x="417" y="639"/>
			<point x="419" y="657"/>
			<point x="419" y="673" type="curve" smooth="yes"/>
			<point x="419" y="711"/>
			<point x="395" y="729"/>
			<point x="366" y="729" type="curve" smooth="yes"/>
			<point x="319" y="729"/>
			<point x="266" y="698"/>
			<point x="215" y="644" type="curve"/>
			<point x="199" y="644" type="line"/>
			<point x="216" y="614" type="line"/>
			<point x="246" y="645"/>
			<point x="273" y="658"/>
			<point x="293" y="658" type="curve" smooth="yes"/>
			<point x="302" y="658"/>
			<point x="309" y="652"/>
			<point x="309" y="640" type="curve" smooth="yes"/>
			<point x="309" y="630"/>
			<point x="306" y="613"/>
			<point x="301" y="594" type="curve" smooth="yes"/>
			<point x="278" y="502" type="line" smooth="yes"/>
			<point x="273" y="484"/>
			<point x="267" y="460"/>
			<point x="267" y="440" type="curve" smooth="yes"/>
			<point x="267" y="412"/>
			<point x="287" y="396"/>
		</contour>
	</outline>
</glyph>
<glyph name="j.sups" format="2">
	<unicode hex="02B2"/>
	<advance width="208"/>
	<outline>
		<contour>
			<point x="220" y="793" type="curve" smooth="yes"/>
			<point x="252" y="793"/>
			<point x="281" y="817"/>
			<point x="281" y="851" type="curve" smooth="yes"/>
			<point x="281" y="879"/>
			<point x="259" y="899"/>
			<point x="229" y="899" type="curve" smooth="yes"/>
			<point x="197" y="899"/>
			<point x="168" y="875"/>
			<point x="168" y="840" type="curve" smooth="yes"/>
			<point x="168" y="811"/>
			<point x="194" y="793"/>
		</contour>
		<contour>
			<point x="12" y="264" type="line"/>
			<point x="71" y="267"/>
			<point x="113" y="291"/>
			<point x="140" y="323" type="curve" smooth="yes"/>
			<point x="164" y="353"/>
			<point x="182" y="393"/>
			<point x="196" y="462" type="curve" smooth="yes"/>
			<point x="249" y="729" type="line"/>
			<point x="236" y="739" type="line"/>
			<point x="94" y="701" type="line"/>
			<point x="89" y="675" type="line"/>
			<point x="175" y="661" type="line"/>
			<point x="134" y="683" type="line"/>
			<point x="90" y="448" type="line" smooth="yes"/>
			<point x="78" y="382"/>
			<point x="70" y="344"/>
			<point x="56" y="323" type="curve" smooth="yes"/>
			<point x="43" y="303"/>
			<point x="28" y="294"/>
			<point x="8" y="286" type="curve"/>
		</contour>
	</outline>
</glyph>
<glyph name="r.sups" format="2">
	<unicode hex="02B3"/>
	<advance width="317"/>
	<outline>
		<contour>
			<point x="213" y="555" type="line"/>
			<point x="232" y="600"/>
			<point x="256" y="645"/>
			<point x="303" y="691" type="curve"/>
			<point x="303" y="693" type="line"/>
			<point x="272" y="691" type="line"/>
			<point x="304" y="656"/>
			<point x="317" y="645"/>
			<point x="341" y="645" type="curve" smooth="yes"/>
			<point x="372" y="645"/>
			<point x="388" y="671"/>
			<point x="387" y="703" type="curve"/>
			<point x="380" y="726"/>
			<point x="357" y="738"/>
			<point x="333" y="738" type="curve" smooth="yes"/>
			<point x="285" y="738"/>
			<point x="236" y="673"/>
			<point x="205" y="589" type="curve"/>
			<point x="193" y="589" type="line"/>
		</contour>
		<contour>
			<point x="79" y="418" type="line"/>
			<point x="89" y="410" type="line"/>
			<point x="185" y="415" type="line"/>
			<point x="223" y="610" type="line"/>
			<point x="219" y="612" type="line"/>
			<point x="239" y="728" type="line"/>
			<point x="225" y="739" type="line"/>
			<point x="95" y="701" type="line"/>
			<point x="90" y="675" type="line"/>
			<point x="175" y="661" type="line"/>
			<point x="134" y="682" type="line"/>
		</contour>
	</outline>
</glyph>
<glyph name="w.sups" format="2">
	<unicode hex="02B7"/>
	<advance width="543"/>
	<outline>
		<contour>
			<point x="169" y="406" type="curve"/>
			<point x="239" y="406" type="line"/>
			<point x="270" y="464"/>
			<point x="301" y="527"/>
			<point x="332" y="585" type="curve"/>
			<point x="333" y="588" type="line"/>
			<point x="330" y="588" type="line"/>
			<point x="339" y="529"/>
			<point x="350" y="465"/>
			<point x="359" y="406" type="curve"/>
			<point x="421" y="406" type="line"/>
			<point x="486" y="472"/>
			<point x="540" y="543"/>
			<point x="572" y="600" type="curve" smooth="yes"/>
			<point x="594" y="638"/>
			<point x="600" y="659"/>
			<point x="600" y="678" type="curve" smooth="yes"/>
			<point x="600" y="701"/>
			<point x="597" y="711"/>
			<point x="589" y="722" type="curve"/>
			<point x="581" y="728"/>
			<point x="569" y="732"/>
			<point x="557" y="732" type="curve" smooth="yes"/>
			<point x="523" y="732"/>
			<point x="497" y="714"/>
			<point x="497" y="676" type="curve" smooth="yes"/>
			<point x="497" y="660"/>
			<point x="504" y="644"/>
			<point x="532" y="567" type="curve"/>
			<point x="538" y="621" type="line"/>
			<point x="536" y="617"/>
			<point x="533" y="613"/>
			<point x="531" y="610" type="curve" smooth="yes"/>
			<point x="498" y="556"/>
			<point x="478" y="522"/>
			<point x="451" y="484" type="curve"/>
			<point x="447" y="479" type="line"/>
			<point x="454" y="479" type="line"/>
			<point x="441" y="562"/>
			<point x="430" y="637"/>
			<point x="419" y="713" type="curve"/>
			<point x="353" y="713" type="line"/>
			<point x="321" y="647"/>
			<point x="291" y="580"/>
			<point x="254" y="505" type="curve"/>
			<point x="251" y="499" type="line"/>
			<point x="257" y="499" type="line"/>
			<point x="250" y="561"/>
			<point x="244" y="613"/>
			<point x="239" y="665" type="curve" smooth="yes"/>
			<point x="235" y="708"/>
			<point x="218" y="729"/>
			<point x="182" y="729" type="curve" smooth="yes"/>
			<point x="148" y="729"/>
			<point x="115" y="705"/>
			<point x="77" y="656" type="curve"/>
			<point x="92" y="638" type="line"/>
			<point x="103" y="649"/>
			<point x="113" y="655"/>
			<point x="120" y="655" type="curve" smooth="yes"/>
			<point x="127" y="655"/>
			<point x="133" y="653"/>
			<point x="135" y="637" type="curve" smooth="yes"/>
			<point x="146" y="560"/>
			<point x="158" y="483"/>
		</contour>
	</outline>
</glyph>
<glyph name="y.sups" format="2">
	<unicode hex="02B8"/>
	<advance width="368"/>
	<outline>
		<contour>
			<point x="16" y="326" type="curve"/>
			<point x="16" y="290"/>
			<point x="44" y="271"/>
			<point x="76" y="271" type="curve" smooth="yes"/>
			<point x="114" y="271"/>
			<point x="148" y="293"/>
			<point x="179" y="325" type="curve" smooth="yes"/>
			<point x="215" y="362"/>
			<point x="238" y="390"/>
			<point x="260" y="418" type="curve" smooth="yes"/>
			<point x="298" y="466"/>
			<point x="322" y="506"/>
			<point x="347" y="541" type="curve" smooth="yes"/>
			<point x="368" y="572"/>
			<point x="385" y="603"/>
			<point x="400" y="628" type="curve" smooth="yes"/>
			<point x="416" y="656"/>
			<point x="426" y="675"/>
			<point x="426" y="701" type="curve" smooth="yes"/>
			<point x="426" y="724"/>
			<point x="405" y="739"/>
			<point x="384" y="739" type="curve" smooth="yes"/>
			<point x="346" y="739"/>
			<point x="328" y="716"/>
			<point x="315" y="643" type="curve" smooth="yes"/>
			<point x="300" y="559"/>
			<point x="284" y="512"/>
			<point x="254" y="448" type="curve" smooth="yes"/>
			<point x="252" y="444"/>
			<point x="191" y="380"/>
			<point x="189" y="377" type="curve"/>
			<point x="163" y="350"/>
			<point x="134" y="326"/>
			<point x="102" y="305" type="curve"/>
			<point x="102" y="303" type="line"/>
			<point x="133" y="303" type="line"/>
			<point x="133" y="312" type="line"/>
			<point x="102" y="352"/>
			<point x="88" y="363"/>
			<point x="65" y="363" type="curve" smooth="yes"/>
			<point x="40" y="363"/>
			<point x="21" y="350"/>
		</contour>
		<contour>
			<point x="261" y="451" type="line"/>
			<point x="252" y="524"/>
			<point x="243" y="596"/>
			<point x="234" y="669" type="curve" smooth="yes"/>
			<point x="228" y="717"/>
			<point x="216" y="738"/>
			<point x="180" y="738" type="curve" smooth="yes"/>
			<point x="146" y="738"/>
			<point x="114" y="714"/>
			<point x="75" y="665" type="curve"/>
			<point x="90" y="647" type="line"/>
			<point x="101" y="658"/>
			<point x="111" y="664"/>
			<point x="118" y="664" type="curve" smooth="yes"/>
			<point x="125" y="664"/>
			<point x="130" y="662"/>
			<point x="134" y="639" type="curve" smooth="yes"/>
			<point x="151" y="545"/>
			<point x="168" y="450"/>
			<point x="185" y="356" type="curve"/>
			<point x="283" y="451" type="line"/>
		</contour>
	</outline>
</glyph>
<glyph name="ringhalfrightmod" format="2">
	<unicode hex="02BE"/>
	<advance width="230"/>
	<outline>
		<contour>
			<point x="98" y="493" type="line"/>
			<point x="230" y="493"/>
			<point x="274" y="562"/>
			<point x="274" y="632" type="curve" smooth="yes"/>
			<point x="274" y="703"/>
			<point x="226" y="750"/>
			<point x="144" y="756" type="curve"/>
			<point x="131" y="694" type="line"/>
			<point x="175" y="689"/>
			<point x="193" y="661"/>
			<point x="193" y="631" type="curve" smooth="yes"/>
			<point x="193" y="587"/>
			<point x="168" y="555"/>
			<point x="107" y="555" type="curve"/>
		</contour>
	</outline>
</glyph>
<glyph name="verticallinemod" format="2">
	<unicode hex="02C8"/>
	<advance width="288"/>
	<outline>
		<contour>
			<point x="125" y="513" type="line"/>
			<point x="249" y="513" type="line"/>
			<point x="293" y="721" type="line"/>
			<point x="157" y="721" type="line"/>
		</contour>
	</outline>
</glyph>
<glyph name="l.sups" format="2">
	<unicode hex="02E1"/>
	<advance width="213"/>
	<outline>
		<contour>
			<point x="141" y="405" type="curve" smooth="yes"/>
			<point x="200" y="405"/>
			<point x="244" y="448"/>
			<point x="269" y="492" type="curve"/>
			<point x="248" y="506" type="line"/>
			<point x="227" y="479"/>
			<point x="214" y="467"/>
			<point x="204" y="467" type="curve" smooth="yes"/>
			<point x="193" y="467"/>
			<point x="193" y="482"/>
			<point x="198" y="506" type="curve" smooth="yes"/>
			<point x="275" y="867" type="line"/>
			<point x="264" y="875" type="line"/>
			<point x="118" y="837" type="line"/>
			<point x="114" y="812" type="line"/>
			<point x="199" y="798" type="line"/>
			<point x="160" y="820" type="line"/>
			<point x="100" y="537" type="line" smooth="yes"/>
			<point x="91" y="495"/>
			<point x="86" y="470"/>
			<point x="86" y="450" type="curve" smooth="yes"/>
			<point x="86" y="421"/>
			<point x="107" y="405"/>
		</contour>
	</outline>
</glyph>
<glyph name="x.sups" format="2">
	<unicode hex="02E3"/>
	<advance width="397"/>
	<outline>
		<contour>
			<point x="252" y="457" type="line" smooth="yes"/>
			<point x="267" y="417"/>
			<point x="290" y="403"/>
			<point x="323" y="403" type="curve" smooth="yes"/>
			<point x="371" y="403"/>
			<point x="409" y="442"/>
			<point x="436" y="492" type="curve"/>
			<point x="414" y="506" type="line"/>
			<point x="396" y="481"/>
			<point x="381" y="467"/>
			<point x="369" y="467" type="curve" smooth="yes"/>
			<point x="359" y="467"/>
			<point x="353" y="472"/>
			<point x="346" y="491" type="curve" smooth="yes"/>
			<point x="300" y="612" type="line"/>
			<point x="299" y="614" type="line"/>
			<point x="275" y="678" type="line" smooth="yes"/>
			<point x="261" y="716"/>
			<point x="247" y="738"/>
			<point x="207" y="738" type="curve" smooth="yes"/>
			<point x="172" y="738"/>
			<point x="141" y="714"/>
			<point x="103" y="665" type="curve"/>
			<point x="118" y="647" type="line"/>
			<point x="130" y="659"/>
			<point x="145" y="665"/>
			<point x="156" y="665" type="curve" smooth="yes"/>
			<point x="170" y="665"/>
			<point x="178" y="658"/>
			<point x="186" y="637" type="curve" smooth="yes"/>
			<point x="225" y="530" type="line"/>
			<point x="226" y="528" type="line"/>
		</contour>
		<contour>
			<point x="57" y="460" type="curve"/>
			<point x="61" y="421"/>
			<point x="92" y="405"/>
			<point x="120" y="405" type="curve" smooth="yes"/>
			<point x="146" y="405"/>
			<point x="164" y="418"/>
			<point x="179" y="436" type="curve" smooth="yes"/>
			<point x="209" y="472"/>
			<point x="233" y="513"/>
			<point x="268" y="571" type="curve"/>
			<point x="261" y="592" type="line"/>
			<point x="227" y="547"/>
			<point x="190" y="503"/>
			<point x="155" y="459" type="curve" smooth="yes"/>
			<point x="149" y="452"/>
			<point x="143" y="446"/>
			<point x="137" y="440" type="curve"/>
			<point x="137" y="434" type="line"/>
			<point x="171" y="440" type="line"/>
			<point x="163" y="453" type="line" smooth="yes"/>
			<point x="143" y="486"/>
			<point x="130" y="500"/>
			<point x="107" y="500" type="curve" smooth="yes"/>
			<point x="82" y="500"/>
			<point x="66" y="487"/>
		</contour>
		<contour>
			<point x="270" y="551" type="line"/>
			<point x="303" y="596"/>
			<point x="338" y="639"/>
			<point x="373" y="682" type="curve" smooth="yes"/>
			<point x="380" y="691"/>
			<point x="388" y="696"/>
			<point x="396" y="702" type="curve"/>
			<point x="396" y="707" type="line"/>
			<point x="357" y="700" type="line"/>
			<point x="371" y="677" type="line" smooth="yes"/>
			<point x="385" y="657"/>
			<point x="400" y="645"/>
			<point x="422" y="645" type="curve" smooth="yes"/>
			<point x="449" y="645"/>
			<point x="468" y="666"/>
			<point x="469" y="697" type="curve"/>
			<point x="462" y="725"/>
			<point x="439" y="738"/>
			<point x="415" y="738" type="curve" smooth="yes"/>
			<point x="390" y="738"/>
			<point x="369" y="729"/>
			<point x="349" y="704" type="curve" smooth="yes"/>
			<point x="329" y="678"/>
			<point x="297" y="632"/>
			<point x="262" y="572" type="curve"/>
		</contour>
	</outline>
</glyph>
<glyph name="gravecmb" format="2">
	<unicode hex="0300"/>
	<outline>
		<contour>
			<point x="67" y="560" type="line"/>
			<point x="54" y="609"/>
			<point x="42" y="658"/>
			<point x="27" y="706" type="curve" smooth="yes"/>
			<point x="5" y="778"/>
			<point x="-26" y="792"/>
			<point x="-59" y="792" type="curve" smooth="yes"/>
			<point x="-92" y="792"/>
			<point x="-127" y="766"/>
			<point x="-127" y="727" type="curve" smooth="yes"/>
			<point x="-127" y="691"/>
			<point x="-105" y="659"/>
			<point x="-68" y="626" type="curve" smooth="yes"/>
			<point x="-35" y="596"/>
			<point x="1" y="569"/>
			<point x="35" y="540" type="curve"/>
		</contour>
	</outline>
	<anchor name="_aboveLC" x="42" y="507"/>
	<anchor name="aboveLC" x="102" y="792"/>
</glyph>
<glyph name="acutecmb" format="2">
	<unicode hex="0301"/>
	<outline>
		<contour>
			<point x="80" y="561" type="curve"/>
			<point x="115" y="539" type="line"/>
			<point x="149" y="568"/>
			<point x="184" y="596"/>
			<point x="217" y="626" type="curve" smooth="yes"/>
			<point x="254" y="659"/>
			<point x="276" y="691"/>
			<point x="276" y="727" type="curve" smooth="yes"/>
			<point x="276" y="766"/>
			<point x="241" y="792"/>
			<point x="208" y="792" type="curve" smooth="yes"/>
			<point x="175" y="792"/>
			<point x="145" y="777"/>
			<point x="122" y="706" type="curve" smooth="yes"/>
			<point x="107" y="658"/>
			<point x="94" y="609"/>
		</contour>
	</outline>
	<anchor name="_aboveLC" x="87" y="507"/>
	<anchor name="aboveLC" x="148" y="792"/>
</glyph>
<glyph name="circumflexcmb" format="2">
	<unicode hex="0302"/>
	<outline>
		<contour>
			<point x="241" y="544" type="line"/>
			<point x="277" y="572" type="line"/>
			<point x="171" y="757" type="line"/>
			<point x="95" y="757" type="line"/>
			<point x="-73" y="580" type="line"/>
			<point x="-41" y="542" type="line"/>
			<point x="173" y="689" type="line"/>
			<point x="73" y="689" type="line"/>
		</contour>
	</outline>
	<anchor name="_aboveLC" x="87" y="507"/>
	<anchor name="aboveLC" x="140" y="757"/>
</glyph>
<glyph name="tildecmb" format="2">
	<unicode hex="0303"/>
	<outline>
		<contour>
			<point x="-78" y="589" type="curve"/>
			<point x="-34" y="569" type="line"/>
			<point x="-14" y="605"/>
			<point x="6" y="629"/>
			<point x="34" y="629" type="curve" smooth="yes"/>
			<point x="62" y="629"/>
			<point x="81" y="611"/>
			<point x="99" y="597" type="curve" smooth="yes"/>
			<point x="118" y="582"/>
			<point x="144" y="570"/>
			<point x="178" y="570" type="curve" smooth="yes"/>
			<point x="235" y="570"/>
			<point x="284" y="608"/>
			<point x="312" y="714" type="curve"/>
			<point x="269" y="734" type="line"/>
			<point x="248" y="697"/>
			<point x="228" y="673"/>
			<point x="203" y="673" type="curve" smooth="yes"/>
			<point x="178" y="673"/>
			<point x="160" y="689"/>
			<point x="142" y="703" type="curve" smooth="yes"/>
			<point x="121" y="720"/>
			<point x="100" y="732"/>
			<point x="59" y="732" type="curve" smooth="yes"/>
			<point x="6" y="732"/>
			<point x="-49" y="686"/>
		</contour>
	</outline>
	<anchor name="_aboveLC" x="87" y="507"/>
	<anchor name="aboveLC" x="136" y="734"/>
</glyph>
<glyph name="macroncmb" format="2">
	<unicode hex="0304"/>
	<outline>
		<contour>
			<point x="-90" y="603" type="line"/>
			<point x="214" y="603" type="line"/>
			<point x="231" y="683" type="line"/>
			<point x="-73" y="683" type="line"/>
		</contour>
	</outline>
	<anchor name="_aboveLC" x="42" y="507"/>
	<anchor name="aboveLC" x="79" y="683"/>
</glyph>
<glyph name="brevecmb" format="2">
	<unicode hex="0306"/>
	<outline>
		<contour>
			<point x="101" y="558" type="curve" smooth="yes"/>
			<point x="213" y="558"/>
			<point x="266" y="652"/>
			<point x="282" y="717" type="curve"/>
			<point x="237" y="730" type="line"/>
			<point x="209" y="679"/>
			<point x="163" y="659"/>
			<point x="105" y="659" type="curve" smooth="yes"/>
			<point x="53" y="659"/>
			<point x="15" y="683"/>
			<point x="-3" y="730" type="curve"/>
			<point x="-50" y="717" type="line"/>
			<point x="-52" y="622"/>
			<point x="0" y="558"/>
		</contour>
	</outline>
	<anchor name="_aboveLC" x="87" y="507"/>
	<anchor name="aboveLC" x="135" y="730"/>
</glyph>
<glyph name="dotaccentcmb" format="2">
	<unicode hex="0307"/>
	<outline>
		<contour>
			<point x="110" y="581" type="curve" smooth="yes"/>
			<point x="159" y="581"/>
			<point x="203" y="622"/>
			<point x="203" y="675" type="curve" smooth="yes"/>
			<point x="203" y="721"/>
			<point x="175" y="751"/>
			<point x="132" y="751" type="curve" smooth="yes"/>
			<point x="84" y="751"/>
			<point x="40" y="711"/>
			<point x="40" y="654" type="curve" smooth="yes"/>
			<point x="40" y="607"/>
			<point x="71" y="581"/>
		</contour>
	</outline>
	<anchor name="_aboveLC" x="87" y="507"/>
	<anchor name="aboveLC" x="138" y="751"/>
</glyph>
<glyph name="dieresiscmb" format="2">
	<unicode hex="0308"/>
	<outline>
		<contour>
			<point x="-3" y="582" type="curve" smooth="yes"/>
			<point x="40" y="582"/>
			<point x="84" y="614"/>
			<point x="84" y="672" type="curve" smooth="yes"/>
			<point x="84" y="715"/>
			<point x="51" y="741"/>
			<point x="11" y="741" type="curve" smooth="yes"/>
			<point x="-32" y="741"/>
			<point x="-77" y="709"/>
			<point x="-77" y="652" type="curve" smooth="yes"/>
			<point x="-77" y="607"/>
			<point x="-42" y="582"/>
		</contour>
		<contour>
			<point x="230" y="582" type="curve" smooth="yes"/>
			<point x="273" y="582"/>
			<point x="317" y="614"/>
			<point x="317" y="672" type="curve" smooth="yes"/>
			<point x="317" y="715"/>
			<point x="284" y="741"/>
			<point x="244" y="741" type="curve" smooth="yes"/>
			<point x="201" y="741"/>
			<point x="156" y="709"/>
			<point x="156" y="652" type="curve" smooth="yes"/>
			<point x="156" y="607"/>
			<point x="191" y="582"/>
		</contour>
	</outline>
	<anchor name="_aboveLC" x="87" y="507"/>
	<anchor name="aboveLC" x="137" y="741"/>
</glyph>
<glyph name="hoicmb" format="2">
	<unicode hex="0309"/>
	<outline>
		<contour>
			<point x="27" y="557" type="line"/>
			<point x="113" y="567"/>
			<point x="172" y="605"/>
			<point x="172" y="684" type="curve" smooth="yes"/>
			<point x="172" y="746"/>
			<point x="128" y="793"/>
			<point x="8" y="803" type="curve"/>
			<point x="-15" y="689" type="line"/>
			<point x="57" y="681"/>
			<point x="81" y="674"/>
			<point x="81" y="656" type="curve" smooth="yes"/>
			<point x="81" y="637"/>
			<point x="65" y="625"/>
			<point x="16" y="611" type="curve"/>
		</contour>
	</outline>
	<anchor name="_aboveLC" x="42" y="507"/>
	<anchor name="aboveLC" x="105" y="803"/>
</glyph>
<glyph name="ringcmb" format="2">
	<unicode hex="030A"/>
	<outline>
		<contour>
			<point x="16" y="596"/>
			<point x="67" y="554"/>
			<point x="137" y="554" type="curve" smooth="yes"/>
			<point x="207" y="554"/>
			<point x="272" y="602"/>
			<point x="272" y="689" type="curve" smooth="yes"/>
			<point x="272" y="754"/>
			<point x="222" y="794"/>
			<point x="154" y="794" type="curve" smooth="yes"/>
			<point x="81" y="794"/>
			<point x="16" y="743"/>
			<point x="16" y="660" type="curve" smooth="yes"/>
		</contour>
		<contour>
			<point x="136" y="610" type="curve" smooth="yes"/>
			<point x="105" y="610"/>
			<point x="84" y="634"/>
			<point x="84" y="666" type="curve" smooth="yes"/>
			<point x="84" y="703"/>
			<point x="110" y="738"/>
			<point x="150" y="738" type="curve" smooth="yes"/>
			<point x="187" y="738"/>
			<point x="204" y="710"/>
			<point x="204" y="682" type="curve" smooth="yes"/>
			<point x="204" y="641"/>
			<point x="176" y="610"/>
		</contour>
	</outline>
	<anchor name="_aboveLC" x="108" y="507"/>
	<anchor name="aboveLC" x="170" y="794"/>
</glyph>
<glyph name="hungarumlautcmb" format="2">
	<unicode hex="030B"/>
	<outline>
		<contour>
			<point x="-29" y="582" type="line"/>
			<point x="13" y="552" type="line"/>
			<point x="123" y="663" type="line" smooth="yes"/>
			<point x="160" y="700"/>
			<point x="175" y="722"/>
			<point x="175" y="750" type="curve" smooth="yes"/>
			<point x="175" y="781"/>
			<point x="156" y="799"/>
			<point x="124" y="799" type="curve" smooth="yes"/>
			<point x="93" y="799"/>
			<point x="70" y="778"/>
			<point x="40" y="719" type="curve" smooth="yes"/>
		</contour>
		<contour>
			<point x="151" y="582" type="line"/>
			<point x="193" y="552" type="line"/>
			<point x="303" y="663" type="line" smooth="yes"/>
			<point x="340" y="700"/>
			<point x="355" y="722"/>
			<point x="355" y="750" type="curve" smooth="yes"/>
			<point x="355" y="781"/>
			<point x="336" y="799"/>
			<point x="304" y="799" type="curve" smooth="yes"/>
			<point x="273" y="799"/>
			<point x="250" y="778"/>
			<point x="220" y="719" type="curve" smooth="yes"/>
		</contour>
	</outline>
	<anchor name="_aboveLC" x="86" y="507"/>
	<anchor name="aboveLC" x="149" y="799"/>
</glyph>
<glyph name="caroncmb" format="2">
	<unicode hex="030C"/>
	<outline>
		<contour>
			<point x="-31" y="774" type="line"/>
			<point x="-72" y="747" type="line"/>
			<point x="11" y="558" type="line"/>
			<point x="101" y="558" type="line"/>
			<point x="257" y="739" type="line"/>
			<point x="220" y="776" type="line"/>
			<point x="23" y="625" type="line"/>
			<point x="111" y="625" type="line"/>
		</contour>
	</outline>
	<anchor name="_aboveLC" x="42" y="507"/>
	<anchor name="aboveLC" x="99" y="776"/>
</glyph>
<glyph name="horncmb" format="2">
	<unicode hex="031B"/>
	<outline>
		<contour>
			<point x="38" y="487" type="line"/>
			<point x="120" y="491"/>
			<point x="217" y="574"/>
			<point x="217" y="684" type="curve" smooth="yes"/>
			<point x="217" y="700"/>
			<point x="216" y="712"/>
			<point x="212" y="725" type="curve"/>
			<point x="199" y="738"/>
			<point x="184" y="743"/>
			<point x="164" y="743" type="curve" smooth="yes"/>
			<point x="126" y="743"/>
			<point x="98" y="715"/>
			<point x="98" y="677" type="curve" smooth="yes"/>
			<point x="98" y="639"/>
			<point x="124" y="625"/>
			<point x="124" y="598" type="curve" smooth="yes"/>
			<point x="124" y="566"/>
			<point x="84" y="542"/>
			<point x="38" y="533" type="curve"/>
		</contour>
	</outline>
	<anchor name="_hornLC" x="38" y="487"/>
</glyph>
<glyph name="commabelowcmb" format="2">
	<unicode hex="0326"/>
	<advance width="-1"/>
	<outline>
		<contour>
			<point x="-5" y="-244"/>
			<point x="45" y="-203"/>
			<point x="45" y="-108" type="curve" smooth="yes"/>
			<point x="45" y="-96"/>
			<point x="43" y="-84"/>
			<point x="40" y="-72" type="curve"/>
			<point x="26" y="-54"/>
			<point x="5" y="-46"/>
			<point x="-16" y="-46" type="curve" smooth="yes"/>
			<point x="-71" y="-46"/>
			<point x="-98" y="-88"/>
			<point x="-98" y="-126" type="curve" smooth="yes"/>
			<point x="-98" y="-161"/>
			<point x="-79" y="-184"/>
			<point x="-25" y="-198" type="curve"/>
			<point x="-25" y="-161" type="line"/>
			<point x="-51" y="-200"/>
			<point x="-58" y="-205"/>
			<point x="-108" y="-222" type="curve"/>
			<point x="-96" y="-267" type="line"/>
		</contour>
	</outline>
	<anchor name="_belowLC" x="-5" y="-20"/>
	<anchor name="belowLC" x="-57" y="-267"/>
</glyph>
<glyph name="cedillacmb" format="2">
	<unicode hex="0327"/>
	<outline>
		<contour>
			<point x="-78" y="-91" type="line"/>
			<point x="-39" y="-97"/>
			<point x="-13" y="-113"/>
			<point x="-13" y="-139" type="curve" smooth="yes"/>
			<point x="-13" y="-163"/>
			<point x="-34" y="-178"/>
			<point x="-63" y="-178" type="curve" smooth="yes"/>
			<point x="-80" y="-178"/>
			<point x="-100" y="-173"/>
			<point x="-118" y="-165" type="curve"/>
			<point x="-139" y="-208" type="line"/>
			<point x="-119" y="-222"/>
			<point x="-85" y="-232"/>
			<point x="-46" y="-232" type="curve" smooth="yes"/>
			<point x="34" y="-232"/>
			<point x="74" y="-192"/>
			<point x="74" y="-147" type="curve" smooth="yes"/>
			<point x="74" y="-99"/>
			<point x="41" y="-72"/>
			<point x="-43" y="-51" type="curve"/>
			<point x="-25" y="-77" type="line"/>
			<point x="14" y="1" type="line"/>
			<point x="-33" y="1" type="line"/>
		</contour>
	</outline>
	<anchor name="_baseLC" x="-21" y="0"/>
</glyph>
<glyph name="ogonekcmb" format="2">
	<unicode hex="0328"/>
	<outline>
		<contour>
			<point x="-127" y="-157" type="curve" smooth="yes"/>
			<point x="-127" y="-202"/>
			<point x="-96" y="-232"/>
			<point x="-38" y="-232" type="curve" smooth="yes"/>
			<point x="22" y="-232"/>
			<point x="59" y="-205"/>
			<point x="87" y="-178" type="curve"/>
			<point x="70" y="-146" type="line"/>
			<point x="54" y="-155"/>
			<point x="39" y="-161"/>
			<point x="22" y="-161" type="curve" smooth="yes"/>
			<point x="-3" y="-161"/>
			<point x="-21" y="-145"/>
			<point x="-21" y="-115" type="curve" smooth="yes"/>
			<point x="-21" y="-81"/>
			<point x="-3" y="-44"/>
			<point x="40" y="13" type="curve"/>
			<point x="2" y="13" type="line"/>
			<point x="-74" y="-52"/>
			<point x="-127" y="-102"/>
		</contour>
	</outline>
	<anchor name="_ogonek" x="0" y="0"/>
</glyph>
<glyph name="verticallinebelowcmb" format="2">
	<unicode hex="0329"/>
	<outline>
		<contour>
			<point x="-178" y="-270" type="line"/>
			<point x="-58" y="-270" type="line"/>
			<point x="-26" y="-62" type="line"/>
			<point x="-134" y="-62" type="line"/>
		</contour>
	</outline>
	<anchor name="_belowLC" x="-70" y="-20"/>
	<anchor name="belowLC" x="-123" y="-270"/>
</glyph>
<glyph name="Gamma" format="2">
	<unicode hex="0393"/>
	<advance width="549"/>
	<outline>
		<contour>
			<point x="-9" y="0" type="line"/>
			<point x="334" y="0" type="line"/>
			<point x="346" y="59" type="line"/>
			<point x="203" y="74" type="line"/>
			<point x="150" y="74" type="line"/>
			<point x="3" y="59" type="line"/>
		</contour>
		<contour>
			<point x="66" y="0" type="line"/>
			<point x="245" y="0" type="line"/>
			<point x="262" y="103"/>
			<point x="281" y="207"/>
			<point x="301" y="311" type="curve" smooth="yes"/>
			<point x="366" y="652" type="line"/>
			<point x="186" y="652" type="line"/>
			<point x="169" y="549"/>
			<point x="151" y="445"/>
			<point x="131" y="342" type="curve" smooth="yes"/>
		</contour>
		<contour>
			<point x="103" y="593" type="line"/>
			<point x="246" y="578" type="line"/>
			<point x="263" y="578" type="line"/>
			<point x="277" y="652" type="line"/>
			<point x="115" y="652" type="line"/>
		</contour>
		<contour>
			<point x="265" y="593" type="line"/>
			<point x="565" y="593" type="line"/>
			<point x="497" y="652" type="line"/>
			<point x="488" y="467" type="line"/>
			<point x="578" y="467" type="line"/>
			<point x="609" y="652" type="line"/>
			<point x="277" y="652" type="line"/>
		</contour>
	</outline>
</glyph>
<glyph name="Theta" format="2">
	<unicode hex="0398"/>
	<advance width="672"/>
	<outline>
		<contour>
			<point x="297" y="-20" type="curve" smooth="yes"/>
			<point x="543" y="-20"/>
			<point x="683" y="177"/>
			<point x="683" y="399" type="curve" smooth="yes"/>
			<point x="683" y="570"/>
			<point x="578" y="672"/>
			<point x="425" y="672" type="curve" smooth="yes"/>
			<point x="178" y="672"/>
			<point x="38" y="468"/>
			<point x="38" y="257" type="curve" smooth="yes"/>
			<point x="38" y="65"/>
			<point x="151" y="-20"/>
		</contour>
		<contour>
			<point x="307" y="40" type="curve" smooth="yes"/>
			<point x="244" y="40"/>
			<point x="218" y="95"/>
			<point x="218" y="217" type="curve" smooth="yes"/>
			<point x="218" y="430"/>
			<point x="312" y="612"/>
			<point x="416" y="612" type="curve" smooth="yes"/>
			<point x="481" y="612"/>
			<point x="502" y="558"/>
			<point x="502" y="443" type="curve" smooth="yes"/>
			<point x="502" y="230"/>
			<point x="410" y="40"/>
		</contour>
		<contour>
			<point x="250" y="226" type="line"/>
			<point x="298" y="226" type="line"/>
			<point x="332" y="323" type="line"/>
			<point x="335" y="341" type="line"/>
			<point x="338" y="433" type="line"/>
			<point x="290" y="433" type="line"/>
		</contour>
		<contour>
			<point x="292" y="292" type="line"/>
			<point x="414" y="292" type="line"/>
			<point x="428" y="366" type="line"/>
			<point x="306" y="366" type="line"/>
		</contour>
		<contour>
			<point x="382" y="226" type="line"/>
			<point x="430" y="226" type="line"/>
			<point x="470" y="433" type="line"/>
			<point x="422" y="433" type="line"/>
			<point x="389" y="341" type="line"/>
			<point x="386" y="323" type="line"/>
		</contour>
	</outline>
</glyph>
<glyph name="Sigma" format="2">
	<unicode hex="03A3"/>
	<advance width="563"/>
	<outline>
		<contour>
			<point x="-7" y="0" type="line"/>
			<point x="478" y="0" type="line"/>
			<point x="536" y="269" type="line"/>
			<point x="448" y="269" type="line"/>
			<point x="376" y="80" type="line"/>
			<point x="468" y="120" type="line"/>
			<point x="128" y="120" type="line"/>
			<point x="132" y="145" type="line"/>
			<point x="104" y="81" type="line"/>
			<point x="240" y="216" type="line"/>
			<point x="376" y="352" type="line"/>
			<point x="256" y="636" type="line"/>
			<point x="267" y="563" type="line"/>
			<point x="267" y="592" type="line"/>
			<point x="402" y="592" type="line"/>
			<point x="532" y="592" type="line"/>
			<point x="461" y="652" type="line"/>
			<point x="461" y="453" type="line"/>
			<point x="547" y="453" type="line"/>
			<point x="577" y="652" type="line"/>
			<point x="111" y="652" type="line"/>
			<point x="100" y="595" type="line"/>
			<point x="253" y="269" type="line"/>
			<point x="269" y="356" type="line"/>
			<point x="11" y="95" type="line"/>
		</contour>
	</outline>
</glyph>
<glyph name="Phi" format="2">
	<unicode hex="03A6"/>
	<advance width="786"/>
	<outline>
		<contour>
			<point x="22" y="187"/>
			<point x="118" y="123"/>
			<point x="311" y="117" type="curve"/>
			<point x="321" y="180" type="line"/>
			<point x="250" y="185"/>
			<point x="202" y="215"/>
			<point x="202" y="299" type="curve" smooth="yes"/>
			<point x="202" y="407"/>
			<point x="260" y="484"/>
			<point x="380" y="488" type="curve"/>
			<point x="389" y="550" type="line"/>
			<point x="156" y="546"/>
			<point x="22" y="458"/>
			<point x="22" y="308" type="curve" smooth="yes"/>
		</contour>
		<contour>
			<point x="179" y="0" type="line"/>
			<point x="496" y="0" type="line"/>
			<point x="508" y="59" type="line"/>
			<point x="367" y="74" type="line"/>
			<point x="344" y="74" type="line"/>
			<point x="191" y="59" type="line"/>
		</contour>
		<contour>
			<point x="254" y="0" type="line"/>
			<point x="423" y="0" type="line"/>
			<point x="440" y="103"/>
			<point x="459" y="207"/>
			<point x="479" y="311" type="curve" smooth="yes"/>
			<point x="546" y="662" type="line"/>
			<point x="376" y="662" type="line"/>
			<point x="359" y="559"/>
			<point x="341" y="455"/>
			<point x="321" y="352" type="curve" smooth="yes"/>
		</contour>
		<contour>
			<point x="293" y="603" type="line"/>
			<point x="442" y="588" type="line"/>
			<point x="465" y="588" type="line"/>
			<point x="610" y="603" type="line"/>
			<point x="622" y="662" type="line"/>
			<point x="305" y="662" type="line"/>
		</contour>
		<contour>
			<point x="406" y="117" type="line"/>
			<point x="639" y="121"/>
			<point x="773" y="209"/>
			<point x="773" y="359" type="curve" smooth="yes"/>
			<point x="773" y="480"/>
			<point x="677" y="544"/>
			<point x="484" y="550" type="curve"/>
			<point x="474" y="487" type="line"/>
			<point x="545" y="482"/>
			<point x="593" y="452"/>
			<point x="593" y="368" type="curve" smooth="yes"/>
			<point x="593" y="258"/>
			<point x="535" y="183"/>
			<point x="415" y="179" type="curve"/>
		</contour>
	</outline>
</glyph>
<glyph name="Psi" format="2">
	<unicode hex="03A8"/>
	<advance width="848"/>
	<outline>
		<contour>
			<point x="113" y="274"/>
			<point x="189" y="209"/>
			<point x="406" y="209" type="curve"/>
			<point x="417" y="262" type="line"/>
			<point x="289" y="262"/>
			<point x="265" y="294"/>
			<point x="265" y="401" type="curve" smooth="yes"/>
			<point x="265" y="512" type="line" smooth="yes"/>
			<point x="265" y="612"/>
			<point x="236" y="652"/>
			<point x="126" y="652" type="curve" smooth="yes"/>
			<point x="68" y="652" type="line"/>
			<point x="57" y="593" type="line"/>
			<point x="74" y="592" type="line" smooth="yes"/>
			<point x="100" y="590"/>
			<point x="106" y="574"/>
			<point x="107" y="539" type="curve" smooth="yes"/>
			<point x="110" y="409" type="line" smooth="yes"/>
		</contour>
		<contour>
			<point x="416" y="209" type="line"/>
			<point x="641" y="209"/>
			<point x="743" y="276"/>
			<point x="802" y="454" type="curve" smooth="yes"/>
			<point x="830" y="539" type="line" smooth="yes"/>
			<point x="842" y="574"/>
			<point x="854" y="590"/>
			<point x="880" y="592" type="curve" smooth="yes"/>
			<point x="897" y="593" type="line"/>
			<point x="908" y="652" type="line"/>
			<point x="850" y="652" type="line" smooth="yes"/>
			<point x="735" y="652"/>
			<point x="679" y="613"/>
			<point x="651" y="512" type="curve" smooth="yes"/>
			<point x="628" y="431" type="line" smooth="yes"/>
			<point x="591" y="296"/>
			<point x="552" y="262"/>
			<point x="427" y="262" type="curve"/>
		</contour>
		<contour>
			<point x="199" y="0" type="line"/>
			<point x="522" y="0" type="line"/>
			<point x="534" y="59" type="line"/>
			<point x="393" y="74" type="line"/>
			<point x="364" y="74" type="line"/>
			<point x="211" y="59" type="line"/>
		</contour>
		<contour>
			<point x="274" y="0" type="line"/>
			<point x="449" y="0" type="line"/>
			<point x="464" y="94"/>
			<point x="483" y="196"/>
			<point x="505" y="311" type="curve" smooth="yes"/>
			<point x="570" y="652" type="line"/>
			<point x="394" y="652" type="line"/>
			<point x="374" y="531"/>
			<point x="356" y="432"/>
			<point x="339" y="342" type="curve" smooth="yes"/>
		</contour>
		<contour>
			<point x="323" y="593" type="line"/>
			<point x="460" y="578" type="line"/>
			<point x="489" y="578" type="line"/>
			<point x="618" y="593" type="line"/>
			<point x="630" y="652" type="line"/>
			<point x="335" y="652" type="line"/>
		</contour>
	</outline>
</glyph>
<glyph name="beta" format="2">
	<unicode hex="03B2"/>
	<advance width="592"/>
	<outline>
		<contour>
			<point x="-3" y="-196" type="line"/>
			<point x="158" y="-179" type="line"/>
			<point x="193" y="68" type="line"/>
			<point x="199" y="79" type="line"/>
			<point x="274" y="496" type="line" smooth="yes"/>
			<point x="298" y="629"/>
			<point x="320" y="666"/>
			<point x="373" y="666" type="curve" smooth="yes"/>
			<point x="410" y="666"/>
			<point x="431" y="641"/>
			<point x="431" y="578" type="curve" smooth="yes"/>
			<point x="431" y="478"/>
			<point x="395" y="422"/>
			<point x="287" y="389" type="curve"/>
			<point x="299" y="322" type="line"/>
			<point x="376" y="317"/>
			<point x="408" y="278"/>
			<point x="408" y="208" type="curve" smooth="yes"/>
			<point x="408" y="128"/>
			<point x="359" y="77"/>
			<point x="281" y="77" type="curve" smooth="yes"/>
			<point x="232" y="77"/>
			<point x="196" y="93"/>
			<point x="178" y="150" type="curve"/>
			<point x="158" y="123" type="line"/>
			<point x="176" y="30"/>
			<point x="252" y="-16"/>
			<point x="339" y="-16" type="curve" smooth="yes"/>
			<point x="474" y="-16"/>
			<point x="578" y="75"/>
			<point x="578" y="209" type="curve" smooth="yes"/>
			<point x="578" y="320"/>
			<point x="461" y="392"/>
			<point x="354" y="392" type="curve"/>
			<point x="364" y="383" type="line"/>
			<point x="484" y="395"/>
			<point x="589" y="458"/>
			<point x="589" y="552" type="curve" smooth="yes"/>
			<point x="589" y="654"/>
			<point x="507" y="721"/>
			<point x="381" y="721" type="curve" smooth="yes"/>
			<point x="223" y="721"/>
			<point x="135" y="638"/>
			<point x="100" y="456" type="curve" smooth="yes"/>
			<point x="37" y="130" type="line"/>
			<point x="-23" y="-183" type="line"/>
		</contour>
	</outline>
</glyph>
<glyph name="delta" format="2">
	<unicode hex="03B4"/>
	<advance width="537"/>
	<outline>
		<contour>
			<point x="232" y="-16" type="curve" smooth="yes"/>
			<point x="379" y="-16"/>
			<point x="508" y="113"/>
			<point x="508" y="259" type="curve" smooth="yes"/>
			<point x="508" y="347"/>
			<point x="474" y="411"/>
			<point x="382" y="495" type="curve" smooth="yes"/>
			<point x="322" y="550"/>
			<point x="304" y="576"/>
			<point x="304" y="608" type="curve" smooth="yes"/>
			<point x="304" y="643"/>
			<point x="327" y="666"/>
			<point x="362" y="666" type="curve" smooth="yes"/>
			<point x="387" y="666"/>
			<point x="397" y="663"/>
			<point x="423" y="642" type="curve"/>
			<point x="415" y="693" type="line"/>
			<point x="355" y="693" type="line"/>
			<point x="415" y="603" type="line" smooth="yes"/>
			<point x="442" y="563"/>
			<point x="467" y="543"/>
			<point x="499" y="543" type="curve" smooth="yes"/>
			<point x="529" y="543"/>
			<point x="555" y="564"/>
			<point x="562" y="595" type="curve"/>
			<point x="543" y="666"/>
			<point x="459" y="721"/>
			<point x="351" y="721" type="curve" smooth="yes"/>
			<point x="227" y="721"/>
			<point x="144" y="662"/>
			<point x="144" y="574" type="curve" smooth="yes"/>
			<point x="144" y="517"/>
			<point x="172" y="472"/>
			<point x="249" y="404" type="curve" smooth="yes"/>
			<point x="314" y="347"/>
			<point x="338" y="295"/>
			<point x="338" y="211" type="curve" smooth="yes"/>
			<point x="338" y="123"/>
			<point x="295" y="44"/>
			<point x="247" y="44" type="curve" smooth="yes"/>
			<point x="210" y="44"/>
			<point x="190" y="83"/>
			<point x="190" y="155" type="curve" smooth="yes"/>
			<point x="190" y="279"/>
			<point x="246" y="388"/>
			<point x="309" y="388" type="curve"/>
			<point x="276" y="423" type="line"/>
			<point x="276" y="414" type="line"/>
			<point x="138" y="414"/>
			<point x="20" y="306"/>
			<point x="20" y="179" type="curve" smooth="yes"/>
			<point x="20" y="59"/>
			<point x="102" y="-16"/>
		</contour>
	</outline>
</glyph>
<glyph name="eta" format="2">
	<unicode hex="03B7"/>
	<advance width="561"/>
	<outline>
		<contour>
			<point x="18" y="5" type="curve"/>
			<point x="29" y="-8" type="line"/>
			<point x="193" y="0" type="line"/>
			<point x="264" y="347" type="line"/>
			<point x="282" y="451"/>
			<point x="257" y="503"/>
			<point x="187" y="503" type="curve" smooth="yes"/>
			<point x="144" y="503"/>
			<point x="94" y="475"/>
			<point x="31" y="410" type="curve"/>
			<point x="49" y="372" type="line"/>
			<point x="63" y="379"/>
			<point x="76" y="383"/>
			<point x="87" y="383" type="curve" smooth="yes"/>
			<point x="101" y="383"/>
			<point x="104" y="374"/>
			<point x="97" y="339" type="curve" smooth="yes"/>
			<point x="81" y="260"/>
			<point x="65" y="189"/>
		</contour>
		<contour>
			<point x="256" y="-183" type="line"/>
			<point x="276" y="-196" type="line"/>
			<point x="437" y="-179" type="line"/>
			<point x="486" y="64" type="line" smooth="yes"/>
			<point x="532" y="291"/>
			<point x="542" y="349"/>
			<point x="542" y="400" type="curve" smooth="yes"/>
			<point x="542" y="465"/>
			<point x="508" y="503"/>
			<point x="447" y="503" type="curve" smooth="yes"/>
			<point x="385" y="503"/>
			<point x="305" y="451"/>
			<point x="240" y="353" type="curve"/>
			<point x="231" y="353" type="line"/>
			<point x="243" y="316" type="line"/>
			<point x="282" y="361"/>
			<point x="322" y="383"/>
			<point x="350" y="383" type="curve" smooth="yes"/>
			<point x="373" y="383"/>
			<point x="382" y="372"/>
			<point x="382" y="351" type="curve" smooth="yes"/>
			<point x="382" y="327"/>
			<point x="377" y="304"/>
			<point x="318" y="65" type="curve" smooth="yes"/>
		</contour>
	</outline>
	<anchor name="aboveLC" x="320" y="507"/>
	<anchor name="belowLC" x="103" y="-20"/>
</glyph>
<glyph name="iota" format="2">
	<unicode hex="03B9"/>
	<advance width="311"/>
	<outline>
		<contour>
			<point x="30" y="24"/>
			<point x="68" y="-16"/>
			<point x="136" y="-16" type="curve" smooth="yes"/>
			<point x="182" y="-16"/>
			<point x="236" y="13"/>
			<point x="287" y="80" type="curve"/>
			<point x="259" y="112" type="line"/>
			<point x="241" y="94"/>
			<point x="229" y="86"/>
			<point x="219" y="86" type="curve" smooth="yes"/>
			<point x="204" y="86"/>
			<point x="197" y="99"/>
			<point x="197" y="119" type="curve" smooth="yes"/>
			<point x="197" y="161"/>
			<point x="215" y="243"/>
			<point x="249" y="372" type="curve" smooth="yes"/>
			<point x="280" y="490" type="line"/>
			<point x="269" y="503" type="line"/>
			<point x="99" y="480" type="line"/>
			<point x="60" y="281" type="line" smooth="yes"/>
			<point x="34" y="149"/>
			<point x="30" y="122"/>
			<point x="30" y="94" type="curve" smooth="yes"/>
		</contour>
	</outline>
	<anchor name="aboveLC" x="197" y="507"/>
</glyph>
<glyph name="kappa" format="2">
	<unicode hex="03BA"/>
	<advance width="577"/>
	<outline>
		<contour>
			<point x="18" y="5" type="curve"/>
			<point x="29" y="-8" type="line"/>
			<point x="193" y="0" type="line"/>
			<point x="264" y="347" type="line" smooth="yes"/>
			<point x="285" y="450"/>
			<point x="257" y="503"/>
			<point x="187" y="503" type="curve" smooth="yes"/>
			<point x="144" y="503"/>
			<point x="94" y="475"/>
			<point x="31" y="410" type="curve"/>
			<point x="49" y="372" type="line"/>
			<point x="63" y="379"/>
			<point x="76" y="383"/>
			<point x="87" y="383" type="curve" smooth="yes"/>
			<point x="101" y="383"/>
			<point x="104" y="374"/>
			<point x="97" y="339" type="curve" smooth="yes"/>
			<point x="81" y="260"/>
			<point x="65" y="189"/>
		</contour>
		<contour>
			<point x="317" y="9"/>
			<point x="350" y="-16"/>
			<point x="405" y="-16" type="curve" smooth="yes"/>
			<point x="470" y="-16"/>
			<point x="524" y="21"/>
			<point x="564" y="83" type="curve"/>
			<point x="536" y="115" type="line"/>
			<point x="514" y="94"/>
			<point x="502" y="86"/>
			<point x="490" y="86" type="curve" smooth="yes"/>
			<point x="477" y="86"/>
			<point x="470" y="92"/>
			<point x="458" y="124" type="curve" smooth="yes"/>
			<point x="447" y="153" type="line" smooth="yes"/>
			<point x="424" y="215"/>
			<point x="387" y="245"/>
			<point x="313" y="251" type="curve" smooth="yes"/>
			<point x="255" y="256" type="line"/>
			<point x="240" y="247" type="line"/>
			<point x="461" y="313" type="line" smooth="yes"/>
			<point x="546" y="338"/>
			<point x="575" y="367"/>
			<point x="575" y="415" type="curve" smooth="yes"/>
			<point x="575" y="458"/>
			<point x="544" y="492"/>
			<point x="496" y="500" type="curve"/>
			<point x="225" y="252" type="line"/>
			<point x="229" y="228" type="line"/>
			<point x="238" y="227" type="line" smooth="yes"/>
			<point x="258" y="225"/>
			<point x="267" y="205"/>
			<point x="282" y="146" type="curve" smooth="yes"/>
			<point x="298" y="83" type="line" smooth="yes"/>
		</contour>
	</outline>
</glyph>
<glyph name="mu" format="2">
	<unicode hex="03BC"/>
	<unicode hex="00B5"/>
	<advance width="584"/>
	<outline>
		<contour>
			<point x="-27" y="-196" type="line"/>
			<point x="133" y="-179" type="line"/>
			<point x="146" y="68" type="line"/>
			<point x="198" y="103" type="line"/>
			<point x="205" y="171"/>
			<point x="220" y="238"/>
			<point x="276" y="490" type="curve"/>
			<point x="265" y="503" type="line"/>
			<point x="95" y="480" type="line"/>
			<point x="43" y="127" type="line"/>
			<point x="-47" y="-183" type="line"/>
		</contour>
		<contour>
			<point x="218" y="-16" type="curve" smooth="yes"/>
			<point x="257" y="-16"/>
			<point x="310" y="17"/>
			<point x="341" y="110" type="curve"/>
			<point x="353" y="110" type="line"/>
			<point x="331" y="158" type="line"/>
			<point x="298" y="125"/>
			<point x="269" y="110"/>
			<point x="239" y="110" type="curve" smooth="yes"/>
			<point x="213" y="110"/>
			<point x="199" y="123"/>
			<point x="190" y="147" type="curve"/>
			<point x="127" y="68" type="line"/>
			<point x="135" y="25"/>
			<point x="166" y="-16"/>
		</contour>
		<contour>
			<point x="317" y="24"/>
			<point x="354" y="-16"/>
			<point x="413" y="-16" type="curve" smooth="yes"/>
			<point x="466" y="-16"/>
			<point x="523" y="15"/>
			<point x="572" y="80" type="curve"/>
			<point x="544" y="112" type="line"/>
			<point x="529" y="96"/>
			<point x="517" y="87"/>
			<point x="504" y="87" type="curve" smooth="yes"/>
			<point x="490" y="87"/>
			<point x="483" y="100"/>
			<point x="483" y="119" type="curve" smooth="yes"/>
			<point x="483" y="162"/>
			<point x="501" y="241"/>
			<point x="536" y="372" type="curve" smooth="yes"/>
			<point x="567" y="490" type="line"/>
			<point x="556" y="503" type="line"/>
			<point x="387" y="480" type="line"/>
			<point x="326" y="179" type="line"/>
			<point x="325" y="175" type="line" smooth="yes"/>
			<point x="319" y="144"/>
			<point x="317" y="115"/>
			<point x="317" y="94" type="curve" smooth="yes"/>
		</contour>
	</outline>
</glyph>
<glyph name="nu" format="2">
	<unicode hex="03BD"/>
	<advance width="535"/>
	<outline>
		<contour>
			<point x="127" y="235"/>
			<point x="140" y="119"/>
			<point x="151" y="0" type="curve"/>
			<point x="163" y="-10" type="line"/>
			<point x="252" y="0" type="line"/>
			<point x="356" y="102"/>
			<point x="433" y="213"/>
			<point x="489" y="297" type="curve" smooth="yes"/>
			<point x="525" y="351"/>
			<point x="538" y="391"/>
			<point x="538" y="429" type="curve" smooth="yes"/>
			<point x="538" y="453"/>
			<point x="536" y="475"/>
			<point x="527" y="491" type="curve"/>
			<point x="515" y="499"/>
			<point x="496" y="507"/>
			<point x="466" y="507" type="curve" smooth="yes"/>
			<point x="421" y="507"/>
			<point x="376" y="479"/>
			<point x="376" y="420" type="curve" smooth="yes"/>
			<point x="376" y="389"/>
			<point x="384" y="356"/>
			<point x="391" y="322" type="curve" smooth="yes"/>
			<point x="412" y="224" type="line"/>
			<point x="454" y="376" type="line"/>
			<point x="448" y="365"/>
			<point x="441" y="354"/>
			<point x="435" y="343" type="curve" smooth="yes"/>
			<point x="383" y="244"/>
			<point x="337" y="169"/>
			<point x="269" y="82" type="curve"/>
			<point x="294" y="87" type="line"/>
			<point x="295" y="192"/>
			<point x="288" y="292"/>
			<point x="278" y="395" type="curve" smooth="yes"/>
			<point x="271" y="467"/>
			<point x="241" y="503"/>
			<point x="178" y="503" type="curve" smooth="yes"/>
			<point x="134" y="503"/>
			<point x="84" y="475"/>
			<point x="22" y="410" type="curve"/>
			<point x="40" y="372" type="line"/>
			<point x="53" y="379"/>
			<point x="66" y="383"/>
			<point x="79" y="383" type="curve" smooth="yes"/>
			<point x="97" y="383"/>
			<point x="107" y="376"/>
			<point x="110" y="352" type="curve" smooth="yes"/>
		</contour>
	</outline>
</glyph>
<glyph name="xi" format="2">
	<unicode hex="03BE"/>
	<advance width="444"/>
	<outline>
		<contour>
			<point x="251" y="-213" type="line"/>
			<point x="353" y="-143"/>
			<point x="400" y="-78"/>
			<point x="400" y="-15" type="curve" smooth="yes"/>
			<point x="400" y="47"/>
			<point x="374" y="87"/>
			<point x="278" y="124" type="curve" smooth="yes"/>
			<point x="216" y="148"/>
			<point x="193" y="167"/>
			<point x="193" y="207" type="curve" smooth="yes"/>
			<point x="193" y="263"/>
			<point x="239" y="298"/>
			<point x="317" y="298" type="curve" smooth="yes"/>
			<point x="397" y="298" type="line"/>
			<point x="421" y="432" type="line"/>
			<point x="401" y="430"/>
			<point x="385" y="429"/>
			<point x="361" y="429" type="curve" smooth="yes"/>
			<point x="293" y="429"/>
			<point x="263" y="451"/>
			<point x="263" y="494" type="curve" smooth="yes"/>
			<point x="263" y="555"/>
			<point x="319" y="588"/>
			<point x="474" y="588" type="curve"/>
			<point x="496" y="715" type="line"/>
			<point x="110" y="733" type="line"/>
			<point x="85" y="598" type="line"/>
			<point x="328" y="598" type="line"/>
			<point x="320" y="612" type="line"/>
			<point x="214" y="602"/>
			<point x="97" y="549"/>
			<point x="97" y="456" type="curve" smooth="yes"/>
			<point x="97" y="386"/>
			<point x="153" y="338"/>
			<point x="257" y="331" type="curve"/>
			<point x="257" y="348" type="line"/>
			<point x="109" y="342"/>
			<point x="26" y="264"/>
			<point x="26" y="158" type="curve"/>
			<point x="26" y="93"/>
			<point x="59" y="38"/>
			<point x="151" y="6" type="curve" smooth="yes"/>
			<point x="238" y="-24"/>
			<point x="252" y="-43"/>
			<point x="252" y="-85" type="curve" smooth="yes"/>
			<point x="252" y="-109"/>
			<point x="238" y="-148"/>
			<point x="219" y="-181" type="curve"/>
		</contour>
	</outline>
</glyph>
<glyph name="omicron" format="2">
	<unicode hex="03BF"/>
	<advance width="547"/>
	<outline>
		<contour>
			<point x="253" y="-16" type="curve" smooth="yes"/>
			<point x="423" y="-16"/>
			<point x="548" y="142"/>
			<point x="548" y="306" type="curve" smooth="yes"/>
			<point x="548" y="445"/>
			<point x="458" y="503"/>
			<point x="341" y="503" type="curve" smooth="yes"/>
			<point x="170" y="503"/>
			<point x="44" y="343"/>
			<point x="44" y="181" type="curve" smooth="yes"/>
			<point x="44" y="43"/>
			<point x="136" y="-16"/>
		</contour>
		<contour>
			<point x="259" y="44" type="curve" smooth="yes"/>
			<point x="234" y="44"/>
			<point x="214" y="62"/>
			<point x="214" y="139" type="curve" smooth="yes"/>
			<point x="214" y="269"/>
			<point x="261" y="443"/>
			<point x="333" y="443" type="curve" smooth="yes"/>
			<point x="360" y="443"/>
			<point x="378" y="424"/>
			<point x="378" y="354" type="curve" smooth="yes"/>
			<point x="378" y="212"/>
			<point x="329" y="44"/>
		</contour>
	</outline>
	<anchor name="aboveLC" x="346" y="520"/>
</glyph>
